SplineFontDB: 1.0
FontName: THKodchasal
FullName: THKodchasal
FamilyName: TH Kodchasal
Weight: Book
Copyright: Copyright (c) 2006 by Department of Intellectual Property (DIP), Ministry of Commerce and Software Industry Promotion Agency (Public Organization) (SIPA). All rights reserved.
Version: 1.1
ItalicAngle: 0
UnderlinePosition: -35
UnderlineWidth: 30
Ascent: 800
Descent: 200
Order2: 1
XUID: [1021 375 425136265 1643265]
FSType: 0
OS2Version: 3
OS2_WeightWidthSlopeOnly: 0
OS2_UseTypoMetrics: 1
CreationTime: 1157456758
ModificationTime: 1174406132
PfmFamily: 17
TTFWeight: 400
TTFWidth: 5
LineGap: 60
VLineGap: 0
Panose: 2 0 5 6 0 0 0 2 0 4
OS2TypoAscent: 0
OS2TypoAOffset: 1
OS2TypoDescent: 0
OS2TypoDOffset: 1
OS2TypoLinegap: 0
OS2WinAscent: 10
OS2WinAOffset: 1
OS2WinDescent: 4
OS2WinDOffset: 1
HheadAscent: -45
HheadAOffset: 1
HheadDescent: 261
HheadDOffset: 1
OS2SubXSize: 700
OS2SubYSize: 650
OS2SubXOff: 0
OS2SubYOff: 140
OS2SupXSize: 700
OS2SupYSize: 650
OS2SupXOff: 0
OS2SupYOff: 477
OS2StrikeYSize: 30
OS2StrikeYPos: 250
OS2FamilyClass: 773
OS2Vendor: 'IPTH'
ScriptLang: 2
 1 latn 1 dflt 
 0 
ChainSub: coverage 0 0 'liga' 0 0 0 1
 1 0 1
  Coverage: 64 uni0E48.alt2 uni0E49.alt2 uni0E4A.alt2 uni0E4B.alt2 uni0E4C.alt2
  FCoverage: 7 uni0E33
 1
  SeqLookup: 0 'L027'
EndFPST
ChainSub: coverage 0 0 'liga' 0 0 0 1
 1 1 0
  Coverage: 7 uni0E47
  BCoverage: 12 uni0E2C.alt1
 1
  SeqLookup: 0 'L026'
EndFPST
ChainSub: coverage 0 0 'liga' 0 0 0 1
 1 0 1
  Coverage: 7 uni0E2C
  FCoverage: 39 uni0E34 uni0E35 uni0E36 uni0E37 uni0E47
 1
  SeqLookup: 0 'L026'
EndFPST
ChainSub: coverage 0 0 'liga' 0 0 0 1
 1 0 1
  Coverage: 15 uni0E0E uni0E0F
  FCoverage: 38 uni0E38.alt1 uni0E39.alt1 uni0E3A.alt1
 1
  SeqLookup: 0 'L026'
EndFPST
ChainSub: coverage 0 0 'liga' 0 0 0 1
 1 1 0
  Coverage: 5 a b c
  BCoverage: 23 uni0E1B uni0E1D uni0E1F
 1
  SeqLookup: 0 'L026'
EndFPST
ChainSub: coverage 0 0 'liga' 0 0 0 1
 1 0 1
  Coverage: 5 a b c

StartChar: .notdef
Encoding: 65536 -1 0
Width: 500
Flags: W
Fore
402 35 m 1,0,-1
 402 660 l 1,1,-1
 97 660 l 1,2,-1
 97 35 l 1,3,-1
 402 35 l 1,0,-1
436 0 m 1,4,-1
 63 0 l 1,5,-1
 63 695 l 1,6,-1
 436 695 l 1,7,-1
 436 0 l 1,4,-1
EndSplineSet
EndChar
StartChar: numbersign
Encoding: 35 35 4
Width: 458
Flags: W
Fore
410 331 m 0,0,1
 407 313 407 313 380 313 c 2,2,-1
 336 313 l 1,3,-1
 314 188 l 1,4,-1
 358 188 l 2,5,6
 384 188 384 188 381 168 c 0,7,8
 378 150 378 150 351 150 c 2,9,-1
 307 150 l 1,10,-1
 285 26 l 2,11,12
 281 0 281 0 262 0 c 0,13,14
 244 0 244 0 248 26 c 2,15,-1
 270 150 l 1,16,-1
 168 150 l 1,17,-1
 146 26 l 2,18,19
 142 0 142 0 123 0 c 0,20,21
 103 0 103 0 109 26 c 2,22,-1
 130 150 l 1,23,-1
 78 150 l 2,24,25
 51 150 51 150 54 168 c 0,26,27
 57 188 57 188 84 188 c 2,28,-1
 137 188 l 1,29,-1
 159 313 l 1,30,-1
 106 313 l 2,31,32
 80 313 80 313 83 331 c 0,33,34
 86 351 86 351 113 351 c 2,35,-1
 166 351 l 1,36,-1
 185 458 l 2,37,38
 189 485 189 485 209 485 c 0,39,40
 226 485 226 485 222 458 c 2,41,-1
 203 351 l 1,42,-1
 305 351 l 1,43,-1
 324 458 l 2,44,45
 328 485 328 485 348 485 c 0,46,47
 366 485 366 485 362 458 c 2,48,-1
 343 351 l 1,49,-1
 386 351 l 2,50,51
 413 351 413 351 410 331 c 0,0,1
197 313 m 1,52,-1
 174 188 l 1,53,-1
 276 188 l 1,54,-1
 298 313 l 1,55,-1
 197 313 l 1,52,-1
EndSplineSet
EndChar
StartChar: dollar
Encoding: 36 36 5
Width: 423
Flags: W
Fore
405 135 m 0,0,1
 405 85 405 85 369 47 c 0,2,3
 321 1 321 1 230 -4 c 1,4,-1
 230 -32 l 2,5,6
 230 -59 230 -59 212 -59 c 0,7,8
 192 -59 192 -59 192 -32 c 2,9,-1
 192 -4 l 1,10,11
 135 1 135 1 90.5 23 c 128,-1,12
 46 45 46 45 26 80 c 0,13,14
 21 87 21 87 23 94.5 c 128,-1,15
 25 102 25 102 33 107 c 0,16,17
 40 111 40 111 47.5 109 c 128,-1,18
 55 107 55 107 59 100 c 0,19,20
 75 74 75 74 111 56.5 c 128,-1,21
 147 39 147 39 192 36 c 1,22,-1
 192 224 l 1,23,24
 161 227 161 227 131 234.5 c 128,-1,25
 101 242 101 242 77 257 c 128,-1,26
 53 272 53 272 38 294.5 c 128,-1,27
 23 317 23 317 23 349 c 0,28,29
 23 410 23 410 68 446.5 c 128,-1,30
 113 483 113 483 192 488 c 1,31,-1
 192 519 l 2,32,33
 192 546 192 546 212 546 c 0,34,35
 230 546 230 546 230 519 c 2,36,-1
 230 489 l 1,37,38
 288 486 288 486 334.5 463.5 c 128,-1,39
 381 441 381 441 402 405 c 0,40,41
 407 398 407 398 404.5 390.5 c 128,-1,42
 402 383 402 383 395 378 c 0,43,44
 388 374 388 374 380.5 376 c 128,-1,45
 373 378 373 378 368 385 c 0,46,47
 352 412 352 412 315 429.5 c 128,-1,48
 278 447 278 447 230 449 c 1,49,-1
 230 261 l 1,50,51
 276 259 276 259 313 245.5 c 128,-1,52
 350 232 350 232 373 209 c 0,53,54
 405 177 405 177 405 135 c 0,0,1
192 449 m 1,55,56
 166 447 166 447 142.5 440.5 c 128,-1,57
 119 434 119 434 101 422.5 c 128,-1,58
 83 411 83 411 72.5 393 c 128,-1,59
 62 375 62 375 62 349 c 0,60,61
 62 326 62 326 74 310.5 c 128,-1,62
 86 295 86 295 105 285.5 c 128,-1,63
 124 276 124 276 147 271 c 128,-1,64
 170 266 170 266 192 263 c 1,65,-1
 192 449 l 1,55,56
366 135 m 256,66,67
 366 161 366 161 346 181 c 0,68,69
 328 199 328 199 298 209.5 c 128,-1,70
 268 220 268 220 230 222 c 1,71,-1
 230 35 l 1,72,73
 255 36 255 36 279.5 42.5 c 128,-1,74
 304 49 304 49 323.5 61 c 128,-1,75
 343 73 343 73 354.5 91 c 128,-1,76
 366 109 366 109 366 135 c 256,66,67
EndSplineSet
EndChar
StartChar: percent
Encoding: 37 37 6
Width: 403
Flags: W
Fore
206 420 m 0,0,1
 206 383 206 383 180 356.5 c 128,-1,2
 154 330 154 330 116 330 c 256,3,4
 78 330 78 330 52 356.5 c 128,-1,5
 26 383 26 383 26 420 c 0,6,7
 26 458 26 458 52 484 c 128,-1,8
 78 510 78 510 116 510 c 256,9,10
 154 510 154 510 180 484 c 128,-1,11
 206 458 206 458 206 420 c 0,0,1
63 6 m 2,12,13
 54 -8 54 -8 40 1 c 0,14,15
 34 5 34 5 32 11.5 c 128,-1,16
 30 18 30 18 34 24 c 2,17,-1
 332 504 l 2,18,19
 341 518 341 518 355 509 c 0,20,21
 361 505 361 505 362.5 498.5 c 128,-1,22
 364 492 364 492 361 486 c 2,23,-1
 63 6 l 2,12,13
376 90 m 0,24,25
 376 52 376 52 350 26 c 128,-1,26
 324 0 324 0 286 0 c 256,27,28
 248 0 248 0 222 26 c 128,-1,29
 196 52 196 52 196 90 c 0,30,31
 196 127 196 127 222 153.5 c 128,-1,32
 248 180 248 180 286 180 c 256,33,34
 324 180 324 180 350 153.5 c 128,-1,35
 376 127 376 127 376 90 c 0,24,25
176 420 m 0,36,37
 176 446 176 446 158.5 463.5 c 128,-1,38
 141 481 141 481 116 481 c 0,39,40
 90 481 90 481 72.5 463.5 c 128,-1,41
 55 446 55 446 55 420 c 0,42,43
 55 395 55 395 72.5 377.5 c 128,-1,44
 90 360 90 360 116 360 c 0,45,46
 141 360 141 360 158.5 377.5 c 128,-1,47
 176 395 176 395 176 420 c 0,36,37
346 90 m 0,48,49
 346 115 346 115 328.5 132.5 c 128,-1,50
 311 150 311 150 286 150 c 256,51,52
 261 150 261 150 243.5 132.5 c 128,-1,53
 226 115 226 115 226 90 c 0,54,55
 226 64 226 64 243.5 46.5 c 128,-1,56
 261 29 261 29 286 29 c 256,57,58
 311 29 311 29 328.5 46.5 c 128,-1,59
 346 64 346 64 346 90 c 0,48,49
EndSplineSet
EndChar
StartChar: ampersand
Encoding: 38 38 7
Width: 522
Flags: W
Fore
486 19 m 1,0,1
 486 13 486 13 477 7 c 0,2,3
 466 -1 466 -1 456.5 4 c 128,-1,4
 447 9 447 9 443 14 c 0,5,6
 442 15 442 15 433.5 23.5 c 128,-1,7
 425 32 425 32 414.5 42.5 c 128,-1,8
 404 53 404 53 394 63 c 128,-1,9
 384 73 384 73 380 77 c 1,10,11
 367 64 l 130,-1,12
 354 51 354 51 330.5 36 c 128,-1,13
 307 21 307 21 272.5 8 c 128,-1,14
 238 -5 238 -5 195 -5 c 0,15,16
 127 -5 127 -5 84 38 c 0,17,18
 43 79 43 79 43 139 c 0,19,20
 43 177 43 177 60.5 207.5 c 128,-1,21
 78 238 78 238 100.5 259.5 c 128,-1,22
 123 281 123 281 144 294 c 128,-1,23
 165 307 165 307 173 310 c 1,24,25
 167 316 167 316 158.5 325.5 c 128,-1,26
 150 335 150 335 142 348 c 128,-1,27
 134 361 134 361 127.5 376.5 c 128,-1,28
 121 392 121 392 120 409 c 0,29,30
 118 433 118 433 129 453 c 128,-1,31
 140 473 140 473 158.5 487 c 128,-1,32
 177 501 177 501 200 508.5 c 128,-1,33
 223 516 223 516 246 516 c 0,34,35
 270 516 270 516 291 510 c 128,-1,36
 312 504 312 504 328 492 c 128,-1,37
 344 480 344 480 353.5 462 c 128,-1,38
 363 444 363 444 363 420 c 0,39,40
 363 363 363 363 296 327 c 0,41,42
 272 313 272 313 260 306.5 c 128,-1,43
 248 300 248 300 241 297 c 1,44,45
 246 291 246 291 261 274 c 128,-1,46
 276 257 276 257 295.5 235.5 c 128,-1,47
 315 214 315 214 336.5 189.5 c 128,-1,48
 358 165 358 165 377 144 c 1,49,50
 380 148 380 148 384.5 162.5 c 128,-1,51
 389 177 389 177 393.5 194.5 c 128,-1,52
 398 212 398 212 401.5 230 c 128,-1,53
 405 248 405 248 406 261 c 0,54,55
 408 273 408 273 415 279.5 c 128,-1,56
 422 286 422 286 436 282 c 0,57,58
 451 277 451 277 449 257 c 0,59,60
 446 230 446 230 439.5 205.5 c 128,-1,61
 433 181 433 181 426 161.5 c 128,-1,62
 419 142 419 142 413.5 129 c 128,-1,63
 408 116 408 116 406 112 c 1,64,65
 406 113 406 113 412 106.5 c 128,-1,66
 418 100 418 100 428.5 89 c 128,-1,67
 439 78 439 78 452.5 64 c 128,-1,68
 466 50 466 50 479 36 c 0,69,70
 487 26 487 26 486 19 c 1,0,1
210 324 m 1,71,72
 221 329 221 329 241 338.5 c 128,-1,73
 261 348 261 348 280 361 c 128,-1,74
 299 374 299 374 312.5 389 c 128,-1,75
 326 404 326 404 324 421 c 0,76,77
 321 444 321 444 301.5 462.5 c 128,-1,78
 282 481 282 481 245 481 c 0,79,80
 232 481 232 481 216.5 476.5 c 128,-1,81
 201 472 201 472 188 463.5 c 128,-1,82
 175 455 175 455 167 442.5 c 128,-1,83
 159 430 159 430 160 415 c 0,84,85
 160 400 160 400 167 385 c 128,-1,86
 174 370 174 370 182.5 357.5 c 128,-1,87
 191 345 191 345 199 336 c 128,-1,88
 207 327 207 327 210 324 c 1,71,72
354 107 m 1,89,90
 353 110 353 110 336 129 c 0,91,92
 322 146 322 146 291 181 c 128,-1,93
 260 216 260 216 202 282 c 1,94,95
 196 279 196 279 177 268.5 c 128,-1,96
 158 258 158 258 137.5 241.5 c 128,-1,97
 117 225 117 225 100.5 202.5 c 128,-1,98
 84 180 84 180 82 152 c 0,99,100
 79 102 79 102 107 71 c 0,101,102
 129 48 129 48 163 40 c 128,-1,103
 197 32 197 32 233 37.5 c 128,-1,104
 269 43 269 43 301.5 60.5 c 128,-1,105
 334 78 334 78 354 107 c 1,89,90
EndSplineSet
EndChar
StartChar: quotesingle
Encoding: 39 39 8
Width: 134
Flags: W
Fore
83 349 m 1,0,1
 84 336 84 336 80 329.5 c 128,-1,2
 76 323 76 323 64 322 c 0,3,4
 43 322 43 322 43 349 c 2,5,-1
 43 464 l 2,6,7
 42 490 42 490 63 490 c 0,8,9
 82 490 82 490 82 464 c 2,10,-1
 83 349 l 1,11,-1
 83 349 l 1,0,1
EndSplineSet
EndChar
StartChar: parenleft
Encoding: 40 40 9
Width: 200
Flags: W
Fore
140 -95 m 2,0,1
 143 -103 143 -103 140.5 -110 c 128,-1,2
 138 -117 138 -117 130 -120 c 0,3,4
 123 -123 123 -123 116 -120 c 128,-1,5
 109 -117 109 -117 107 -109 c 2,6,7
 106 -108 106 -108 99 -85 c 128,-1,8
 92 -62 92 -62 84 -21.5 c 128,-1,9
 76 19 76 19 69.5 75 c 128,-1,10
 63 131 63 131 63 198 c 256,11,12
 63 265 63 265 69.5 321 c 128,-1,13
 76 377 76 377 84 417 c 128,-1,14
 92 457 92 457 99 479.5 c 128,-1,15
 106 502 106 502 107 504 c 1,16,17
 109 512 109 512 116 515 c 128,-1,18
 123 518 123 518 130 515 c 0,19,20
 138 512 138 512 140.5 505 c 128,-1,21
 143 498 143 498 140 490 c 2,22,23
 133.5 468.5 l 130,-1,24
 127 447 127 447 119.5 408.5 c 128,-1,25
 112 370 112 370 106 316 c 128,-1,26
 100 262 100 262 100 198 c 256,27,28
 100 134 100 134 106 80.5 c 128,-1,29
 112 27 112 27 119.5 -12 c 128,-1,30
 127 -51 127 -51 133.5 -73 c 128,-1,31
 140 -94 140 -94 140 -95 c 2,0,1
EndSplineSet
EndChar
StartChar: parenright
Encoding: 41 41 10
Width: 200
Flags: W
Fore
137 198 m 256,0,1
 137 131 137 131 130.5 75 c 128,-1,2
 124 19 124 19 116 -21.5 c 128,-1,3
 108 -62 108 -62 101.5 -85 c 128,-1,4
 95 -108 95 -108 94 -109 c 2,5,6
 91 -117 91 -117 84.5 -120 c 128,-1,7
 78 -123 78 -123 70 -120 c 0,8,9
 63 -117 63 -117 60 -110 c 128,-1,10
 57 -103 57 -103 60 -95 c 2,11,12
 66.5 -73 l 130,-1,13
 73 -51 73 -51 80.5 -12 c 128,-1,14
 88 27 88 27 94.5 80.5 c 128,-1,15
 101 134 101 134 101 198 c 256,16,17
 101 262 101 262 94.5 316 c 128,-1,18
 88 370 88 370 80.5 408.5 c 128,-1,19
 73 447 73 447 66.5 468.5 c 128,-1,20
 60 489 60 489 60 490 c 2,21,22
 57 498 57 498 60 505 c 128,-1,23
 63 512 63 512 70 515 c 0,24,25
 78 518 78 518 84.5 515 c 128,-1,26
 91 512 91 512 94 504 c 0,27,28
 95 502 95 502 101.5 479.5 c 128,-1,29
 108 457 108 457 116 417 c 128,-1,30
 124 377 124 377 130.5 321 c 128,-1,31
 137 265 137 265 137 198 c 256,0,1
EndSplineSet
EndChar
StartChar: asterisk
Encoding: 42 42 11
Width: 458
Flags: W
Fore
352 288 m 1,0,1
 353 282 353 282 349 276 c 0,2,3
 345 271 345 271 339 268.5 c 128,-1,4
 333 266 333 266 327 270 c 0,5,6
 314 279 314 279 304 287.5 c 128,-1,7
 294 296 294 296 284 305 c 128,-1,8
 274 314 274 314 262.5 323.5 c 128,-1,9
 251 333 251 333 236 345 c 1,10,11
 237 326 237 326 238.5 311 c 128,-1,12
 240 296 240 296 241.5 283 c 128,-1,13
 244.5 257 l 128,-1,14
 246 244 246 244 246 228 c 0,15,16
 246 222 246 222 240.5 217.5 c 128,-1,17
 235 213 235 213 229 213 c 0,18,19
 224 213 224 213 218 217.5 c 128,-1,20
 212 222 212 222 212 228 c 0,21,22
 212 259 212 259 216.5 283 c 128,-1,23
 221 307 221 307 223 345 c 1,24,25
 207 334 207 334 195.5 324.5 c 128,-1,26
 184 315 184 315 174 306 c 128,-1,27
 154 288 l 128,-1,28
 144 279 144 279 131 270 c 1,29,30
 127 266 127 266 119.5 268 c 128,-1,31
 112 270 112 270 110 275 c 1,32,33
 106 280 106 280 106.5 286.5 c 128,-1,34
 107 293 107 293 112 297 c 0,35,36
 138 316 138 316 161 327.5 c 128,-1,37
 184 339 184 339 217 359 c 1,38,39
 200 369 200 369 186.5 376.5 c 128,-1,40
 173 384 173 384 161 391 c 128,-1,41
 137 405 l 128,-1,42
 125 412 125 412 112 421 c 0,43,44
 107 425 107 425 106.5 431.5 c 128,-1,45
 106 438 106 438 110 443 c 1,46,47
 112 447 112 447 119.5 450 c 128,-1,48
 127 453 127 453 131 449 c 1,49,50
 144 440 144 440 154.5 431 c 128,-1,51
 165 422 165 422 174.5 413 c 128,-1,52
 184 404 184 404 195.5 394.5 c 128,-1,53
 207 385 207 385 223 373 c 1,54,55
 222 392 222 392 220.5 407 c 128,-1,56
 219 422 219 422 217 435 c 128,-1,57
 215 448 215 448 213.5 461.5 c 128,-1,58
 212 475 212 475 212 491 c 0,59,60
 212 497 212 497 217.5 501 c 128,-1,61
 223 505 223 505 229 505 c 0,62,63
 236 505 236 505 241 501 c 128,-1,64
 246 497 246 497 246 491 c 0,65,66
 246 475 246 475 244.5 461.5 c 128,-1,67
 243 448 243 448 241.5 435 c 128,-1,68
 240 422 240 422 238.5 407 c 128,-1,69
 237 392 237 392 236 373 c 1,70,71
 252 385 252 385 263 394.5 c 128,-1,72
 274 404 274 404 284 413 c 128,-1,73
 294 422 294 422 304 430.5 c 128,-1,74
 314 439 314 439 327 448 c 0,75,76
 332 452 332 452 338.5 450 c 128,-1,77
 345 448 345 448 349 443 c 0,78,79
 358 431 358 431 347 420 c 1,80,81
 333 411 333 411 321 404.5 c 128,-1,82
 297 391.5 l 128,-1,83
 285 385 285 385 271.5 377 c 128,-1,84
 258 369 258 369 242 359 c 1,85,86
 258 348 258 348 271.5 341 c 128,-1,87
 285 334 285 334 297 327.5 c 128,-1,88
 309 321 309 321 321 314 c 128,-1,89
 333 307 333 307 347 298 c 1,90,-1
 352 288 l 1,0,1
EndSplineSet
EndChar
StartChar: plus
Encoding: 43 43 12
Width: 412
Flags: W
Fore
357 172 m 0,0,1
 357 152 357 152 330 152 c 2,2,-1
 225 152 l 1,3,-1
 225 44 l 2,4,5
 225 17 225 17 207 17 c 0,6,7
 187 17 187 17 187 44 c 2,8,-1
 187 152 l 1,9,-1
 82 152 l 2,10,11
 55 152 55 152 55 172 c 0,12,13
 55 190 55 190 82 190 c 2,14,-1
 187 190 l 1,15,-1
 187 301 l 2,16,17
 187 328 187 328 207 328 c 0,18,19
 225 328 225 328 225 301 c 2,20,-1
 225 190 l 1,21,-1
 330 190 l 2,22,23
 357 190 357 190 357 172 c 0,0,1
EndSplineSet
EndChar
StartChar: comma
Encoding: 44 44 13
Width: 199
Flags: W
Fore
55 35 m 0,0,1
 55 49 55 49 62.5 60.5 c 128,-1,2
 70 72 70 72 81 77 c 0,3,4
 103 86 103 86 122.5 75 c 128,-1,5
 142 64 142 64 146 41 c 0,6,7
 150 22 150 22 145.5 4 c 128,-1,8
 141 -14 141 -14 131 -29.5 c 128,-1,9
 121 -45 121 -45 108 -56.5 c 128,-1,10
 95 -68 95 -68 82 -72 c 0,11,12
 72 -75 72 -75 64.5 -73.5 c 128,-1,13
 57 -72 57 -72 53 -68 c 128,-1,14
 49 -64 49 -64 50 -58 c 128,-1,15
 51 -52 51 -52 59 -47 c 1,16,17
 73 -41 73 -41 89.5 -31 c 128,-1,18
 106 -21 106 -21 112 0 c 1,19,20
 106 -4 106 -4 101 -4 c 0,21,22
 81 -6 81 -6 68 6 c 128,-1,23
 55 18 55 18 55 35 c 0,0,1
EndSplineSet
EndChar
StartChar: hyphen
Encoding: 45 45 14
Width: 350
Flags: W
Fore
293 172 m 256,0,1
 293 153 293 153 266 153 c 2,2,-1
 83 153 l 2,3,4
 56 153 56 153 56 172 c 256,5,6
 56 191 56 191 83 191 c 2,7,-1
 266 191 l 2,8,9
 293 191 293 191 293 172 c 256,0,1
EndSplineSet
EndChar
StartChar: period
Encoding: 46 46 15
Width: 202
Flags: W
Fore
61 43 m 256,0,1
 61 60 61 60 73.5 72.5 c 128,-1,2
 86 85 86 85 103 85 c 256,3,4
 120 85 120 85 132.5 72.5 c 128,-1,5
 145 60 145 60 145 43 c 256,6,7
 145 26 145 26 132.5 13.5 c 128,-1,8
 120 1 120 1 103 1 c 256,9,10
 86 1 86 1 73.5 13.5 c 128,-1,11
 61 26 61 26 61 43 c 256,0,1
EndSplineSet
EndChar
StartChar: slash
Encoding: 47 47 16
Width: 329
Flags: W
Fore
63 -51 m 2,0,1
 60 -57 60 -57 53.5 -59.5 c 128,-1,2
 47 -62 47 -62 41 -59 c 0,3,4
 34 -56 34 -56 31.5 -49.5 c 128,-1,5
 29 -43 29 -43 32 -37 c 2,6,-1
 263 474 l 2,7,8
 266 480 266 480 272.5 482.5 c 128,-1,9
 279 485 279 485 286 482 c 0,10,11
 292 479 292 479 294.5 472.5 c 128,-1,12
 297 466 297 466 294 460 c 2,13,-1
 63 -51 l 2,0,1
EndSplineSet
EndChar
StartChar: zero
Encoding: 48 48 17
Width: 447
Flags: W
Fore
408 242 m 256,0,1
 408 191 408 191 398.5 146.5 c 128,-1,2
 389 102 389 102 367 69 c 128,-1,3
 345 36 345 36 310 17 c 128,-1,4
 275 -2 275 -2 224 -2 c 256,5,6
 173 -2 173 -2 138 17 c 128,-1,7
 103 36 103 36 81.5 69 c 128,-1,8
 60 102 60 102 50 146.5 c 128,-1,9
 40 191 40 191 40 242 c 0,10,11
 40 323 40 323 61 371.5 c 128,-1,12
 82 420 82 420 111.5 445.5 c 128,-1,13
 141 471 141 471 172 479 c 128,-1,14
 203 487 203 487 224 487 c 0,15,16
 275 487 275 487 310 468 c 128,-1,17
 345 449 345 449 367 415.5 c 128,-1,18
 389 382 389 382 398.5 337.5 c 128,-1,19
 408 293 408 293 408 242 c 256,0,1
365 242 m 0,20,21
 365 284 365 284 358.5 321 c 128,-1,22
 352 358 352 358 336 385.5 c 128,-1,23
 320 413 320 413 292.5 428.5 c 128,-1,24
 265 444 265 444 224 444 c 256,25,26
 183 444 183 444 156 428 c 128,-1,27
 129 412 129 412 112.5 385 c 128,-1,28
 96 358 96 358 89.5 321 c 128,-1,29
 83 284 83 284 83 242 c 256,30,31
 83 200 83 200 90 163.5 c 128,-1,32
 97 127 97 127 113 100 c 128,-1,33
 129 73 129 73 156 57 c 128,-1,34
 183 41 183 41 224 41 c 0,35,36
 268 41 268 41 295.5 60 c 128,-1,37
 323 79 323 79 338.5 108 c 128,-1,38
 354 137 354 137 359.5 173 c 128,-1,39
 365 209 365 209 365 242 c 0,20,21
EndSplineSet
EndChar
StartChar: one
Encoding: 49 49 18
Width: 325
Flags: W
Fore
223 21 m 1,0,1
 223 13 223 13 216.5 6.5 c 128,-1,2
 210 0 210 0 201 0 c 256,3,4
 192 0 192 0 185.5 6.5 c 128,-1,5
 179 13 179 13 179 21 c 2,6,-1
 179 439 l 1,7,-1
 81 401 l 2,8,9
 73 398 73 398 64.5 402 c 128,-1,10
 56 406 56 406 53 414 c 256,11,12
 50 422 50 422 54 430.5 c 128,-1,13
 58 439 58 439 66 442 c 2,14,-1
 193 490 l 1,15,16
 203 492 203 492 210 489 c 0,17,18
 216 487 216 487 220.5 480 c 128,-1,19
 225 473 225 473 223 458 c 2,20,-1
 223 21 l 1,21,-1
 223 21 l 1,0,1
EndSplineSet
EndChar
StartChar: two
Encoding: 50 50 19
Width: 436
Flags: W
Fore
396 22 m 0,0,1
 396 13 396 13 390 6.5 c 128,-1,2
 384 0 384 0 375 0 c 2,3,-1
 62 0 l 2,4,5
 54 0 54 0 48.5 5 c 128,-1,6
 43 10 43 10 41 17 c 128,-1,7
 39 24 39 24 40.5 31.5 c 128,-1,8
 42 39 42 39 48 44 c 2,9,-1
 311 262 l 2,10,11
 339 286 339 286 348.5 317.5 c 128,-1,12
 358 349 358 349 347 378 c 0,13,14
 335 409 335 409 300.5 427.5 c 128,-1,15
 266 446 266 446 228 446 c 0,16,17
 186 446 186 446 159.5 435.5 c 128,-1,18
 133 425 133 425 118 408 c 128,-1,19
 103 391 103 391 96.5 370 c 128,-1,20
 90 349 90 349 89 327 c 0,21,22
 88 318 88 318 81.5 312 c 128,-1,23
 75 306 75 306 66 307 c 256,24,25
 57 308 57 308 52.5 315 c 128,-1,26
 48 322 48 322 48 330 c 0,27,28
 60 487 60 487 228 487 c 0,29,30
 253 487 253 487 277.5 480 c 128,-1,31
 302 473 302 473 323 460.5 c 128,-1,32
 344 448 344 448 360 430.5 c 128,-1,33
 376 413 376 413 385 391 c 0,34,35
 401 349 401 349 387 307 c 128,-1,36
 373 265 373 265 335 230 c 2,37,-1
 111 43 l 1,38,-1
 375 43 l 2,39,40
 384 43 384 43 390 36.5 c 128,-1,41
 396 30 396 30 396 22 c 0,0,1
EndSplineSet
EndChar
StartChar: three
Encoding: 51 51 20
Width: 424
Flags: W
Fore
384 129 m 0,0,1
 381 94 381 94 365.5 68 c 128,-1,2
 350 42 350 42 326 25 c 128,-1,3
 302 8 302 8 272 -1 c 128,-1,4
 242 -10 242 -10 209 -10 c 0,5,6
 181 -10 181 -10 150.5 -2 c 128,-1,7
 120 6 120 6 94.5 24 c 128,-1,8
 69 42 69 42 52 70.5 c 128,-1,9
 35 99 35 99 35 140 c 0,10,11
 35 149 35 149 41.5 155 c 128,-1,12
 48 161 48 161 57 161 c 256,13,14
 66 161 66 161 72 155 c 128,-1,15
 78 149 78 149 78 140 c 0,16,17
 78 112 78 112 89.5 91.5 c 128,-1,18
 101 71 101 71 119.5 57.5 c 128,-1,19
 138 44 138 44 161.5 37 c 128,-1,20
 185 30 185 30 209 30 c 0,21,22
 234 30 234 30 257 36 c 128,-1,23
 280 42 280 42 298.5 54.5 c 128,-1,24
 317 67 317 67 329 85.5 c 128,-1,25
 341 104 341 104 343 129 c 0,26,27
 344 144 344 144 343 160 c 128,-1,28
 342 176 342 176 336 191 c 128,-1,29
 330 206 330 206 317 218.5 c 128,-1,30
 304 231 304 231 282 238 c 1,31,-1
 168 238 l 2,32,33
 160 238 160 238 153.5 243 c 128,-1,34
 147 248 147 248 147 257 c 256,35,36
 147 266 147 266 153.5 272.5 c 128,-1,37
 160 279 160 279 168 279 c 2,38,-1
 278 279 l 1,39,40
 313 298 313 298 322.5 328 c 128,-1,41
 332 358 332 358 321 386.5 c 128,-1,42
 310 415 310 415 280.5 435.5 c 128,-1,43
 251 456 251 456 208 456 c 0,44,45
 185 456 185 456 163 450.5 c 128,-1,46
 141 445 141 445 123 434.5 c 128,-1,47
 105 424 105 424 92.5 407.5 c 128,-1,48
 80 391 80 391 76 369 c 0,49,50
 74 360 74 360 70 354 c 128,-1,51
 66 348 66 348 55 349 c 0,52,53
 46 349 46 349 40.5 355 c 128,-1,54
 35 361 35 361 36 370 c 0,55,56
 37 388 37 388 47 410 c 128,-1,57
 57 432 57 432 77 451 c 128,-1,58
 97 470 97 470 129 483 c 128,-1,59
 161 496 161 496 208 497 c 0,60,61
 263 498 263 498 302.5 473 c 128,-1,62
 342 448 342 448 359 411.5 c 128,-1,63
 376 375 376 375 368.5 334 c 128,-1,64
 361 293 361 293 323 262 c 1,65,66
 355 244 355 244 371.5 210.5 c 128,-1,67
 388 177 388 177 384 129 c 0,0,1
EndSplineSet
EndChar
StartChar: four
Encoding: 52 52 21
Width: 444
Flags: W
Fore
408 118 m 256,0,1
 408 109 408 109 401.5 103 c 128,-1,2
 395 97 395 97 387 97 c 2,3,-1
 344 97 l 1,4,-1
 344 22 l 2,5,6
 344 13 344 13 339.5 6.5 c 128,-1,7
 335 0 335 0 324 0 c 256,8,9
 313 0 313 0 308 6.5 c 128,-1,10
 303 13 303 13 303 22 c 2,11,-1
 303 97 l 1,12,-1
 47 97 l 1,13,-1
 46 97 l 2,14,15
 32 97 32 97 27 109.5 c 128,-1,16
 22 122 22 122 30 132 c 2,17,-1
 308 482 l 1,18,19
 319 490 319 490 331.5 485 c 128,-1,20
 344 480 344 480 344 466 c 2,21,-1
 344 137 l 1,22,-1
 387 137 l 2,23,24
 395 137 395 137 401.5 132 c 128,-1,25
 408 127 408 127 408 118 c 256,0,1
303 412 m 1,26,-1
 92 137 l 1,27,-1
 303 137 l 1,28,-1
 303 412 l 1,26,-1
EndSplineSet
EndChar
StartChar: five
Encoding: 53 53 22
Width: 442
Flags: W
Fore
393 118 m 0,0,1
 381 74 381 74 350 44 c 128,-1,2
 319 14 319 14 274 3 c 0,3,4
 238 -7 238 -7 200.5 -2.5 c 128,-1,5
 163 2 163 2 130.5 19 c 128,-1,6
 98 36 98 36 74 66 c 128,-1,7
 50 96 50 96 41 138 c 0,8,9
 39 146 39 146 44.5 153.5 c 128,-1,10
 50 161 50 161 58 163 c 0,11,12
 78 166 78 166 81 147 c 0,13,14
 88 114 88 114 106.5 90.5 c 128,-1,15
 125 67 125 67 150 53.5 c 128,-1,16
 175 40 175 40 205 37 c 128,-1,17
 235 34 235 34 264 42 c 0,18,19
 287 48 287 48 302.5 58.5 c 128,-1,20
 318 69 318 69 328.5 81.5 c 128,-1,21
 339 94 339 94 344.5 106.5 c 128,-1,22
 350 119 350 119 353 128 c 0,23,24
 365 171 365 171 358 203.5 c 128,-1,25
 351 236 351 236 331.5 257.5 c 128,-1,26
 312 279 312 279 283.5 289.5 c 128,-1,27
 255 300 255 300 224 300.5 c 128,-1,28
 193 301 193 301 163 290.5 c 128,-1,29
 133 280 133 280 111 260 c 0,30,31
 105 254 105 254 97.5 246 c 128,-1,32
 90 238 90 238 79 240 c 0,33,34
 70 242 70 242 64.5 249 c 128,-1,35
 59 256 59 256 61 264 c 2,36,-1
 94 485 l 1,37,-1
 360 485 l 2,38,39
 369 485 369 485 375 478.5 c 128,-1,40
 381 472 381 472 381 463 c 0,41,42
 381 455 381 455 375 449.5 c 128,-1,43
 369 444 369 444 360 444 c 2,44,-1
 129 444 l 1,45,-1
 109 306 l 1,46,47
 145 329 145 329 184 337 c 128,-1,48
 223 345 223 345 258.5 339.5 c 128,-1,49
 294 334 294 334 324.5 316 c 128,-1,50
 355 298 355 298 374 269.5 c 128,-1,51
 393 241 393 241 399 202.5 c 128,-1,52
 405 164 405 164 393 118 c 0,0,1
EndSplineSet
EndChar
StartChar: six
Encoding: 54 54 23
Width: 458
Flags: W
Fore
417 158 m 0,0,1
 419 122 419 122 404.5 90.5 c 128,-1,2
 390 59 390 59 364.5 36.5 c 128,-1,3
 339 14 339 14 303.5 1 c 128,-1,4
 268 -12 268 -12 228 -12 c 0,5,6
 175 -12 175 -12 139 7 c 128,-1,7
 103 26 103 26 80.5 60 c 128,-1,8
 58 94 58 94 48.5 140 c 128,-1,9
 39 186 39 186 40 239 c 0,10,11
 41 297 41 297 56 344.5 c 128,-1,12
 71 392 71 392 98 426 c 128,-1,13
 125 460 125 460 163.5 478.5 c 128,-1,14
 202 497 202 497 252 497 c 0,15,16
 281 497 281 497 307 488.5 c 128,-1,17
 333 480 333 480 353 466.5 c 128,-1,18
 373 453 373 453 387.5 435.5 c 128,-1,19
 402 418 402 418 408 401 c 0,20,21
 411 390 411 390 408 381 c 128,-1,22
 405 372 405 372 396 369 c 0,23,24
 373 362 373 362 363 384 c 0,25,26
 359 396 359 396 349 407.5 c 128,-1,27
 339 419 339 419 325 429 c 128,-1,28
 311 439 311 439 292.5 445 c 128,-1,29
 274 451 274 451 252 451 c 0,30,31
 204 451 204 451 172.5 431 c 128,-1,32
 141 411 141 411 122 380.5 c 128,-1,33
 103 350 103 350 95.5 312.5 c 128,-1,34
 88 275 88 275 87 240 c 1,35,36
 113 282 113 282 152 302 c 128,-1,37
 191 322 191 322 237 322 c 0,38,39
 286 322 286 322 320 307.5 c 128,-1,40
 354 293 354 293 375 269.5 c 128,-1,41
 396 246 396 246 405.5 216.5 c 128,-1,42
 415 187 415 187 417 158 c 0,0,1
373 155 m 0,43,44
 373 180 373 180 362 203 c 128,-1,45
 351 226 351 226 332.5 243.5 c 128,-1,46
 314 261 314 261 289.5 271.5 c 128,-1,47
 265 282 265 282 237 282 c 256,48,49
 209 282 209 282 183.5 272 c 128,-1,50
 158 262 158 262 138.5 244.5 c 128,-1,51
 119 227 119 227 107.5 203 c 128,-1,52
 96 179 96 179 96 151 c 0,53,54
 96 122 96 122 107.5 99 c 128,-1,55
 119 76 119 76 138.5 60.5 c 128,-1,56
 158 45 158 45 183.5 37 c 128,-1,57
 209 29 209 29 237 29 c 256,58,59
 265 29 265 29 289.5 39 c 128,-1,60
 314 49 314 49 332.5 66 c 128,-1,61
 351 83 351 83 362 106 c 128,-1,62
 373 129 373 129 373 155 c 0,43,44
EndSplineSet
EndChar
StartChar: seven
Encoding: 55 55 24
Width: 406
Flags: W
Fore
132 9 m 2,0,1
 127 1 127 1 119 -1.5 c 128,-1,2
 111 -4 111 -4 103 1 c 256,3,4
 95 6 95 6 92.5 14 c 128,-1,5
 90 22 90 22 95 30 c 2,6,-1
 323 443 l 1,7,-1
 52 443 l 2,8,9
 43 443 43 443 36.5 449.5 c 128,-1,10
 30 456 30 456 30 464 c 0,11,12
 30 473 30 473 36.5 479.5 c 128,-1,13
 43 486 43 486 52 486 c 2,14,-1
 367 486 l 1,15,-1
 367 427 l 1,16,-1
 132 9 l 2,0,1
EndSplineSet
EndChar
StartChar: eight
Encoding: 56 56 25
Width: 450
Flags: W
Fore
409 139 m 0,0,1
 409 104 409 104 393 75.5 c 128,-1,2
 377 47 377 47 350.5 27 c 128,-1,3
 324 7 324 7 291 -4 c 128,-1,4
 258 -15 258 -15 225 -15 c 0,5,6
 191 -15 191 -15 158 -4 c 128,-1,7
 125 7 125 7 99 27 c 128,-1,8
 73 47 73 47 57 75.5 c 128,-1,9
 41 104 41 104 41 139 c 0,10,11
 41 181 41 181 65.5 216 c 128,-1,12
 90 251 90 251 132 271 c 1,13,14
 106 287 106 287 89.5 315 c 128,-1,15
 73 343 73 343 73 372 c 0,16,17
 73 398 73 398 85 421 c 128,-1,18
 97 444 97 444 117.5 461.5 c 128,-1,19
 138 479 138 479 165.5 489 c 128,-1,20
 193 499 193 499 225 499 c 0,21,22
 252 499 252 499 279 490 c 128,-1,23
 306 481 306 481 327.5 464.5 c 128,-1,24
 349 448 349 448 362.5 424.5 c 128,-1,25
 376 401 376 401 376 372 c 256,26,27
 376 343 376 343 360.5 314.5 c 128,-1,28
 345 286 345 286 318 271 c 1,29,30
 357 253 357 253 383 217 c 128,-1,31
 409 181 409 181 409 139 c 0,0,1
333 371 m 0,32,33
 333 391 333 391 323 407 c 128,-1,34
 313 423 313 423 297 434 c 128,-1,35
 281 445 281 445 262 450.5 c 128,-1,36
 243 456 243 456 225 456 c 256,37,38
 207 456 207 456 188 450.5 c 128,-1,39
 169 445 169 445 153.5 434.5 c 128,-1,40
 138 424 138 424 127.5 408 c 128,-1,41
 117 392 117 392 117 372 c 0,42,43
 117 357 117 357 125 342 c 128,-1,44
 133 327 133 327 147 315.5 c 128,-1,45
 161 304 161 304 181 296.5 c 128,-1,46
 201 289 201 289 224 289 c 256,47,48
 247 289 247 289 267 296 c 128,-1,49
 287 303 287 303 301.5 315 c 128,-1,50
 316 327 316 327 324.5 341.5 c 128,-1,51
 333 356 333 356 333 371 c 0,32,33
366 139 m 0,52,53
 366 164 366 164 353 184.5 c 128,-1,54
 340 205 340 205 320 218.5 c 128,-1,55
 300 232 300 232 275 239.5 c 128,-1,56
 250 247 250 247 225 247 c 256,57,58
 200 247 200 247 174.5 239.5 c 128,-1,59
 149 232 149 232 129 218.5 c 128,-1,60
 109 205 109 205 96 184.5 c 128,-1,61
 83 164 83 164 83 139 c 0,62,63
 83 117 83 117 93.5 97 c 128,-1,64
 104 77 104 77 123 61.5 c 128,-1,65
 142 46 142 46 168 37 c 128,-1,66
 194 28 194 28 225 28 c 0,67,68
 253 28 253 28 279 36.5 c 128,-1,69
 305 45 305 45 324 60 c 128,-1,70
 343 75 343 75 354.5 95.5 c 128,-1,71
 366 116 366 116 366 139 c 0,52,53
EndSplineSet
EndChar
StartChar: nine
Encoding: 57 57 26
Width: 439
Flags: W
Fore
399 245 m 0,0,1
 398 188 398 188 384 142 c 128,-1,2
 370 96 370 96 343.5 63.5 c 128,-1,3
 317 31 317 31 279 13.5 c 128,-1,4
 241 -4 241 -4 193 -4 c 0,5,6
 164 -4 164 -4 139.5 4.5 c 128,-1,7
 115 13 115 13 95.5 26.5 c 128,-1,8
 76 40 76 40 62 57 c 128,-1,9
 48 74 48 74 42 91 c 0,10,11
 38 100 38 100 42.5 109 c 128,-1,12
 47 118 47 118 56 121 c 0,13,14
 65 125 65 125 72 121 c 128,-1,15
 79 117 79 117 83 108 c 0,16,17
 87 96 87 96 97.5 84.5 c 128,-1,18
 108 73 108 73 123 63 c 128,-1,19
 138 53 138 53 156 47 c 128,-1,20
 174 41 174 41 194 41 c 0,21,22
 240 41 240 41 271 59.5 c 128,-1,23
 302 78 302 78 320.5 106.5 c 128,-1,24
 339 135 339 135 346.5 170 c 128,-1,25
 354 205 354 205 354 239 c 1,26,27
 330 201 330 201 291 183 c 128,-1,28
 252 165 252 165 208 165 c 0,29,30
 171 165 171 165 138.5 175.5 c 128,-1,31
 106 186 106 186 82 206.5 c 128,-1,32
 58 227 58 227 44.5 256 c 128,-1,33
 31 285 31 285 32 323 c 0,34,35
 33 359 33 359 46.5 389.5 c 128,-1,36
 60 420 60 420 83.5 442.5 c 128,-1,37
 107 465 107 465 139 477.5 c 128,-1,38
 171 490 171 490 210 490 c 0,39,40
 262 490 262 490 299 472 c 128,-1,41
 336 454 336 454 358.5 421.5 c 128,-1,42
 381 389 381 389 390.5 344 c 128,-1,43
 400 299 400 299 399 245 c 0,0,1
341 327 m 0,44,45
 341 352 341 352 330.5 374 c 128,-1,46
 320 396 320 396 302 412.5 c 128,-1,47
 284 429 284 429 260 439 c 128,-1,48
 236 449 236 449 209 449 c 256,49,50
 182 449 182 449 158 439.5 c 128,-1,51
 134 430 134 430 115.5 413.5 c 128,-1,52
 97 397 97 397 86.5 375 c 128,-1,53
 76 353 76 353 76 328 c 0,54,55
 76 302 76 302 86.5 279 c 128,-1,56
 97 256 97 256 115 239.5 c 128,-1,57
 133 223 133 223 157 213.5 c 128,-1,58
 181 204 181 204 208 204 c 256,59,60
 235 204 235 204 259 213.5 c 128,-1,61
 283 223 283 223 301.5 239.5 c 128,-1,62
 320 256 320 256 330.5 278.5 c 128,-1,63
 341 301 341 301 341 327 c 0,44,45
EndSplineSet
EndChar
StartChar: colon
Encoding: 58 58 27
Width: 200
Flags: W
Fore
61 282 m 256,0,1
 61 299 61 299 73.5 311.5 c 128,-1,2
 86 324 86 324 103 324 c 256,3,4
 120 324 120 324 132.5 311.5 c 128,-1,5
 145 299 145 299 145 282 c 256,6,7
 145 265 145 265 132.5 252.5 c 128,-1,8
 120 240 120 240 103 240 c 256,9,10
 86 240 86 240 73.5 252.5 c 128,-1,11
 61 265 61 265 61 282 c 256,0,1
61 37 m 256,12,13
 61 54 61 54 73.5 66.5 c 128,-1,14
 86 79 86 79 103 79 c 256,15,16
 120 79 120 79 132.5 66.5 c 128,-1,17
 145 54 145 54 145 37 c 256,18,19
 145 20 145 20 132.5 7.5 c 128,-1,20
 120 -5 120 -5 103 -5 c 256,21,22
 86 -5 86 -5 73.5 7.5 c 128,-1,23
 61 20 61 20 61 37 c 256,12,13
EndSplineSet
EndChar
StartChar: semicolon
Encoding: 59 59 28
Width: 200
Flags: W
Fore
61 282 m 256,0,1
 61 299 61 299 73.5 311.5 c 128,-1,2
 86 324 86 324 103 324 c 256,3,4
 120 324 120 324 132.5 311.5 c 128,-1,5
 145 299 145 299 145 282 c 256,6,7
 145 265 145 265 132.5 252.5 c 128,-1,8
 120 240 120 240 103 240 c 256,9,10
 86 240 86 240 73.5 252.5 c 128,-1,11
 61 265 61 265 61 282 c 256,0,1
55 35 m 0,12,13
 55 49 55 49 62.5 60.5 c 128,-1,14
 70 72 70 72 81 77 c 0,15,16
 103 86 103 86 122.5 75 c 128,-1,17
 142 64 142 64 146 41 c 0,18,19
 150 22 150 22 145.5 4 c 128,-1,20
 141 -14 141 -14 131 -29.5 c 128,-1,21
 121 -45 121 -45 108 -56.5 c 128,-1,22
 95 -68 95 -68 82 -72 c 0,23,24
 72 -75 72 -75 64.5 -73.5 c 128,-1,25
 57 -72 57 -72 53 -68 c 128,-1,26
 49 -64 49 -64 50 -58 c 128,-1,27
 51 -52 51 -52 59 -47 c 1,28,29
 73 -41 73 -41 89.5 -31 c 128,-1,30
 106 -21 106 -21 112 0 c 1,31,32
 106 -4 106 -4 101 -4 c 0,33,34
 81 -6 81 -6 68 6 c 128,-1,35
 55 18 55 18 55 35 c 0,12,13
EndSplineSet
EndChar
StartChar: less
Encoding: 60 60 29
Width: 460
Flags: W
Fore
387 4 m 256,0,1
 382 -4 382 -4 374 -6.5 c 128,-1,2
 366 -9 366 -9 358 -4 c 2,3,-1
 74 159 l 1,4,5
 74 160 74 160 73 160 c 1,6,7
 65 164 65 164 64.5 177.5 c 128,-1,8
 64 191 64 191 74 196 c 2,9,-1
 358 359 l 2,10,11
 366 364 366 364 374 362 c 128,-1,12
 382 360 382 360 387 352 c 256,13,14
 392 344 392 344 389.5 336 c 128,-1,15
 387 328 387 328 379 323 c 2,16,-1
 116 178 l 1,17,-1
 379 33 l 2,18,19
 387 28 387 28 389.5 20 c 128,-1,20
 392 12 392 12 387 4 c 256,0,1
EndSplineSet
EndChar
StartChar: equal
Encoding: 61 61 30
Width: 470
Flags: W
Fore
416 106 m 0,0,1
 416 86 416 86 390 86 c 2,2,-1
 80 86 l 2,3,4
 54 86 54 86 54 106 c 0,5,6
 54 124 54 124 80 124 c 2,7,-1
 390 124 l 2,8,9
 416 124 416 124 416 106 c 0,0,1
416 237 m 0,10,11
 416 218 416 218 390 218 c 2,12,-1
 80 218 l 2,13,14
 54 218 54 218 54 237 c 0,15,16
 54 255 54 255 80 255 c 2,17,-1
 390 255 l 2,18,19
 416 255 416 255 416 237 c 0,10,11
EndSplineSet
EndChar
StartChar: greater
Encoding: 62 62 31
Width: 460
Flags: W
Fore
394 175 m 0,0,1
 393 167 393 167 389.5 164 c 128,-1,2
 386 161 386 161 385 160 c 1,3,4
 384 160 384 160 384 159 c 1,5,-1
 100 -4 l 2,6,7
 92 -9 92 -9 84 -6.5 c 128,-1,8
 76 -4 76 -4 71 4 c 256,9,10
 66 12 66 12 68.5 20 c 128,-1,11
 71 28 71 28 79 33 c 2,12,-1
 342 178 l 1,13,-1
 79 323 l 2,14,15
 71 328 71 328 68.5 336 c 128,-1,16
 66 344 66 344 71 352 c 256,17,18
 76 360 76 360 84 362 c 128,-1,19
 92 364 92 364 100 359 c 2,20,-1
 384 196 l 2,21,22
 396 189 396 189 394 175 c 0,0,1
EndSplineSet
EndChar
StartChar: question
Encoding: 63 63 32
Width: 431
Flags: W
Fore
374 359 m 0,0,1
 374 318 374 318 358.5 293.5 c 128,-1,2
 343 269 343 269 319.5 254 c 128,-1,3
 296 239 296 239 269 229 c 128,-1,4
 242 219 242 219 218 207 c 0,5,6
 201 199 201 199 193.5 178.5 c 128,-1,7
 186 158 186 158 186 140 c 2,8,-1
 186 121 l 2,9,10
 186 94 186 94 168 94 c 0,11,12
 149 94 149 94 149 121 c 2,13,-1
 149 140 l 2,14,15
 149 172 149 172 161 196 c 128,-1,16
 173 220 173 220 204 238 c 0,17,18
 226 251 226 251 249.5 259 c 128,-1,19
 273 267 273 267 292.5 278 c 128,-1,20
 312 289 312 289 324 307.5 c 128,-1,21
 336 326 336 326 336 359 c 256,22,23
 336 392 336 392 324 413.5 c 128,-1,24
 312 435 312 435 293.5 447 c 128,-1,25
 275 459 275 459 252.5 464 c 128,-1,26
 230 469 230 469 208 469 c 0,27,28
 128 469 128 469 85 405 c 0,29,30
 80 398 80 398 72 398.5 c 128,-1,31
 64 399 64 399 58 405 c 0,32,33
 52 410 52 410 52 417.5 c 128,-1,34
 52 425 52 425 57 432 c 0,35,36
 83 467 83 467 120 486.5 c 128,-1,37
 157 506 157 506 206 506 c 0,38,39
 243 506 243 506 273.5 496.5 c 128,-1,40
 304 487 304 487 326.5 468.5 c 128,-1,41
 349 450 349 450 361.5 422.5 c 128,-1,42
 374 395 374 395 374 359 c 0,0,1
204 30 m 256,43,44
 204 15 204 15 193.5 5 c 128,-1,45
 183 -5 183 -5 168 -5 c 256,46,47
 153 -5 153 -5 143 5 c 128,-1,48
 133 15 133 15 133 30 c 256,49,50
 133 45 133 45 143 55.5 c 128,-1,51
 153 66 153 66 168 66 c 256,52,53
 183 66 183 66 193.5 55.5 c 128,-1,54
 204 45 204 45 204 30 c 256,43,44
EndSplineSet
EndChar
StartChar: at
Encoding: 64 64 33
Width: 643
Flags: W
Fore
571 236 m 0,0,1
 563 182 563 182 538.5 148.5 c 128,-1,2
 514 115 514 115 484 97 c 0,3,4
 467 87 467 87 448.5 86.5 c 128,-1,5
 430 86 430 86 417 97 c 0,6,7
 412 102 412 102 407 113 c 128,-1,8
 402 124 402 124 406 135 c 1,9,10
 382 114 382 114 353.5 102 c 128,-1,11
 325 90 325 90 287 90 c 0,12,13
 256 90 256 90 234 100.5 c 128,-1,14
 212 111 212 111 198.5 127.5 c 128,-1,15
 185 144 185 144 180 163 c 128,-1,16
 175 182 175 182 177 200 c 0,17,18
 182 251 182 251 225 278.5 c 128,-1,19
 268 306 268 306 332 306 c 0,20,21
 357 305 357 305 378 299 c 0,22,23
 396 294 396 294 412 282.5 c 128,-1,24
 428 271 428 271 431 251 c 1,25,26
 437 278 437 278 437 299.5 c 128,-1,27
 437 321 437 321 426 338 c 0,28,29
 413 357 413 357 390.5 366.5 c 128,-1,30
 368 376 368 376 341.5 376 c 128,-1,31
 315 376 315 376 288.5 368.5 c 128,-1,32
 262 361 262 361 242 347 c 0,33,34
 236 343 236 343 229.5 342 c 128,-1,35
 223 341 223 341 220 347 c 0,36,37
 217 352 217 352 219 359 c 128,-1,38
 221 366 221 366 231 373 c 0,39,40
 253 390 253 390 284.5 399 c 128,-1,41
 316 408 316 408 348 407.5 c 128,-1,42
 380 407 380 407 408 396 c 128,-1,43
 436 385 436 385 452 361 c 0,44,45
 467 338 467 338 467.5 312 c 128,-1,46
 468 286 468 286 463 264 c 2,47,-1
 433 137 l 2,48,49
 429 121 429 121 438 117 c 128,-1,50
 447 113 447 113 464 121 c 0,51,52
 490 134 490 134 509.5 163 c 128,-1,53
 529 192 529 192 537 242 c 0,54,55
 540 259 540 259 541 281 c 128,-1,56
 542 303 542 303 537.5 326.5 c 128,-1,57
 533 350 533 350 522 374 c 128,-1,58
 511 398 511 398 491 420 c 0,59,60
 472 440 472 440 447.5 453.5 c 128,-1,61
 423 467 423 467 395 474 c 128,-1,62
 367 481 367 481 337.5 480.5 c 128,-1,63
 308 480 308 480 280 472 c 0,64,65
 248 463 248 463 220 446.5 c 128,-1,66
 192 430 192 430 170 407.5 c 128,-1,67
 148 385 148 385 133 358 c 128,-1,68
 118 331 118 331 111 301 c 0,69,70
 96 233 96 233 105 185 c 128,-1,71
 114 137 114 137 134.5 104.5 c 128,-1,72
 155 72 155 72 180.5 53 c 128,-1,73
 206 34 206 34 224 26 c 0,74,75
 254 12 254 12 284.5 8.5 c 128,-1,76
 315 5 315 5 342 7 c 128,-1,77
 369 9 369 9 390 14 c 128,-1,78
 411 19 411 19 421 24 c 1,79,80
 428 26 428 26 437 25 c 128,-1,81
 446 24 446 24 449 18 c 0,82,83
 453 11 453 11 450.5 4.5 c 128,-1,84
 448 -2 448 -2 442 -6 c 0,85,86
 428 -13 428 -13 401 -19 c 128,-1,87
 374 -25 374 -25 341.5 -26.5 c 128,-1,88
 309 -28 309 -28 274 -23.5 c 128,-1,89
 239 -19 239 -19 209 -5 c 0,90,91
 123 35 123 35 88 118.5 c 128,-1,92
 53 202 53 202 78 309 c 0,93,94
 86 343 86 343 103.5 374.5 c 128,-1,95
 121 406 121 406 145.5 431.5 c 128,-1,96
 170 457 170 457 202 476.5 c 128,-1,97
 234 496 234 496 270 506 c 0,98,99
 303 515 303 515 337.5 515 c 128,-1,100
 372 515 372 515 404.5 506.5 c 128,-1,101
 437 498 437 498 465.5 482 c 128,-1,102
 494 466 494 466 516 443 c 0,103,104
 554 402 554 402 567 347.5 c 128,-1,105
 580 293 580 293 571 236 c 0,0,1
416 196 m 0,106,107
 419 210 419 210 417.5 224 c 128,-1,108
 416 238 416 238 406 249 c 128,-1,109
 396 260 396 260 376.5 266.5 c 128,-1,110
 357 273 357 273 324 273 c 0,111,112
 304 273 304 273 283.5 268.5 c 128,-1,113
 263 264 263 264 246 255 c 128,-1,114
 229 246 229 246 217.5 232.5 c 128,-1,115
 206 219 206 219 204 200 c 0,116,117
 200 164 200 164 224.5 142 c 128,-1,118
 249 120 249 120 291 120 c 0,119,120
 323 120 323 120 345.5 127.5 c 128,-1,121
 368 135 368 135 382.5 146 c 128,-1,122
 397 157 397 157 405 170.5 c 128,-1,123
 413 184 413 184 416 196 c 0,106,107
EndSplineSet
EndChar
StartChar: A
Encoding: 65 65 34
Width: 491
Flags: W
Fore
451 27 m 2,0,1
 451 0 451 0 433 0 c 0,2,3
 414 0 414 0 414 27 c 2,4,-1
 414 224 l 1,5,-1
 78 224 l 1,6,-1
 78 27 l 2,7,8
 78 0 78 0 60 0 c 0,9,10
 41 0 41 0 41 27 c 2,11,-1
 41 300 l 2,12,13
 41 301 41 301 41 314 c 128,-1,14
 41 327 41 327 44.5 346 c 128,-1,15
 48 365 48 365 57.5 387.5 c 128,-1,16
 67 410 67 410 86 431 c 0,17,18
 140 490 140 490 247 490 c 256,19,20
 354 490 354 490 408 431 c 0,21,22
 426 411 426 411 434.5 389 c 128,-1,23
 443 367 443 367 447 347.5 c 128,-1,24
 451 328 451 328 451 315 c 128,-1,25
 451 303 451 303 451 302 c 2,26,-1
 451 27 l 2,0,1
414 304 m 2,27,28
 415 321 415 321 411 339 c 0,29,30
 408 354 408 354 400.5 371.5 c 128,-1,31
 393 389 393 389 379 406 c 0,32,33
 336 452 336 452 247 452 c 256,34,35
 158 452 158 452 114 405 c 0,36,37
 99 389 99 389 92 371.5 c 128,-1,38
 85 354 85 354 82 338.5 c 128,-1,39
 79 323 79 323 79 313 c 128,-1,40
 79 303 79 303 79 302 c 2,41,-1
 79 261 l 1,42,-1
 414 261 l 1,43,-1
 414 304 l 2,27,28
EndSplineSet
EndChar
StartChar: B
Encoding: 66 66 35
Width: 490
Flags: W
Fore
79 159 m 2,0,1
 79 128 79 128 90 105 c 128,-1,2
 101 82 101 82 119 66.5 c 128,-1,3
 137 51 137 51 159.5 43.5 c 128,-1,4
 182 36 182 36 206 36 c 2,5,-1
 294 36 l 2,6,7
 317 37 317 37 339 42.5 c 128,-1,8
 361 48 361 48 378 60 c 128,-1,9
 395 72 395 72 405 90.5 c 128,-1,10
 415 109 415 109 415 135 c 0,11,12
 415 179 415 179 385 202 c 128,-1,13
 355 225 355 225 311 225 c 2,14,-1
 140 225 l 2,15,16
 113 225 113 225 113 244 c 0,17,18
 113 262 113 262 140 262 c 2,19,-1
 312 262 l 2,20,21
 332 262 332 262 349.5 268 c 128,-1,22
 367 274 367 274 379.5 284.5 c 128,-1,23
 392 295 392 295 399.5 309.5 c 128,-1,24
 407 324 407 324 407 340 c 0,25,26
 407 367 407 367 394 388.5 c 128,-1,27
 381 410 381 410 359 424.5 c 128,-1,28
 337 439 337 439 306.5 446.5 c 128,-1,29
 276 454 276 454 242 454 c 0,30,31
 213 454 213 454 184 446.5 c 128,-1,32
 155 439 155 439 131.5 422.5 c 128,-1,33
 108 406 108 406 93.5 381 c 128,-1,34
 79 356 79 356 79 320 c 2,35,-1
 79 159 l 2,0,1
41 320 m 2,36,37
 41 370 41 370 60 403 c 128,-1,38
 79 436 79 436 108.5 455.5 c 128,-1,39
 138 475 138 475 173.5 482.5 c 128,-1,40
 209 490 209 490 242 490 c 0,41,42
 284 490 284 490 321 480.5 c 128,-1,43
 358 471 358 471 385.5 452 c 128,-1,44
 413 433 413 433 429 405 c 128,-1,45
 445 377 445 377 445 340 c 256,46,47
 445 303 445 303 425.5 277 c 128,-1,48
 406 251 406 251 378 243 c 1,49,50
 410 228 410 228 431.5 200 c 128,-1,51
 453 172 453 172 453 135 c 0,52,53
 453 100 453 100 439.5 74.5 c 128,-1,54
 426 49 426 49 403.5 32.5 c 128,-1,55
 381 16 381 16 352.5 8 c 128,-1,56
 324 0 324 0 294 0 c 2,57,-1
 214 0 l 2,58,59
 178 0 178 0 146 10.5 c 128,-1,60
 114 21 114 21 91 42 c 128,-1,61
 68 63 68 63 54.5 93.5 c 128,-1,62
 41 124 41 124 41 163 c 2,63,-1
 41 320 l 2,36,37
EndSplineSet
EndChar
StartChar: C
Encoding: 67 67 36
Width: 459
Flags: W
Fore
439 416 m 0,0,1
 444 410 444 410 444 402 c 128,-1,2
 444 394 444 394 438 389 c 0,3,4
 432 383 432 383 424 383.5 c 128,-1,5
 416 384 416 384 410 389 c 1,6,7
 384 424 384 424 346.5 437.5 c 128,-1,8
 309 451 309 451 268 451 c 0,9,10
 221 451 221 451 184 435.5 c 128,-1,11
 147 420 147 420 121.5 392.5 c 128,-1,12
 96 365 96 365 82 326.5 c 128,-1,13
 68 288 68 288 68 243 c 256,14,15
 68 198 68 198 82 160 c 128,-1,16
 96 122 96 122 122 94.5 c 128,-1,17
 148 67 148 67 185 51.5 c 128,-1,18
 222 36 222 36 268 36 c 0,19,20
 309 36 309 36 345.5 48.5 c 128,-1,21
 382 61 382 61 410 96 c 0,22,23
 415 102 415 102 423 102 c 128,-1,24
 431 102 431 102 437 97 c 0,25,26
 443 91 443 91 443 83 c 128,-1,27
 443 75 443 75 438 69 c 0,28,29
 408 32 408 32 362 14.5 c 128,-1,30
 316 -3 316 -3 268 -3 c 0,31,32
 214 -3 214 -3 169.5 15.5 c 128,-1,33
 125 34 125 34 94 67 c 128,-1,34
 63 100 63 100 46 145 c 128,-1,35
 29 190 29 190 29 243 c 0,36,37
 29 297 29 297 45.5 342.5 c 128,-1,38
 62 388 62 388 93 420.5 c 128,-1,39
 124 453 124 453 168.5 471.5 c 128,-1,40
 213 490 213 490 268 490 c 0,41,42
 317 490 317 490 362 473 c 128,-1,43
 407 456 407 456 439 416 c 0,0,1
EndSplineSet
EndChar
StartChar: D
Encoding: 68 68 37
Width: 487
Flags: W
Fore
455 243 m 0,0,1
 455 189 455 189 436.5 145.5 c 128,-1,2
 418 102 418 102 385 70 c 0,3,4
 355 42 355 42 321.5 27.5 c 128,-1,5
 288 13 288 13 259 7 c 128,-1,6
 230 1 230 1 210 0.5 c 128,-1,7
 190 0 190 0 188 0 c 2,8,-1
 165 0 l 2,9,10
 147 0 147 0 125.5 5.5 c 128,-1,11
 104 11 104 11 85.5 23 c 128,-1,12
 67 35 67 35 54.5 54 c 128,-1,13
 42 73 42 73 42 101 c 2,14,-1
 42 385 l 2,15,16
 42 430 42 430 76 458.5 c 128,-1,17
 110 487 110 487 165 487 c 2,18,-1
 188 487 l 2,19,20
 190 487 190 487 210 486.5 c 128,-1,21
 230 486 230 486 259 480 c 128,-1,22
 288 474 288 474 321.5 459 c 128,-1,23
 355 444 355 444 385 416 c 0,24,25
 418 384 418 384 436.5 341 c 128,-1,26
 455 298 455 298 455 243 c 0,0,1
418 243 m 256,27,28
 418 290 418 290 402 326.5 c 128,-1,29
 386 363 386 363 359 389 c 0,30,31
 334 413 334 413 304.5 426 c 128,-1,32
 275 439 275 439 249.5 444.5 c 128,-1,33
 224 450 224 450 206.5 450.5 c 128,-1,34
 189 451 189 451 188 451 c 2,35,-1
 165 451 l 2,36,37
 127 451 127 451 103.5 433.5 c 128,-1,38
 80 416 80 416 79 387 c 2,39,-1
 79 100 l 2,40,41
 79 81 79 81 88 69 c 128,-1,42
 97 57 97 57 110 49.5 c 128,-1,43
 123 42 123 42 138 39 c 128,-1,44
 153 36 153 36 165 36 c 2,45,-1
 188 36 l 2,46,47
 189 36 189 36 206.5 36.5 c 128,-1,48
 224 37 224 37 249.5 42.5 c 128,-1,49
 275 48 275 48 304.5 60.5 c 128,-1,50
 334 73 334 73 359 97 c 0,51,52
 386 123 386 123 402 159.5 c 128,-1,53
 418 196 418 196 418 243 c 256,27,28
EndSplineSet
EndChar
StartChar: E
Encoding: 69 69 38
Width: 441
Flags: W
Fore
27 324 m 2,0,1
 27 368 27 368 45.5 399.5 c 128,-1,2
 64 431 64 431 92.5 451 c 128,-1,3
 121 471 121 471 155.5 480.5 c 128,-1,4
 190 490 190 490 222 490 c 0,5,6
 264 490 264 490 296 482.5 c 128,-1,7
 328 475 328 475 351.5 463 c 128,-1,8
 375 451 375 451 390 435.5 c 128,-1,9
 405 420 405 420 413 404 c 0,10,11
 416 397 416 397 416 389.5 c 128,-1,12
 416 382 416 382 409 378 c 0,13,14
 402 373 402 373 394 375 c 128,-1,15
 386 377 386 377 382 384 c 0,16,17
 365 415 365 415 327 434 c 128,-1,18
 289 453 289 453 218 453 c 0,19,20
 189 453 189 453 161.5 443.5 c 128,-1,21
 134 434 134 434 112.5 416.5 c 128,-1,22
 91 399 91 399 78 375.5 c 128,-1,23
 65 352 65 352 65 323 c 2,24,-1
 65 261 l 1,25,-1
 281 261 l 2,26,27
 308 261 308 261 308 243 c 0,28,29
 308 224 308 224 281 224 c 2,30,-1
 65 224 l 1,31,-1
 65 162 l 2,32,33
 65 130 65 130 78 106 c 128,-1,34
 91 82 91 82 112.5 65.5 c 128,-1,35
 134 49 134 49 161.5 40.5 c 128,-1,36
 189 32 189 32 218 32 c 0,37,38
 289 32 289 32 327 51 c 128,-1,39
 365 70 365 70 382 101 c 0,40,41
 386 108 386 108 394 110 c 128,-1,42
 402 112 402 112 409 107 c 0,43,44
 416 103 416 103 416.5 95.5 c 128,-1,45
 417 88 417 88 414 81 c 0,46,47
 406 65 406 65 391 49.5 c 128,-1,48
 376 34 376 34 352.5 22 c 128,-1,49
 329 10 329 10 296.5 2.5 c 128,-1,50
 264 -5 264 -5 222 -5 c 0,51,52
 190 -5 190 -5 155.5 4 c 128,-1,53
 121 13 121 13 92.5 33 c 128,-1,54
 64 53 64 53 45.5 84 c 128,-1,55
 27 115 27 115 27 159 c 2,56,-1
 27 324 l 2,0,1
EndSplineSet
EndChar
StartChar: F
Encoding: 70 70 39
Width: 445
Flags: W
Fore
79 25 m 2,0,1
 79 -1 79 -1 61 -1 c 0,2,3
 42 -1 42 -1 42 25 c 2,4,-1
 42 325 l 2,5,6
 42 369 42 369 60.5 400 c 128,-1,7
 79 431 79 431 107.5 451 c 128,-1,8
 136 471 136 471 170.5 480.5 c 128,-1,9
 205 490 205 490 237 490 c 0,10,11
 279 490 279 490 311.5 482.5 c 128,-1,12
 344 475 344 475 367.5 462.5 c 128,-1,13
 391 450 391 450 406.5 434 c 128,-1,14
 422 418 422 418 430 402 c 0,15,16
 433 395 433 395 432 388.5 c 128,-1,17
 431 382 431 382 424 378 c 0,18,19
 417 373 417 373 409 375 c 128,-1,20
 401 377 401 377 397 384 c 0,21,22
 380 415 380 415 342 434 c 128,-1,23
 304 453 304 453 233 453 c 0,24,25
 204 453 204 453 176.5 443.5 c 128,-1,26
 149 434 149 434 127.5 416.5 c 128,-1,27
 106 399 106 399 93 375.5 c 128,-1,28
 80 352 80 352 80 323 c 2,29,-1
 80 261 l 1,30,-1
 296 261 l 2,31,32
 323 261 323 261 323 243 c 0,33,34
 323 224 323 224 296 224 c 2,35,-1
 79 224 l 1,36,-1
 79 25 l 2,0,1
EndSplineSet
EndChar
StartChar: G
Encoding: 71 71 40
Width: 500
Flags: W
Fore
272 490 m 0,0,1
 334 490 334 490 386 467 c 128,-1,2
 438 444 438 444 463 407 c 0,3,4
 467 401 467 401 466.5 391.5 c 128,-1,5
 466 382 466 382 459 378 c 0,6,7
 452 373 452 373 444.5 375 c 128,-1,8
 437 377 437 377 432 384 c 0,9,10
 406 419 406 419 362.5 436 c 128,-1,11
 319 453 319 453 271 453 c 0,12,13
 221 453 221 453 183 437 c 128,-1,14
 145 421 145 421 119.5 393 c 128,-1,15
 94 365 94 365 81 326 c 128,-1,16
 68 287 68 287 68 241 c 0,17,18
 68 193 68 193 82.5 154.5 c 128,-1,19
 97 116 97 116 123.5 88.5 c 128,-1,20
 150 61 150 61 187.5 46.5 c 128,-1,21
 225 32 225 32 271 32 c 0,22,23
 316 32 316 32 348.5 45.5 c 128,-1,24
 381 59 381 59 401 77 c 128,-1,25
 421 95 421 95 430.5 113.5 c 128,-1,26
 440 132 440 132 440 143 c 2,27,-1
 440 182 l 2,28,29
 440 200 440 200 431.5 211.5 c 128,-1,30
 423 223 423 223 399 223 c 2,31,-1
 199 223 l 2,32,33
 191 223 191 223 180 225.5 c 128,-1,34
 169 228 169 228 169 242 c 256,35,36
 169 256 169 256 180 259 c 128,-1,37
 191 262 191 262 199 262 c 2,38,-1
 399 262 l 2,39,40
 441 262 441 262 460 239.5 c 128,-1,41
 479 217 479 217 479 182 c 2,42,-1
 479 143 l 2,43,44
 479 113 479 113 466 93.5 c 128,-1,45
 453 74 453 74 434 55 c 0,46,47
 426 47 426 47 411 36.5 c 128,-1,48
 396 26 396 26 375.5 17 c 128,-1,49
 355 8 355 8 328.5 1.5 c 128,-1,50
 302 -5 302 -5 271 -5 c 0,51,52
 216 -5 216 -5 171 12.5 c 128,-1,53
 126 30 126 30 94.5 62 c 128,-1,54
 63 94 63 94 46 139.5 c 128,-1,55
 29 185 29 185 29 241 c 256,56,57
 29 297 29 297 45.5 343 c 128,-1,58
 62 389 62 389 93.5 421.5 c 128,-1,59
 125 454 125 454 170 472 c 128,-1,60
 215 490 215 490 272 490 c 0,0,1
EndSplineSet
EndChar
StartChar: H
Encoding: 72 72 41
Width: 501
Flags: W
Fore
457 28 m 1,0,1
 457 1 457 1 439 1 c 0,2,3
 419 1 419 1 419 28 c 2,4,-1
 419 224 l 1,5,-1
 83 224 l 1,6,-1
 83 28 l 2,7,8
 83 1 83 1 65 1 c 0,9,10
 46 1 46 1 46 28 c 2,11,-1
 46 462 l 2,12,13
 46 489 46 489 65 489 c 0,14,15
 83 489 83 489 83 462 c 2,16,-1
 83 262 l 1,17,-1
 419 262 l 1,18,-1
 419 462 l 2,19,20
 419 489 419 489 439 489 c 0,21,22
 457 489 457 489 457 462 c 2,23,-1
 457 28 l 1,24,-1
 457 28 l 1,0,1
EndSplineSet
EndChar
StartChar: I
Encoding: 73 73 42
Width: 129
Flags: W
Fore
84 28 m 1,0,1
 84 1 84 1 66 1 c 0,2,3
 47 1 47 1 47 28 c 2,4,-1
 47 462 l 2,5,6
 47 489 47 489 66 489 c 0,7,8
 84 489 84 489 84 462 c 2,9,-1
 84 28 l 1,10,-1
 84 28 l 1,0,1
EndSplineSet
EndChar
StartChar: J
Encoding: 74 74 43
Width: 392
Flags: W
Fore
345 156 m 1,0,1
 345 106 345 106 326.5 74.5 c 128,-1,2
 308 43 308 43 283.5 25.5 c 128,-1,3
 259 8 259 8 233.5 1.5 c 128,-1,4
 208 -5 208 -5 194 -5 c 2,5,-1
 177 -5 l 2,6,7
 148 -5 148 -5 120 4.5 c 128,-1,8
 92 14 92 14 69.5 33.5 c 128,-1,9
 47 53 47 53 33 81.5 c 128,-1,10
 19 110 19 110 19 148 c 2,11,-1
 19 209 l 2,12,13
 19 236 19 236 38 236 c 0,14,15
 56 236 56 236 56 209 c 2,16,-1
 56 148 l 2,17,18
 56 130 56 130 62 109 c 128,-1,19
 68 88 68 88 82.5 71 c 128,-1,20
 97 54 97 54 122 42.5 c 128,-1,21
 147 31 147 31 185 31 c 0,22,23
 196 31 196 31 216.5 36.5 c 128,-1,24
 237 42 237 42 257 56 c 128,-1,25
 277 70 277 70 292 94 c 128,-1,26
 307 118 307 118 307 156 c 2,27,-1
 307 456 l 2,28,29
 307 483 307 483 326 483 c 256,30,31
 345 483 345 483 345 456 c 2,32,-1
 345 156 l 1,33,-1
 345 156 l 1,0,1
EndSplineSet
EndChar
StartChar: K
Encoding: 75 75 44
Width: 451
Flags: W
Fore
443 12 m 0,0,1
 445 4 445 4 440.5 -2 c 128,-1,2
 436 -8 436 -8 428 -10 c 256,3,4
 420 -12 420 -12 413.5 -7.5 c 128,-1,5
 407 -3 407 -3 405 5 c 0,6,7
 396 55 396 55 375.5 95 c 128,-1,8
 355 135 355 135 330.5 166 c 128,-1,9
 306 197 306 197 279.5 219.5 c 128,-1,10
 253 242 253 242 230.5 257 c 128,-1,11
 208 272 208 272 193.5 279 c 128,-1,12
 179 286 179 286 178 286 c 1,13,-1
 83 221 l 1,14,-1
 84 26 l 2,15,16
 84 0 84 0 66 0 c 0,17,18
 46 0 46 0 46 26 c 2,19,-1
 46 460 l 2,20,21
 46 487 46 487 66 487 c 0,22,23
 84 487 84 487 84 460 c 2,24,-1
 84 264 l 1,25,26
 204 347 204 347 271 392.5 c 128,-1,27
 338 438 338 438 370 459 c 0,28,29
 408 484 408 484 417 487 c 1,30,31
 423 490 423 490 429 487.5 c 128,-1,32
 435 485 435 485 438 480 c 128,-1,33
 441 475 441 475 441 469 c 128,-1,34
 441 463 441 463 435 460 c 2,35,-1
 216 312 l 1,36,37
 237 301 237 301 270 278 c 128,-1,38
 303 255 303 255 337.5 218.5 c 128,-1,39
 372 182 372 182 401.5 130.5 c 128,-1,40
 431 79 431 79 443 12 c 0,0,1
EndSplineSet
EndChar
StartChar: L
Encoding: 76 76 45
Width: 441
Flags: W
Fore
427 19 m 0,0,1
 427 0 427 0 400 0 c 2,2,-1
 131 0 l 2,3,4
 96 0 96 0 72.5 22 c 128,-1,5
 49 44 49 44 49 82 c 2,6,-1
 49 460 l 2,7,8
 49 487 49 487 68 487 c 256,9,10
 87 487 87 487 87 460 c 2,11,-1
 86 81 l 2,12,13
 86 61 86 61 97 49 c 128,-1,14
 108 37 108 37 131 37 c 2,15,-1
 400 37 l 2,16,17
 427 37 427 37 427 19 c 0,0,1
EndSplineSet
EndChar
StartChar: M
Encoding: 77 77 46
Width: 684
Flags: W
Fore
638 22 m 1,0,1
 638 -5 638 -5 620 -5 c 0,2,3
 601 -5 601 -5 601 22 c 2,4,-1
 601 341 l 2,5,6
 601 374 601 374 591 396 c 128,-1,7
 581 418 581 418 564.5 431.5 c 128,-1,8
 548 445 548 445 527 450.5 c 128,-1,9
 506 456 506 456 483 456 c 0,10,11
 464 456 464 456 442.5 451 c 128,-1,12
 421 446 421 446 403 433 c 128,-1,13
 385 420 385 420 373 397.5 c 128,-1,14
 361 375 361 375 361 341 c 2,15,-1
 361 22 l 2,16,17
 361 -5 361 -5 342 -5 c 256,18,19
 323 -5 323 -5 323 22 c 2,20,-1
 323 341 l 2,21,22
 323 373 323 373 313 395 c 128,-1,23
 303 417 303 417 286.5 430.5 c 128,-1,24
 270 444 270 444 249 450 c 128,-1,25
 228 456 228 456 206 456 c 0,26,27
 182 456 182 456 160 450 c 128,-1,28
 138 444 138 444 120.5 430.5 c 128,-1,29
 103 417 103 417 93 395 c 128,-1,30
 83 373 83 373 83 341 c 2,31,-1
 83 22 l 2,32,33
 83 -5 83 -5 64 -5 c 0,34,35
 46 -5 46 -5 46 22 c 2,36,-1
 46 341 l 2,37,38
 46 391 46 391 64 421.5 c 128,-1,39
 82 452 82 452 107.5 468 c 128,-1,40
 133 484 133 484 160.5 489 c 128,-1,41
 188 494 188 494 206 494 c 0,42,43
 257 494 257 494 292.5 469 c 128,-1,44
 328 444 328 444 342 411 c 1,45,46
 358 449 358 449 396.5 471.5 c 128,-1,47
 435 494 435 494 483 494 c 0,48,49
 501 494 501 494 527.5 489 c 128,-1,50
 554 484 554 484 578.5 468 c 128,-1,51
 603 452 603 452 620.5 421.5 c 128,-1,52
 638 391 638 391 638 341 c 2,53,-1
 638 22 l 1,54,-1
 638 22 l 1,0,1
EndSplineSet
EndChar
StartChar: N
Encoding: 78 78 47
Width: 478
Flags: W
Fore
433 27 m 1,0,1
 433 0 433 0 415 0 c 0,2,3
 396 0 396 0 396 27 c 2,4,-1
 396 189 l 1,5,6
 365 254 365 254 336 299.5 c 128,-1,7
 307 345 307 345 280.5 374 c 128,-1,8
 254 403 254 403 231 419 c 128,-1,9
 208 435 208 435 189 442 c 0,10,11
 143 458 143 458 107 434 c 0,12,13
 91 422 91 422 86.5 399.5 c 128,-1,14
 82 377 82 377 82 357 c 2,15,-1
 82 27 l 2,16,17
 82 0 82 0 64 0 c 0,18,19
 45 0 45 0 45 27 c 2,20,-1
 45 368 l 2,21,22
 45 395 45 395 55 421 c 128,-1,23
 65 447 65 447 87 464 c 0,24,25
 131 491 131 491 181 482 c 0,26,27
 202 478 202 478 227 466 c 128,-1,28
 252 454 252 454 279.5 429 c 128,-1,29
 307 404 307 404 336.5 365 c 128,-1,30
 366 326 366 326 396 268 c 1,31,-1
 396 461 l 2,32,33
 396 488 396 488 415 488 c 0,34,35
 433 488 433 488 433 461 c 2,36,-1
 433 27 l 1,37,-1
 433 27 l 1,0,1
EndSplineSet
EndChar
StartChar: O
Encoding: 79 79 48
Width: 520
Flags: W
Fore
489 242 m 0,0,1
 489 187 489 187 472 141.5 c 128,-1,2
 455 96 455 96 425 63.5 c 128,-1,3
 395 31 395 31 353 13 c 128,-1,4
 311 -5 311 -5 260 -5 c 0,5,6
 212 -5 212 -5 170 13 c 128,-1,7
 128 31 128 31 97.5 63.5 c 128,-1,8
 67 96 67 96 49.5 141.5 c 128,-1,9
 32 187 32 187 32 242 c 256,10,11
 32 297 32 297 49 343 c 128,-1,12
 66 389 66 389 96.5 421.5 c 128,-1,13
 127 454 127 454 169 472 c 128,-1,14
 211 490 211 490 260 490 c 0,15,16
 311 490 311 490 353 471.5 c 128,-1,17
 395 453 395 453 425.5 420 c 128,-1,18
 456 387 456 387 472.5 341.5 c 128,-1,19
 489 296 489 296 489 242 c 0,0,1
452 242 m 0,20,21
 452 285 452 285 439 323.5 c 128,-1,22
 426 362 426 362 401.5 390 c 128,-1,23
 377 418 377 418 341 434.5 c 128,-1,24
 305 451 305 451 260 451 c 0,25,26
 216 451 216 451 180.5 435 c 128,-1,27
 145 419 145 419 120.5 391.5 c 128,-1,28
 96 364 96 364 82.5 325.5 c 128,-1,29
 69 287 69 287 69 242 c 0,30,31
 69 193 69 193 84 154.5 c 128,-1,32
 99 116 99 116 125 89 c 128,-1,33
 151 62 151 62 186 48 c 128,-1,34
 221 34 221 34 260 34 c 0,35,36
 303 34 303 34 338.5 49.5 c 128,-1,37
 374 65 374 65 399 92.5 c 128,-1,38
 424 120 424 120 438 158 c 128,-1,39
 452 196 452 196 452 242 c 0,20,21
EndSplineSet
EndChar
StartChar: P
Encoding: 80 80 49
Width: 469
Flags: W
Fore
117 243 m 0,0,1
 105 253 105 253 105.5 262 c 128,-1,2
 106 271 106 271 114 276 c 0,3,4
 124 283 124 283 134 276 c 128,-1,5
 144 269 144 269 148 265 c 0,6,7
 175 242 175 242 218 229.5 c 128,-1,8
 261 217 261 217 302.5 221.5 c 128,-1,9
 344 226 344 226 374 251.5 c 128,-1,10
 404 277 404 277 405 329 c 0,11,12
 405 359 405 359 393.5 381.5 c 128,-1,13
 382 404 382 404 360.5 420 c 128,-1,14
 339 436 339 436 309.5 444 c 128,-1,15
 280 452 280 452 244 452 c 256,16,17
 208 452 208 452 177 443.5 c 128,-1,18
 146 435 146 435 123.5 418.5 c 128,-1,19
 101 402 101 402 88 377.5 c 128,-1,20
 75 353 75 353 75 322 c 2,21,-1
 75 26 l 2,22,23
 75 -1 75 -1 57 -1 c 0,24,25
 38 -1 38 -1 38 26 c 2,26,-1
 38 329 l 2,27,28
 38 372 38 372 56 403 c 128,-1,29
 74 434 74 434 103 453 c 128,-1,30
 132 472 132 472 169 481 c 128,-1,31
 206 490 206 490 244 490 c 0,32,33
 277 490 277 490 312 482 c 128,-1,34
 347 474 347 474 376 455 c 128,-1,35
 405 436 405 436 423.5 405.5 c 128,-1,36
 442 375 442 375 442 330 c 256,37,38
 442 285 442 285 423.5 255 c 128,-1,39
 405 225 405 225 376 208 c 128,-1,40
 347 191 347 191 310.5 186 c 128,-1,41
 274 181 274 181 238 186.5 c 128,-1,42
 202 192 202 192 169.5 206.5 c 128,-1,43
 137 221 137 221 117 243 c 0,0,1
EndSplineSet
EndChar
StartChar: Q
Encoding: 81 81 50
Width: 523
Flags: W
Fore
490 242 m 0,0,1
 490 197 490 197 477 154.5 c 128,-1,2
 464 112 464 112 438 78 c 1,3,4
 449 61 449 61 457.5 42.5 c 128,-1,5
 466 24 466 24 474 -2 c 0,6,7
 476 -10 476 -10 472.5 -17 c 128,-1,8
 469 -24 469 -24 461 -26 c 0,9,10
 454 -28 454 -28 448 -24.5 c 128,-1,11
 442 -21 442 -21 440 -13 c 0,12,13
 433 7 433 7 426.5 22 c 128,-1,14
 420 37 420 37 412 50 c 1,15,16
 380 21 380 21 341.5 8 c 128,-1,17
 303 -5 303 -5 261 -5 c 0,18,19
 210 -5 210 -5 168 13 c 128,-1,20
 126 31 126 31 95.5 63.5 c 128,-1,21
 65 96 65 96 48.5 141.5 c 128,-1,22
 32 187 32 187 32 242 c 0,23,24
 32 296 32 296 48 341.5 c 128,-1,25
 64 387 64 387 94 420 c 128,-1,26
 124 453 124 453 166.5 471.5 c 128,-1,27
 209 490 209 490 261 490 c 0,28,29
 315 490 315 490 357.5 470 c 128,-1,30
 400 450 400 450 429.5 416 c 128,-1,31
 459 382 459 382 474.5 337 c 128,-1,32
 490 292 490 292 490 242 c 0,0,1
452 242 m 0,33,34
 452 284 452 284 439.5 322 c 128,-1,35
 427 360 427 360 403 388.5 c 128,-1,36
 379 417 379 417 343.5 434 c 128,-1,37
 308 451 308 451 261 451 c 0,38,39
 218 451 218 451 183 436 c 128,-1,40
 148 421 148 421 122.5 393.5 c 128,-1,41
 97 366 97 366 83 327.5 c 128,-1,42
 69 289 69 289 69 242 c 0,43,44
 69 196 69 196 85.5 152.5 c 128,-1,45
 102 109 102 109 136 80 c 1,46,47
 143 95 143 95 156 111 c 128,-1,48
 169 127 169 127 188.5 139 c 128,-1,49
 208 151 208 151 233.5 158 c 128,-1,50
 259 165 259 165 290 164 c 0,51,52
 297 164 297 164 311 161 c 128,-1,53
 325 158 325 158 341.5 152 c 128,-1,54
 358 146 358 146 376.5 135 c 128,-1,55
 395 124 395 124 412 107 c 1,56,57
 432 134 432 134 442 169.5 c 128,-1,58
 452 205 452 205 452 242 c 0,33,34
387 80 m 1,59,60
 361 106 361 106 332.5 115.5 c 128,-1,61
 304 125 304 125 288 126 c 0,62,63
 261 127 261 127 240 121 c 128,-1,64
 219 115 219 115 203.5 104.5 c 128,-1,65
 188 94 188 94 178.5 81 c 128,-1,66
 169 68 169 68 166 57 c 1,67,68
 187 44 187 44 212 39 c 128,-1,69
 237 34 237 34 261 34 c 0,70,71
 297 34 297 34 329.5 45.5 c 128,-1,72
 362 57 362 57 387 80 c 1,59,60
EndSplineSet
EndChar
StartChar: R
Encoding: 82 82 51
Width: 483
Flags: W
Fore
249 192 m 1,0,1
 273 183 273 183 303 159 c 128,-1,2
 333 135 333 135 360 108 c 128,-1,3
 387 81 387 81 407 56.5 c 128,-1,4
 427 32 427 32 430 22 c 0,5,6
 432 15 432 15 432 9 c 128,-1,7
 432 3 432 3 425 -1 c 0,8,9
 411 -9 411 -9 398 8 c 0,10,11
 363 54 363 54 324 90 c 128,-1,12
 285 126 285 126 250 152.5 c 128,-1,13
 215 179 215 179 188.5 195 c 128,-1,14
 162 211 162 211 153 217 c 0,15,16
 141 223 141 223 137.5 232 c 128,-1,17
 134 241 134 241 140 249 c 0,18,19
 148 258 148 258 157 255.5 c 128,-1,20
 166 253 166 253 171 251 c 0,21,22
 216 228 216 228 259 221.5 c 128,-1,23
 302 215 302 215 336.5 224.5 c 128,-1,24
 371 234 371 234 392 260.5 c 128,-1,25
 413 287 413 287 413 329 c 0,26,27
 413 389 413 389 368.5 420.5 c 128,-1,28
 324 452 324 452 252 452 c 0,29,30
 216 452 216 452 185 443.5 c 128,-1,31
 154 435 154 435 131.5 418.5 c 128,-1,32
 109 402 109 402 96 377.5 c 128,-1,33
 83 353 83 353 83 322 c 2,34,-1
 83 26 l 2,35,36
 83 -1 83 -1 65 -1 c 0,37,38
 46 -1 46 -1 46 26 c 2,39,-1
 46 329 l 2,40,41
 46 372 46 372 64 403 c 128,-1,42
 82 434 82 434 111 453 c 128,-1,43
 140 472 140 472 177 481 c 128,-1,44
 214 490 214 490 252 490 c 0,45,46
 285 490 285 490 320 482 c 128,-1,47
 355 474 355 474 384 455 c 128,-1,48
 413 436 413 436 431.5 405.5 c 128,-1,49
 450 375 450 375 450 330 c 0,50,51
 450 291 450 291 434.5 261 c 128,-1,52
 419 231 419 231 392 213 c 128,-1,53
 365 195 365 195 328 189.5 c 128,-1,54
 291 184 291 184 249 192 c 1,0,1
EndSplineSet
EndChar
StartChar: S
Encoding: 83 83 52
Width: 436
Flags: W
Fore
407 135 m 0,0,1
 407 97 407 97 391 70.5 c 128,-1,2
 375 44 375 44 348 27.5 c 128,-1,3
 321 11 321 11 286.5 3 c 128,-1,4
 252 -5 252 -5 215 -5 c 0,5,6
 152 -5 152 -5 101.5 18 c 128,-1,7
 51 41 51 41 28 79 c 0,8,9
 23 87 23 87 25 94.5 c 128,-1,10
 27 102 27 102 34 106 c 0,11,12
 42 111 42 111 49.5 108.5 c 128,-1,13
 57 106 57 106 61 99 c 0,14,15
 78 70 78 70 120.5 52 c 128,-1,16
 163 34 163 34 215 34 c 0,17,18
 243 34 243 34 270 39.5 c 128,-1,19
 297 45 297 45 319 57 c 128,-1,20
 341 69 341 69 354.5 88 c 128,-1,21
 368 107 368 107 368 135 c 0,22,23
 368 160 368 160 352.5 177 c 128,-1,24
 337 194 337 194 314 204 c 128,-1,25
 291 214 291 214 265 218 c 128,-1,26
 239 222 239 222 218 222 c 0,27,28
 184 222 184 222 149.5 229 c 128,-1,29
 115 236 115 236 87.5 251 c 128,-1,30
 60 266 60 266 42.5 290 c 128,-1,31
 25 314 25 314 25 348 c 0,32,33
 25 379 25 379 39 404.5 c 128,-1,34
 53 430 53 430 78.5 449 c 128,-1,35
 104 468 104 468 140.5 478.5 c 128,-1,36
 177 489 177 489 221 489 c 0,37,38
 284 489 284 489 332.5 466.5 c 128,-1,39
 381 444 381 444 404 406 c 0,40,41
 408 399 408 399 406 391.5 c 128,-1,42
 404 384 404 384 397 380 c 0,43,44
 390 375 390 375 382.5 377 c 128,-1,45
 375 379 375 379 370 386 c 0,46,47
 353 415 353 415 313 432 c 128,-1,48
 273 449 273 449 221 449 c 0,49,50
 189 449 189 449 161 442 c 128,-1,51
 133 435 133 435 111 422 c 128,-1,52
 89 409 89 409 76.5 390.5 c 128,-1,53
 64 372 64 372 64 348 c 0,54,55
 64 323 64 323 78.5 306.5 c 128,-1,56
 93 290 93 290 115.5 280 c 128,-1,57
 138 270 138 270 165 265.5 c 128,-1,58
 192 261 192 261 218 261 c 0,59,60
 245 261 245 261 278 254.5 c 128,-1,61
 311 248 311 248 339.5 233.5 c 128,-1,62
 368 219 368 219 387.5 195 c 128,-1,63
 407 171 407 171 407 135 c 0,0,1
EndSplineSet
EndChar
StartChar: T
Encoding: 84 84 53
Width: 433
Flags: W
Fore
236 24 m 2,0,1
 236 -3 236 -3 217 -3 c 0,2,3
 199 -3 199 -3 199 24 c 2,4,-1
 199 453 l 1,5,6
 155 451 155 451 112.5 441.5 c 128,-1,7
 70 432 70 432 39 398 c 1,8,9
 35 392 35 392 27 391 c 128,-1,10
 19 390 19 390 12 395 c 0,11,12
 6 400 6 400 6 407 c 128,-1,13
 6 414 6 414 9 419 c 0,14,15
 29 451 29 451 81.5 469.5 c 128,-1,16
 134 488 134 488 217 488 c 0,17,18
 302 488 302 488 353.5 469.5 c 128,-1,19
 405 451 405 451 425 419 c 0,20,21
 428 414 428 414 428 407 c 128,-1,22
 428 400 428 400 422 395 c 0,23,24
 415 390 415 390 407.5 391.5 c 128,-1,25
 400 393 400 393 395 398 c 0,26,27
 371 426 371 426 330.5 439 c 128,-1,28
 290 452 290 452 236 453 c 1,29,-1
 236 24 l 2,0,1
EndSplineSet
EndChar
StartChar: U
Encoding: 85 85 54
Width: 503
Flags: W
Fore
456 183 m 2,0,1
 456 181 456 181 456 168.5 c 128,-1,2
 456 156 456 156 452.5 137.5 c 128,-1,3
 449 119 449 119 440 97 c 128,-1,4
 431 75 431 75 412 54 c 0,5,6
 359 -5 359 -5 252 -5 c 256,7,8
 145 -5 145 -5 91 54 c 0,9,10
 72 75 72 75 62.5 97.5 c 128,-1,11
 53 120 53 120 49.5 139 c 128,-1,12
 46 158 46 158 46 170.5 c 128,-1,13
 46 183 46 183 46 185 c 2,14,-1
 46 458 l 2,15,16
 46 485 46 485 65 485 c 0,17,18
 83 485 83 485 83 458 c 2,19,-1
 83 183 l 2,20,21
 83 182 83 182 83 172 c 128,-1,22
 83 162 83 162 86 146.5 c 128,-1,23
 89 131 89 131 96.5 113 c 128,-1,24
 104 95 104 95 119 79 c 0,25,26
 163 33 163 33 252 33 c 256,27,28
 341 33 341 33 384 79 c 0,29,30
 398 93 398 93 405 111 c 128,-1,31
 412 129 412 129 415 145 c 0,32,33
 419 163 419 163 419 181 c 2,34,-1
 419 458 l 2,35,36
 419 485 419 485 438 485 c 0,37,38
 456 485 456 485 456 458 c 2,39,-1
 456 183 l 2,0,1
EndSplineSet
EndChar
StartChar: V
Encoding: 86 86 55
Width: 428
Flags: W
Fore
352 140 m 2,0,1
 341 87 341 87 323.5 58.5 c 128,-1,2
 306 30 306 30 286.5 16.5 c 128,-1,3
 267 3 267 3 248 0.5 c 128,-1,4
 229 -2 229 -2 215 -2 c 256,5,6
 201 -2 201 -2 181.5 0.5 c 128,-1,7
 162 3 162 3 142.5 16.5 c 128,-1,8
 123 30 123 30 105.5 58.5 c 128,-1,9
 88 87 88 87 77 140 c 2,10,-1
 10 455 l 2,11,12
 8 467 8 467 10 474.5 c 128,-1,13
 12 482 12 482 23 485 c 0,14,15
 31 488 31 488 38 480.5 c 128,-1,16
 45 473 45 473 48 459 c 2,17,-1
 115 140 l 2,18,19
 124 99 124 99 137 76.5 c 128,-1,20
 150 54 150 54 164 44 c 128,-1,21
 178 34 178 34 191.5 32.5 c 128,-1,22
 205 31 205 31 215 31 c 256,23,24
 225 31 225 31 238.5 32.5 c 128,-1,25
 252 34 252 34 266 44 c 128,-1,26
 280 54 280 54 293 76.5 c 128,-1,27
 306 99 306 99 315 140 c 2,28,-1
 382 459 l 2,29,30
 385 473 385 473 391.5 480.5 c 128,-1,31
 398 488 398 488 407 485 c 0,32,33
 418 482 418 482 419.5 474.5 c 128,-1,34
 421 467 421 467 419 455 c 2,35,-1
 352 140 l 2,0,1
EndSplineSet
EndChar
StartChar: W
Encoding: 87 87 56
Width: 660
Flags: W
Fore
626 460 m 2,0,-1
 626 141 l 2,1,2
 626 91 626 91 608.5 60.5 c 128,-1,3
 591 30 591 30 566.5 14 c 128,-1,4
 542 -2 542 -2 515.5 -7 c 128,-1,5
 489 -12 489 -12 471 -12 c 0,6,7
 423 -12 423 -12 384.5 10.5 c 128,-1,8
 346 33 346 33 330 71 c 1,9,10
 316 38 316 38 280.5 13 c 128,-1,11
 245 -12 245 -12 194 -12 c 0,12,13
 176 -12 176 -12 148.5 -7 c 128,-1,14
 121 -2 121 -2 95.5 14 c 128,-1,15
 70 30 70 30 52 60.5 c 128,-1,16
 34 91 34 91 34 141 c 2,17,-1
 34 460 l 2,18,19
 34 487 34 487 52 487 c 0,20,21
 71 487 71 487 71 460 c 2,22,-1
 71 141 l 2,23,24
 71 109 71 109 81 87 c 128,-1,25
 91 65 91 65 108.5 51.5 c 128,-1,26
 126 38 126 38 148 32 c 128,-1,27
 170 26 170 26 194 26 c 0,28,29
 216 26 216 26 237 32 c 128,-1,30
 258 38 258 38 274.5 51.5 c 128,-1,31
 291 65 291 65 301 87 c 128,-1,32
 311 109 311 109 311 141 c 2,33,-1
 311 460 l 2,34,35
 311 487 311 487 330 487 c 256,36,37
 349 487 349 487 349 460 c 2,38,-1
 349 141 l 2,39,40
 349 106 349 106 361 84 c 128,-1,41
 373 62 373 62 391 49 c 128,-1,42
 409 36 409 36 430.5 31 c 128,-1,43
 452 26 452 26 471 26 c 0,44,45
 494 26 494 26 515 31.5 c 128,-1,46
 536 37 536 37 552.5 50.5 c 128,-1,47
 569 64 569 64 579 86 c 128,-1,48
 589 108 589 108 589 141 c 2,49,-1
 589 460 l 2,50,51
 589 487 589 487 608 487 c 0,52,53
 626 487 626 487 626 460 c 2,0,-1
EndSplineSet
EndChar
StartChar: X
Encoding: 88 88 57
Width: 434
Flags: W
Fore
422 23 m 1,0,1
 425 16 425 16 422.5 8.5 c 128,-1,2
 420 1 420 1 413 -3 c 0,3,4
 405 -7 405 -7 397.5 -4.5 c 128,-1,5
 390 -2 390 -2 387 6 c 2,6,-1
 309 163 l 2,7,8
 287 204 287 204 265 217 c 128,-1,9
 243 230 243 230 219 230 c 0,10,11
 194 230 194 230 172 217 c 128,-1,12
 150 204 150 204 128 163 c 2,13,-1
 50 6 l 2,14,15
 47 -2 47 -2 39.5 -4.5 c 128,-1,16
 32 -7 32 -7 24 -3 c 0,17,18
 17 1 17 1 14.5 8.5 c 128,-1,19
 12 16 12 16 15 23 c 2,20,-1
 97 183 l 2,21,22
 104 195 104 195 109.5 204 c 128,-1,23
 115 213 115 213 120.5 220.5 c 128,-1,24
 126 228 126 228 134 235 c 128,-1,25
 142 242 142 242 154 249 c 1,26,27
 123 268 123 268 94 317 c 2,28,-1
 15 459 l 2,29,30
 11 467 11 467 14 474.5 c 128,-1,31
 17 482 17 482 24 486 c 1,32,33
 32 489 32 489 39.5 486.5 c 128,-1,34
 47 484 47 484 50 477 c 2,35,-1
 128 331 l 2,36,37
 140 309 140 309 151 296.5 c 128,-1,38
 162 284 162 284 173 278 c 128,-1,39
 184 272 184 272 195.5 270.5 c 128,-1,40
 207 269 207 269 219 269 c 256,41,42
 231 269 231 269 242 270.5 c 128,-1,43
 253 272 253 272 264 278 c 128,-1,44
 275 284 275 284 286 296.5 c 128,-1,45
 297 309 297 309 309 331 c 2,46,-1
 387 477 l 2,47,48
 390 484 390 484 397.5 486.5 c 128,-1,49
 405 489 405 489 413 486 c 1,50,51
 420 482 420 482 423 474.5 c 128,-1,52
 426 467 426 467 422 459 c 2,53,-1
 343 316 l 2,54,55
 314 268 314 268 283 249 c 1,56,57
 299 240 299 240 313 224.5 c 128,-1,58
 327 209 327 209 343 181 c 2,59,-1
 422 23 l 1,60,-1
 422 23 l 1,0,1
EndSplineSet
EndChar
StartChar: Y
Encoding: 89 89 58
Width: 445
Flags: W
Fore
416 131 m 1,0,1
 416 75 416 75 375 39 c 0,2,3
 334 0 334 0 277 0 c 2,4,-1
 128 0 l 2,5,6
 101 0 101 0 101 19 c 256,7,8
 101 38 101 38 128 38 c 2,9,-1
 277 38 l 2,10,11
 320 38 320 38 349 64 c 0,12,13
 379 92 379 92 379 131 c 2,14,-1
 379 220 l 1,15,16
 354 190 354 190 315 172 c 128,-1,17
 276 154 276 154 223 154 c 256,18,19
 170 154 170 154 135.5 169 c 128,-1,20
 101 184 101 184 74 213 c 0,21,22
 55 234 55 234 45.5 256.5 c 128,-1,23
 36 279 36 279 32.5 298 c 128,-1,24
 29 317 29 317 29 329.5 c 128,-1,25
 29 342 29 342 29 344 c 2,26,-1
 29 459 l 2,27,28
 29 486 29 486 49 486 c 0,29,30
 65 486 65 486 65 459 c 2,31,-1
 65 342 l 2,32,33
 65 341 65 341 65 331 c 128,-1,34
 65 321 65 321 68.5 305.5 c 128,-1,35
 72 290 72 290 79.5 272 c 128,-1,36
 87 254 87 254 102 238 c 0,37,38
 123 215 123 215 150.5 203.5 c 128,-1,39
 178 192 178 192 223 192 c 256,40,41
 268 192 268 192 298.5 204.5 c 128,-1,42
 329 217 329 217 350 240 c 0,43,44
 366 257 366 257 372.5 276 c 128,-1,45
 379 295 379 295 379 310 c 2,46,-1
 379 459 l 2,47,48
 379 486 379 486 398 486 c 0,49,50
 416 486 416 486 416 459 c 2,51,-1
 416 131 l 1,52,-1
 416 131 l 1,0,1
EndSplineSet
EndChar
StartChar: Z
Encoding: 90 90 59
Width: 461
Flags: W
Fore
68 134 m 0,0,1
 150 200 150 200 215 254 c 0,2,3
 243 277 243 277 269.5 299 c 128,-1,4
 296 321 296 321 317.5 339 c 128,-1,5
 339 357 339 357 352.5 368 c 128,-1,6
 366 379 366 379 368 381 c 0,7,8
 381 392 381 392 388.5 402 c 128,-1,9
 396 412 396 412 394 424 c 0,10,11
 392 437 392 437 382.5 443.5 c 128,-1,12
 373 450 373 450 350 450 c 2,13,-1
 54 450 l 2,14,15
 27 450 27 450 27 468 c 0,16,17
 27 487 27 487 54 487 c 2,18,-1
 350 487 l 2,19,20
 385 487 385 487 408.5 471.5 c 128,-1,21
 432 456 432 456 432 424 c 0,22,23
 432 401 432 401 422 386.5 c 128,-1,24
 412 372 412 372 391 353 c 2,25,26
 378 342 l 130,-1,27
 365 331 365 331 344 313.5 c 128,-1,28
 323 296 323 296 296 274 c 128,-1,29
 269 252 269 252 241 229 c 0,30,31
 175 174 175 174 91 106 c 0,32,33
 62 85 62 85 65 63 c 0,34,35
 67 50 67 50 76.5 43.5 c 128,-1,36
 86 37 86 37 109 37 c 2,37,-1
 405 37 l 2,38,39
 432 37 432 37 432 19 c 0,40,41
 432 0 432 0 405 0 c 2,42,-1
 109 0 l 2,43,44
 74 0 74 0 50.5 15.5 c 128,-1,45
 27 31 27 31 27 63 c 0,46,47
 27 86 27 86 37 100.5 c 128,-1,48
 47 115 47 115 68 134 c 0,0,1
EndSplineSet
EndChar
StartChar: bracketleft
Encoding: 91 91 60
Width: 246
Flags: W
Fore
224 -105 m 0,0,1
 224 -123 224 -123 197 -123 c 2,2,-1
 82 -123 l 2,3,4
 66 -123 66 -123 60.5 -114 c 128,-1,5
 55 -105 55 -105 55 -93 c 2,6,-1
 55 486 l 2,7,8
 55 498 55 498 60.5 507 c 128,-1,9
 66 516 66 516 82 516 c 2,10,-1
 197 516 l 2,11,12
 224 516 224 516 224 498 c 0,13,14
 224 479 224 479 197 479 c 2,15,-1
 91 479 l 1,16,-1
 92 -86 l 1,17,-1
 197 -86 l 2,18,19
 224 -86 224 -86 224 -105 c 0,0,1
EndSplineSet
EndChar
StartChar: backslash
Encoding: 92 92 61
Width: 212
Flags: W
Fore
233 17 m 1,0,1
 236 11 236 11 233.5 4.5 c 128,-1,2
 231 -2 231 -2 225 -5 c 0,3,4
 218 -8 218 -8 211.5 -5.5 c 128,-1,5
 205 -3 205 -3 202 3 c 2,6,-1
 -14 479 l 2,7,8
 -17 486 -17 486 -14.5 492.5 c 128,-1,9
 -12 499 -12 499 -6 501 c 0,10,11
 1 504 1 504 7.5 502 c 128,-1,12
 14 500 14 500 16 493 c 1,13,-1
 233 17 l 1,14,-1
 233 17 l 1,0,1
EndSplineSet
EndChar
StartChar: bracketright
Encoding: 93 93 62
Width: 245
Flags: W
Fore
190 -93 m 2,0,1
 190 -105 190 -105 184.5 -114 c 128,-1,2
 179 -123 179 -123 162 -123 c 2,3,-1
 47 -123 l 2,4,5
 20 -123 20 -123 20 -105 c 0,6,7
 20 -86 20 -86 47 -86 c 2,8,-1
 153 -86 l 1,9,-1
 153 479 l 1,10,-1
 47 479 l 2,11,12
 21 479 21 479 21 498 c 0,13,14
 21 516 21 516 47 516 c 2,15,-1
 162 516 l 2,16,17
 179 516 179 516 184.5 507 c 128,-1,18
 190 498 190 498 190 486 c 2,19,-1
 190 -93 l 2,0,1
EndSplineSet
EndChar
StartChar: asciicircum
Encoding: 94 94 63
Width: 460
Flags: W
Fore
375 196 m 1,0,1
 376 191 376 191 375.5 187.5 c 128,-1,2
 375 184 375 184 370 179 c 0,3,4
 364 173 364 173 356 173 c 128,-1,5
 348 173 348 173 342 179 c 1,6,-1
 228 439 l 1,7,-1
 114 179 l 1,8,9
 108 173 108 173 100 172 c 128,-1,10
 92 171 92 171 86 177 c 0,11,12
 81 182 81 182 80.5 186 c 128,-1,13
 80 190 80 190 80 194 c 1,14,-1
 214 480 l 1,15,16
 228 494 228 494 242 480 c 1,17,-1
 375 196 l 1,18,-1
 375 196 l 1,0,1
EndSplineSet
EndChar
StartChar: underscore
Encoding: 95 95 64
Width: 460
Flags: W
Fore
0 -84 m 1,0,-1
 0 -50 l 1,1,-1
 460 -50 l 1,2,-1
 460 -84 l 1,3,-1
 0 -84 l 1,0,-1
EndSplineSet
EndChar
StartChar: grave
Encoding: 96 96 65
Width: 152
Flags: W
Fore
96 353 m 1,0,1
 98 327 98 327 75 326 c 0,2,3
 56 326 56 326 56 353 c 2,4,-1
 56 468 l 2,5,6
 55 494 55 494 77 494 c 0,7,8
 96 494 96 494 96 468 c 2,9,-1
 96 353 l 1,10,-1
 96 353 l 1,0,1
EndSplineSet
EndChar
StartChar: a
Encoding: 97 97 66
Width: 430
Flags: W
Fore
387 18 m 2,0,1
 387 10 387 10 381 5 c 128,-1,2
 375 0 375 0 367 0 c 256,3,4
 359 0 359 0 354.5 5 c 128,-1,5
 350 10 350 10 349 18 c 2,6,-1
 349 50 l 1,7,8
 323 24 323 24 285.5 9.5 c 128,-1,9
 248 -5 248 -5 197 -5 c 0,10,11
 148 -5 148 -5 116 7 c 128,-1,12
 84 19 84 19 65 37 c 128,-1,13
 46 55 46 55 38.5 77 c 128,-1,14
 31 99 31 99 32 119 c 0,15,16
 35 176 35 176 80.5 210 c 128,-1,17
 126 244 126 244 208 244 c 0,18,19
 241 243 241 243 269 236 c 0,20,21
 293 230 293 230 316.5 217 c 128,-1,22
 340 204 340 204 349 181 c 1,23,24
 351 212 351 212 345.5 236.5 c 128,-1,25
 340 261 340 261 321 281 c 0,26,27
 283 322 283 322 196 322 c 0,28,29
 161 322 161 322 135 314 c 128,-1,30
 109 306 109 306 83 292 c 0,31,32
 75 287 75 287 67.5 286 c 128,-1,33
 60 285 60 285 54 291 c 0,34,35
 49 297 49 297 50 305.5 c 128,-1,36
 51 314 51 314 62 322 c 0,37,38
 84 336 84 336 117 347.5 c 128,-1,39
 150 359 150 359 198 359 c 0,40,41
 300 359 300 359 349 307 c 0,42,43
 374 281 374 281 380.5 251 c 128,-1,44
 387 221 387 221 387 196 c 2,45,-1
 387 18 l 2,0,1
344 117 m 0,46,47
 345 133 345 133 339 149 c 128,-1,48
 333 165 333 165 317.5 178 c 128,-1,49
 302 191 302 191 275 199 c 128,-1,50
 248 207 248 207 206 207 c 0,51,52
 180 207 180 207 155.5 201.5 c 128,-1,53
 131 196 131 196 111.5 184.5 c 128,-1,54
 92 173 92 173 80 156.5 c 128,-1,55
 68 140 68 140 67 119 c 0,56,57
 65 73 65 73 102 51 c 128,-1,58
 139 29 139 29 202 29 c 0,59,60
 243 29 243 29 270 37.5 c 128,-1,61
 297 46 297 46 313.5 59 c 128,-1,62
 330 72 330 72 336.5 87.5 c 128,-1,63
 343 103 343 103 344 117 c 0,46,47
EndSplineSet
Substitution: 0 65534 'L026' uni0E38
Substitution: 0 65534 'L026' uni0E38
EndChar
StartChar: b
Encoding: 98 98 67
Width: 458
Flags: W
Fore
425 177 m 0,0,1
 425 139 425 139 412.5 106 c 128,-1,2
 400 73 400 73 375.5 49 c 128,-1,3
 351 25 351 25 315.5 11 c 128,-1,4
 280 -3 280 -3 235 -3 c 0,5,6
 132 -3 132 -3 82 62 c 1,7,-1
 82 15 l 2,8,9
 82 7 82 7 76.5 1 c 128,-1,10
 71 -5 71 -5 63 -5 c 256,11,12
 55 -5 55 -5 49.5 1 c 128,-1,13
 44 7 44 7 44 15 c 2,14,-1
 44 555 l 2,15,16
 44 563 44 563 50 568.5 c 128,-1,17
 56 574 56 574 64 574 c 0,18,19
 83 574 83 574 83 555 c 2,20,-1
 83 294 l 1,21,22
 106 322 106 322 142.5 339.5 c 128,-1,23
 179 357 179 357 235 357 c 0,24,25
 281 357 281 357 316.5 343 c 128,-1,26
 352 329 352 329 376 304.5 c 128,-1,27
 400 280 400 280 412.5 247 c 128,-1,28
 425 214 425 214 425 177 c 0,0,1
387 177 m 0,29,30
 387 239 387 239 348 278.5 c 128,-1,31
 309 318 309 318 235 318 c 0,32,33
 208 318 208 318 180.5 310.5 c 128,-1,34
 153 303 153 303 131 286 c 128,-1,35
 109 269 109 269 95.5 242.5 c 128,-1,36
 82 216 82 216 83 177 c 0,37,38
 83 116 83 116 121.5 76 c 128,-1,39
 160 36 160 36 235 36 c 0,40,41
 289 36 289 36 319.5 54.5 c 128,-1,42
 350 73 350 73 365 97.5 c 128,-1,43
 380 122 380 122 383.5 145 c 128,-1,44
 387 168 387 168 387 177 c 0,29,30
EndSplineSet
Substitution: 0 65534 'L026' uni0E39
Substitution: 0 65534 'L026' uni0E39
EndChar
StartChar: c
Encoding: 99 99 68
Width: 404
Flags: W
Fore
372 301 m 0,0,1
 377 295 377 295 376.5 286.5 c 128,-1,2
 376 278 376 278 370 273 c 0,3,4
 365 268 365 268 357 268.5 c 128,-1,5
 349 269 349 269 344 275 c 0,6,7
 307 318 307 318 221 318 c 0,8,9
 151 318 151 318 110 280.5 c 128,-1,10
 69 243 69 243 69 177 c 0,11,12
 69 115 69 115 109 75.5 c 128,-1,13
 149 36 149 36 221 36 c 0,14,15
 307 36 307 36 344 79 c 0,16,17
 349 85 349 85 356.5 85.5 c 128,-1,18
 364 86 364 86 370 80 c 0,19,20
 376 75 376 75 376 67 c 128,-1,21
 376 59 376 59 371 53 c 0,22,23
 323 -3 323 -3 221 -3 c 0,24,25
 179 -3 179 -3 144 11 c 128,-1,26
 109 25 109 25 84 49 c 128,-1,27
 59 73 59 73 45 106 c 128,-1,28
 31 139 31 139 31 177 c 0,29,30
 31 208 31 208 42 240 c 128,-1,31
 53 272 53 272 76.5 298 c 128,-1,32
 100 324 100 324 135.5 340.5 c 128,-1,33
 171 357 171 357 221 357 c 0,34,35
 322 357 322 357 372 301 c 0,0,1
EndSplineSet
Substitution: 0 65534 'L026' uni0E3A
Substitution: 0 65534 'L026' uni0E3A
EndChar
StartChar: d
Encoding: 100 100 69
Width: 458
Flags: W
Fore
31 178 m 0,0,1
 31 215 31 215 43.5 248 c 128,-1,2
 56 281 56 281 80 305.5 c 128,-1,3
 104 330 104 330 139.5 344 c 128,-1,4
 175 358 175 358 221 358 c 0,5,6
 277 358 277 358 313.5 340.5 c 128,-1,7
 350 323 350 323 373 295 c 1,8,-1
 373 556 l 2,9,10
 373 575 373 575 392 575 c 0,11,12
 400 575 400 575 406 569.5 c 128,-1,13
 412 564 412 564 412 556 c 2,14,-1
 412 16 l 2,15,16
 412 8 412 8 406.5 2 c 128,-1,17
 401 -4 401 -4 393 -4 c 256,18,19
 385 -4 385 -4 379.5 2 c 128,-1,20
 374 8 374 8 374 16 c 2,21,-1
 374 63 l 1,22,23
 324 -2 324 -2 221 -2 c 0,24,25
 176 -2 176 -2 140.5 12 c 128,-1,26
 105 26 105 26 80.5 50 c 128,-1,27
 56 74 56 74 43.5 107 c 128,-1,28
 31 140 31 140 31 178 c 0,0,1
69 178 m 0,29,30
 69 169 69 169 72.5 146 c 128,-1,31
 76 123 76 123 91 98.5 c 128,-1,32
 106 74 106 74 136.5 55.5 c 128,-1,33
 167 37 167 37 221 37 c 0,34,35
 296 37 296 37 334.5 77 c 128,-1,36
 373 117 373 117 373 178 c 0,37,38
 374 217 374 217 360.5 243.5 c 128,-1,39
 347 270 347 270 325 287 c 128,-1,40
 303 304 303 304 275.5 311.5 c 128,-1,41
 248 319 248 319 221 319 c 0,42,43
 147 319 147 319 108 279.5 c 128,-1,44
 69 240 69 240 69 178 c 0,29,30
EndSplineSet
EndChar
StartChar: e
Encoding: 101 101 70
Width: 438
Flags: W
Fore
380 96 m 1,0,1
 386 90 386 90 386 79.5 c 128,-1,2
 386 69 386 69 379 64 c 1,3,4
 355 32 355 32 316 14 c 128,-1,5
 277 -4 277 -4 223 -4 c 0,6,7
 135 -4 135 -4 84 46 c 128,-1,8
 33 96 33 96 33 181 c 0,9,10
 33 213 33 213 44.5 245 c 128,-1,11
 56 277 56 277 79.5 303 c 128,-1,12
 103 329 103 329 138 345 c 128,-1,13
 173 361 173 361 220 361 c 0,14,15
 277 361 277 361 311.5 344 c 128,-1,16
 346 327 346 327 363 310 c 0,17,18
 392 280 392 280 399 253 c 128,-1,19
 406 226 406 226 400 205.5 c 128,-1,20
 394 185 394 185 379 173.5 c 128,-1,21
 364 162 364 162 350 162 c 2,22,-1
 71 162 l 1,23,24
 76 102 76 102 118.5 68.5 c 128,-1,25
 161 35 161 35 223 35 c 0,26,27
 268 35 268 35 299.5 50 c 128,-1,28
 331 65 331 65 350 88 c 0,29,30
 356 96 356 96 364 99 c 128,-1,31
 372 102 372 102 380 96 c 1,0,1
343 200 m 2,32,33
 352 200 352 200 356.5 209 c 128,-1,34
 361 218 361 218 360 231 c 128,-1,35
 359 244 359 244 352.5 258.5 c 128,-1,36
 346 273 346 273 335 283 c 0,37,38
 321 295 321 295 294 308.5 c 128,-1,39
 267 322 267 322 220 322 c 0,40,41
 175 322 175 322 146.5 307 c 128,-1,42
 118 292 118 292 102 271.5 c 128,-1,43
 86 251 86 251 79.5 230.5 c 128,-1,44
 73 210 73 210 72 200 c 1,45,-1
 343 200 l 2,32,33
EndSplineSet
EndChar
StartChar: f
Encoding: 102 102 71
Width: 206
Flags: W
Fore
235 554 m 0,0,1
 235 534 235 534 209 534 c 2,2,-1
 179 534 l 2,3,4
 152 534 152 534 135 526 c 128,-1,5
 118 518 118 518 107.5 504 c 128,-1,6
 97 490 97 490 93 470.5 c 128,-1,7
 89 451 89 451 89 428 c 2,8,-1
 89 318 l 1,9,10
 97 330 97 330 107 336.5 c 128,-1,11
 117 343 117 343 127 346 c 0,12,13
 138 350 138 350 151 350 c 2,14,-1
 169 350 l 2,15,16
 195 350 195 350 195 332 c 0,17,18
 195 312 195 312 169 312 c 2,19,-1
 148 312 l 2,20,21
 131 312 131 312 119.5 304 c 128,-1,22
 108 296 108 296 101.5 284.5 c 128,-1,23
 95 273 95 273 92 260 c 128,-1,24
 89 247 89 247 89 237 c 2,25,-1
 89 23 l 2,26,27
 89 -4 89 -4 71 -4 c 0,28,29
 52 -4 52 -4 52 23 c 2,30,-1
 52 428 l 2,31,32
 52 497 52 497 86.5 534.5 c 128,-1,33
 121 572 121 572 187 572 c 2,34,-1
 209 572 l 2,35,36
 235 572 235 572 235 554 c 0,0,1
EndSplineSet
EndChar
StartChar: g
Encoding: 103 103 72
Width: 453
Flags: W
Fore
411 -4 m 2,0,1
 411 -67 411 -67 379 -110 c 128,-1,2
 347 -153 347 -153 288 -169 c 0,3,4
 260 -177 260 -177 231 -176.5 c 128,-1,5
 202 -176 202 -176 176 -169.5 c 128,-1,6
 150 -163 150 -163 129.5 -150.5 c 128,-1,7
 109 -138 109 -138 99 -120 c 0,8,9
 95 -113 95 -113 97 -106 c 128,-1,10
 99 -99 99 -99 106 -95 c 0,11,12
 112 -91 112 -91 119.5 -93 c 128,-1,13
 127 -95 127 -95 131 -101 c 0,14,15
 137 -112 137 -112 152 -121 c 128,-1,16
 167 -130 167 -130 187 -135 c 128,-1,17
 207 -140 207 -140 230.5 -140 c 128,-1,18
 254 -140 254 -140 278 -133 c 0,19,20
 291 -130 291 -130 308 -122 c 128,-1,21
 325 -114 325 -114 340 -99 c 128,-1,22
 355 -84 355 -84 364.5 -61 c 128,-1,23
 374 -38 374 -38 374 -4 c 2,24,-1
 374 67 l 1,25,26
 351 39 351 39 314 18.5 c 128,-1,27
 277 -2 277 -2 221 -2 c 0,28,29
 175 -2 175 -2 139.5 12 c 128,-1,30
 104 26 104 26 80 50.5 c 128,-1,31
 56 75 56 75 43.5 107.5 c 128,-1,32
 31 140 31 140 31 178 c 256,33,34
 31 216 31 216 43.5 249 c 128,-1,35
 56 282 56 282 80.5 306 c 128,-1,36
 105 330 105 330 140.5 344 c 128,-1,37
 176 358 176 358 221 358 c 0,38,39
 324 358 324 358 374 293 c 1,40,-1
 374 340 l 2,41,42
 374 348 374 348 379.5 354 c 128,-1,43
 385 360 385 360 393 360 c 256,44,45
 401 360 401 360 406 354 c 128,-1,46
 411 348 411 348 411 340 c 2,47,-1
 411 -4 l 2,0,1
69 178 m 0,48,49
 69 116 69 116 108 76.5 c 128,-1,50
 147 37 147 37 221 37 c 0,51,52
 248 37 248 37 275.5 44.5 c 128,-1,53
 303 52 303 52 325 69 c 128,-1,54
 347 86 347 86 360.5 112.5 c 128,-1,55
 374 139 374 139 373 178 c 0,56,57
 373 239 373 239 334.5 279 c 128,-1,58
 296 319 296 319 221 319 c 0,59,60
 167 319 167 319 136.5 300.5 c 128,-1,61
 106 282 106 282 91 257.5 c 128,-1,62
 76 233 76 233 72.5 210 c 128,-1,63
 69 187 69 187 69 178 c 0,48,49
EndSplineSet
EndChar
StartChar: h
Encoding: 104 104 73
Width: 450
Flags: W
Fore
404 16 m 1,0,1
 404 8 404 8 398.5 2 c 128,-1,2
 393 -4 393 -4 385 -4 c 256,3,4
 377 -4 377 -4 371.5 2 c 128,-1,5
 366 8 366 8 366 16 c 2,6,-1
 366 180 l 2,7,8
 366 321 366 321 225 321 c 0,9,10
 194 321 194 321 167.5 309 c 128,-1,11
 141 297 141 297 122 276.5 c 128,-1,12
 103 256 103 256 92.5 229.5 c 128,-1,13
 82 203 82 203 82 174 c 2,14,-1
 82 16 l 2,15,16
 82 8 82 8 76.5 2 c 128,-1,17
 71 -4 71 -4 63 -4 c 256,18,19
 55 -4 55 -4 50 2 c 128,-1,20
 45 8 45 8 45 16 c 2,21,-1
 45 565 l 2,22,23
 45 573 45 573 50 579 c 128,-1,24
 55 585 55 585 63 585 c 256,25,26
 71 585 71 585 76.5 579 c 128,-1,27
 82 573 82 573 82 565 c 2,28,-1
 82 283 l 1,29,30
 102 315 102 315 138 337.5 c 128,-1,31
 174 360 174 360 225 360 c 0,32,33
 268 360 268 360 301.5 346 c 128,-1,34
 335 332 335 332 357.5 308 c 128,-1,35
 380 284 380 284 392 251 c 128,-1,36
 404 218 404 218 404 180 c 2,37,-1
 404 16 l 1,38,-1
 404 16 l 1,0,1
EndSplineSet
EndChar
StartChar: i
Encoding: 105 105 74
Width: 125
Flags: W
Fore
81 23 m 2,0,1
 81 -4 81 -4 63 -4 c 0,2,3
 44 -4 44 -4 44 23 c 2,4,-1
 44 330 l 2,5,6
 44 357 44 357 63 357 c 0,7,8
 81 357 81 357 81 330 c 2,9,-1
 81 23 l 2,0,1
88 430 m 0,10,11
 88 420 88 420 80 412.5 c 128,-1,12
 72 405 72 405 62 405 c 256,13,14
 52 405 52 405 44.5 412.5 c 128,-1,15
 37 420 37 420 37 430 c 0,16,17
 37 439 37 439 44.5 447 c 128,-1,18
 52 455 52 455 62 455 c 256,19,20
 72 455 72 455 80 447 c 128,-1,21
 88 439 88 439 88 430 c 0,10,11
EndSplineSet
EndChar
StartChar: j
Encoding: 106 106 75
Width: 125
Flags: W
Fore
81 -46 m 2,0,1
 80 -81 80 -81 75 -109.5 c 128,-1,2
 70 -138 70 -138 57 -159 c 128,-1,3
 44 -180 44 -180 22.5 -191.5 c 128,-1,4
 1 -203 1 -203 -33 -203 c 0,5,6
 -41 -203 -41 -203 -46 -197.5 c 128,-1,7
 -51 -192 -51 -192 -51 -184 c 256,8,9
 -51 -176 -51 -176 -46 -171 c 128,-1,10
 -41 -166 -41 -166 -33 -166 c 0,11,12
 9 -166 9 -166 26.5 -138 c 128,-1,13
 44 -110 44 -110 44 -46 c 2,14,-1
 44 331 l 2,15,16
 44 339 44 339 47.5 348 c 128,-1,17
 51 357 51 357 63 357 c 0,18,19
 74 357 74 357 77.5 348 c 128,-1,20
 81 339 81 339 81 331 c 2,21,-1
 81 -46 l 2,0,1
88 430 m 0,22,23
 88 420 88 420 80 412.5 c 128,-1,24
 72 405 72 405 62 405 c 256,25,26
 52 405 52 405 44.5 412.5 c 128,-1,27
 37 420 37 420 37 430 c 0,28,29
 37 439 37 439 44.5 447 c 128,-1,30
 52 455 52 455 62 455 c 256,31,32
 72 455 72 455 80 447 c 128,-1,33
 88 439 88 439 88 430 c 0,22,23
EndSplineSet
EndChar
StartChar: k
Encoding: 107 107 76
Width: 393
Flags: W
Fore
376 343 m 0,0,1
 383 332 383 332 372 319 c 1,2,3
 359.5 312 l 130,-1,4
 347 305 347 305 326.5 294.5 c 128,-1,5
 306 284 306 284 280 270.5 c 128,-1,6
 254 257 254 257 227 243 c 1,7,8
 250 228 250 228 272.5 205.5 c 128,-1,9
 295 183 295 183 314.5 154.5 c 128,-1,10
 334 126 334 126 348.5 92.5 c 128,-1,11
 363 59 363 59 370 21 c 0,12,13
 372 13 372 13 367.5 7 c 128,-1,14
 363 1 363 1 355 -1 c 256,15,16
 347 -3 347 -3 341 1.5 c 128,-1,17
 335 6 335 6 333 14 c 0,18,19
 319 87 319 87 278.5 141.5 c 128,-1,20
 238 196 238 196 189 224 c 1,21,22
 173 215 173 215 155 206 c 2,23,-1
 85 171 l 1,24,-1
 85 28 l 1,25,-1
 85 27 l 2,26,27
 85 0 85 0 67 0 c 0,28,29
 48 0 48 0 48 27 c 2,30,-1
 48 547 l 2,31,32
 48 575 48 575 69 575 c 0,33,34
 85 575 85 575 85 547 c 2,35,-1
 85 212 l 1,36,37
 100 219 100 219 125 232 c 128,-1,38
 150 245 150 245 179.5 260.5 c 128,-1,39
 209 276 209 276 239.5 291.5 c 128,-1,40
 270 307 270 307 295.5 319.5 c 128,-1,41
 321 332 321 332 337 340.5 c 128,-1,42
 353 349 353 349 355 349 c 2,43,44
 362 353 362 353 367.5 350.5 c 128,-1,45
 373 348 373 348 376 343 c 0,0,1
EndSplineSet
EndChar
StartChar: l
Encoding: 108 108 77
Width: 125
Flags: W
Fore
81 27 m 1,0,1
 81 0 81 0 63 0 c 0,2,3
 44 0 44 0 44 27 c 2,4,-1
 44 549 l 2,5,6
 44 577 44 577 63 577 c 0,7,8
 81 577 81 577 81 549 c 2,9,-1
 81 27 l 1,10,-1
 81 27 l 1,0,1
EndSplineSet
EndChar
StartChar: m
Encoding: 109 109 78
Width: 633
Flags: W
Fore
43 343 m 2,0,1
 43 351 43 351 48.5 356.5 c 128,-1,2
 54 362 54 362 62 362 c 256,3,4
 70 362 70 362 75 356.5 c 128,-1,5
 80 351 80 351 80 343 c 2,6,-1
 80 296 l 1,7,8
 94 323 94 323 126 342.5 c 128,-1,9
 158 362 158 362 200 362 c 0,10,11
 282 362 282 362 317 297 c 1,12,13
 331 323 331 323 358.5 342.5 c 128,-1,14
 386 362 386 362 433 362 c 0,15,16
 511 362 511 362 551 318.5 c 128,-1,17
 591 275 591 275 591 182 c 2,18,-1
 591 19 l 2,19,20
 591 11 591 11 585.5 5.5 c 128,-1,21
 580 0 580 0 572 0 c 256,22,23
 564 0 564 0 558.5 5.5 c 128,-1,24
 553 11 553 11 553 19 c 2,25,-1
 553 182 l 2,26,27
 553 254 553 254 524.5 290 c 128,-1,28
 496 326 496 326 433 326 c 0,29,30
 413 326 413 326 395 318.5 c 128,-1,31
 377 311 377 311 364 298 c 128,-1,32
 351 285 351 285 343.5 268 c 128,-1,33
 336 251 336 251 336 232 c 2,34,-1
 336 19 l 2,35,36
 336 11 336 11 330.5 5.5 c 128,-1,37
 325 0 325 0 317 0 c 256,38,39
 309 0 309 0 303.5 5.5 c 128,-1,40
 298 11 298 11 298 19 c 2,41,-1
 298 232 l 2,42,43
 298 250 298 250 290.5 267 c 128,-1,44
 283 284 283 284 270 297 c 128,-1,45
 257 310 257 310 239 318 c 128,-1,46
 221 326 221 326 200 326 c 0,47,48
 166 326 166 326 143.5 314 c 128,-1,49
 121 302 121 302 107 282.5 c 128,-1,50
 93 263 93 263 87 238.5 c 128,-1,51
 81 214 81 214 80 188 c 2,52,-1
 80 19 l 2,53,54
 80 0 80 0 61 0 c 0,55,56
 53 0 53 0 48 5.5 c 128,-1,57
 43 11 43 11 43 19 c 2,58,-1
 43 183 l 1,59,-1
 43 343 l 2,0,1
EndSplineSet
EndChar
StartChar: n
Encoding: 110 110 79
Width: 450
Flags: W
Fore
404 19 m 1,0,1
 404 11 404 11 398.5 5.5 c 128,-1,2
 393 0 393 0 385 0 c 256,3,4
 377 0 377 0 372 5.5 c 128,-1,5
 367 11 367 11 367 19 c 2,6,-1
 367 182 l 2,7,8
 367 245 367 245 329 284 c 128,-1,9
 291 323 291 323 225 323 c 0,10,11
 161 323 161 323 122 284.5 c 128,-1,12
 83 246 83 246 83 179 c 2,13,-1
 83 19 l 2,14,15
 83 0 83 0 64 0 c 0,16,17
 56 0 56 0 51 5.5 c 128,-1,18
 46 11 46 11 46 19 c 2,19,-1
 46 342 l 2,20,21
 46 350 46 350 51 355.5 c 128,-1,22
 56 361 56 361 64 361 c 256,23,24
 72 361 72 361 77 355.5 c 128,-1,25
 82 350 82 350 82 342 c 2,26,-1
 82 291 l 1,27,28
 104 323 104 323 139 342.5 c 128,-1,29
 174 362 174 362 225 362 c 0,30,31
 306 362 306 362 355 314.5 c 128,-1,32
 404 267 404 267 404 182 c 2,33,-1
 404 19 l 1,34,-1
 404 19 l 1,0,1
EndSplineSet
EndChar
StartChar: o
Encoding: 111 111 80
Width: 448
Flags: W
Fore
413 180 m 0,0,1
 413 135 413 135 398 101.5 c 128,-1,2
 383 68 383 68 357.5 45.5 c 128,-1,3
 332 23 332 23 297.5 11.5 c 128,-1,4
 263 0 263 0 223 0 c 0,5,6
 184 0 184 0 149.5 12 c 128,-1,7
 115 24 115 24 89 47.5 c 128,-1,8
 63 71 63 71 48 104.5 c 128,-1,9
 33 138 33 138 33 180 c 0,10,11
 33 213 33 213 43 245 c 128,-1,12
 53 277 53 277 75.5 302.5 c 128,-1,13
 98 328 98 328 134 344 c 128,-1,14
 170 360 170 360 223 360 c 0,15,16
 266 360 266 360 301 347 c 128,-1,17
 336 334 336 334 361 310 c 128,-1,18
 386 286 386 286 399.5 253 c 128,-1,19
 413 220 413 220 413 180 c 0,0,1
378 180 m 0,20,21
 378 213 378 213 366 239.5 c 128,-1,22
 354 266 354 266 333.5 284.5 c 128,-1,23
 313 303 313 303 284.5 313 c 128,-1,24
 256 323 256 323 223 323 c 0,25,26
 191 323 191 323 163 313.5 c 128,-1,27
 135 304 135 304 114 286 c 128,-1,28
 93 268 93 268 80.5 241.5 c 128,-1,29
 68 215 68 215 68 180 c 0,30,31
 68 147 68 147 79.5 120.5 c 128,-1,32
 91 94 91 94 112 75.5 c 128,-1,33
 133 57 133 57 161.5 47 c 128,-1,34
 190 37 190 37 223 37 c 0,35,36
 278 37 278 37 309.5 56 c 128,-1,37
 341 75 341 75 356 99.5 c 128,-1,38
 371 124 371 124 374.5 147.5 c 128,-1,39
 378 171 378 171 378 180 c 0,20,21
EndSplineSet
EndChar
StartChar: p
Encoding: 112 112 81
Width: 458
Flags: W
Fore
425 180 m 256,0,1
 425 142 425 142 412.5 109.5 c 128,-1,2
 400 77 400 77 376 52.5 c 128,-1,3
 352 28 352 28 316.5 14 c 128,-1,4
 281 0 281 0 235 0 c 0,5,6
 179 0 179 0 142.5 17.5 c 128,-1,7
 106 35 106 35 83 63 c 1,8,-1
 83 -198 l 2,9,10
 83 -217 83 -217 64 -217 c 0,11,12
 56 -217 56 -217 50 -211.5 c 128,-1,13
 44 -206 44 -206 44 -198 c 2,14,-1
 44 342 l 2,15,16
 44 350 44 350 49.5 356 c 128,-1,17
 55 362 55 362 63 362 c 256,18,19
 71 362 71 362 76.5 356 c 128,-1,20
 82 350 82 350 82 342 c 2,21,-1
 82 295 l 1,22,23
 132 360 132 360 235 360 c 0,24,25
 280 360 280 360 315.5 346 c 128,-1,26
 351 332 351 332 375.5 308 c 128,-1,27
 400 284 400 284 412.5 251 c 128,-1,28
 425 218 425 218 425 180 c 256,0,1
387 180 m 0,29,30
 387 189 387 189 383.5 212 c 128,-1,31
 380 235 380 235 365 259.5 c 128,-1,32
 350 284 350 284 319.5 302.5 c 128,-1,33
 289 321 289 321 235 321 c 0,34,35
 160 321 160 321 121.5 281 c 128,-1,36
 83 241 83 241 83 180 c 0,37,38
 82 141 82 141 95.5 114.5 c 128,-1,39
 109 88 109 88 131 71 c 128,-1,40
 153 54 153 54 180.5 46.5 c 128,-1,41
 208 39 208 39 235 39 c 0,42,43
 309 39 309 39 348 78.5 c 128,-1,44
 387 118 387 118 387 180 c 0,29,30
EndSplineSet
EndChar
StartChar: q
Encoding: 113 113 82
Width: 458
Flags: W
Fore
33 180 m 256,0,1
 33 218 33 218 45.5 251 c 128,-1,2
 58 284 58 284 82.5 308 c 128,-1,3
 107 332 107 332 142.5 346 c 128,-1,4
 178 360 178 360 223 360 c 0,5,6
 326 360 326 360 376 295 c 1,7,-1
 376 342 l 2,8,9
 376 350 376 350 381.5 356 c 128,-1,10
 387 362 387 362 395 362 c 256,11,12
 403 362 403 362 408.5 356 c 128,-1,13
 414 350 414 350 414 342 c 2,14,-1
 414 -198 l 2,15,16
 414 -206 414 -206 408 -211.5 c 128,-1,17
 402 -217 402 -217 394 -217 c 0,18,19
 375 -217 375 -217 375 -198 c 2,20,-1
 375 63 l 1,21,22
 352 35 352 35 315.5 17.5 c 128,-1,23
 279 0 279 0 223 0 c 0,24,25
 177 0 177 0 141.5 14 c 128,-1,26
 106 28 106 28 82 52.5 c 128,-1,27
 58 77 58 77 45.5 109.5 c 128,-1,28
 33 142 33 142 33 180 c 256,0,1
71 180 m 0,29,30
 71 118 71 118 110 78.5 c 128,-1,31
 149 39 149 39 223 39 c 0,32,33
 250 39 250 39 277.5 46.5 c 128,-1,34
 305 54 305 54 327 71 c 128,-1,35
 349 88 349 88 362.5 114.5 c 128,-1,36
 376 141 376 141 375 180 c 0,37,38
 375 241 375 241 336.5 281 c 128,-1,39
 298 321 298 321 223 321 c 0,40,41
 169 321 169 321 138.5 302.5 c 128,-1,42
 108 284 108 284 93 259.5 c 128,-1,43
 78 235 78 235 74.5 212 c 128,-1,44
 71 189 71 189 71 180 c 0,29,30
EndSplineSet
EndChar
StartChar: r
Encoding: 114 114 83
Width: 283
Flags: W
Fore
43 330 m 2,0,1
 43 357 43 357 62 357 c 0,2,3
 80 357 80 357 80 330 c 2,4,-1
 80 263 l 1,5,6
 87 280 87 280 101.5 297 c 128,-1,7
 116 314 116 314 135.5 327.5 c 128,-1,8
 155 341 155 341 177.5 349 c 128,-1,9
 200 357 200 357 223 357 c 2,10,-1
 254 357 l 2,11,12
 281 357 281 357 281 339 c 0,13,14
 281 319 281 319 254 319 c 2,15,-1
 222 319 l 2,16,17
 189 319 189 319 163 304.5 c 128,-1,18
 137 290 137 290 118.5 266.5 c 128,-1,19
 100 243 100 243 90 213 c 128,-1,20
 80 183 80 183 80 151 c 2,21,-1
 80 27 l 2,22,23
 80 0 80 0 62 0 c 0,24,25
 43 0 43 0 43 27 c 2,26,-1
 43 330 l 2,0,1
EndSplineSet
EndChar
StartChar: s
Encoding: 115 115 84
Width: 347
Flags: W
Fore
318 309 m 0,0,1
 328 294 328 294 312 284 c 0,2,3
 296 276 296 276 284 291 c 0,4,5
 273 308 273 308 249.5 319 c 128,-1,6
 226 330 226 330 197 332 c 256,7,8
 168 334 168 334 138.5 327.5 c 128,-1,9
 109 321 109 321 95 307 c 0,10,11
 75 284 75 284 84.5 257 c 128,-1,12
 94 230 94 230 132 218 c 2,13,14
 146.5 212.5 l 130,-1,15
 161 207 161 207 178 201 c 128,-1,16
 195 195 195 195 209 190 c 128,-1,17
 222 185 222 185 223 185 c 1,18,19
 237 180 237 180 251.5 173.5 c 128,-1,20
 266 167 266 167 279 158.5 c 128,-1,21
 292 150 292 150 302 139.5 c 128,-1,22
 312 129 312 129 316 116 c 0,23,24
 327 82 327 82 317.5 57 c 128,-1,25
 308 32 308 32 285.5 16 c 128,-1,26
 263 0 263 0 231 -6.5 c 128,-1,27
 199 -13 199 -13 166 -10 c 0,28,29
 116 -6 116 -6 79.5 15 c 128,-1,30
 43 36 43 36 30 73 c 0,31,32
 25 91 25 91 44 98 c 0,33,34
 53 100 53 100 61 96.5 c 128,-1,35
 69 93 69 93 71 85 c 0,36,37
 78 66 78 66 90.5 54.5 c 128,-1,38
 103 43 103 43 117 36.5 c 128,-1,39
 131 30 131 30 144 27.5 c 128,-1,40
 157 25 157 25 164 24 c 0,41,42
 193 21 193 21 218.5 25 c 128,-1,43
 244 29 244 29 260.5 40 c 128,-1,44
 277 51 277 51 283.5 67.5 c 128,-1,45
 290 84 290 84 281 105 c 0,46,47
 276 117 276 117 264.5 126 c 128,-1,48
 253 135 253 135 237.5 142.5 c 128,-1,49
 222 150 222 150 204 156 c 128,-1,50
 186 162 186 162 169 168 c 0,51,52
 157 172 157 172 136 179.5 c 128,-1,53
 115 187 115 187 106 191 c 0,54,55
 84 201 84 201 68.5 217 c 128,-1,56
 53 233 53 233 47 251.5 c 128,-1,57
 41 270 41 270 46 290.5 c 128,-1,58
 51 311 51 311 69 329 c 0,59,60
 90 350 90 350 125.5 360 c 128,-1,61
 161 370 161 370 201 366 c 0,62,63
 240 363 240 363 270.5 348 c 128,-1,64
 301 333 301 333 318 309 c 0,0,1
EndSplineSet
EndChar
StartChar: t
Encoding: 116 116 85
Width: 222
Flags: W
Fore
223 19 m 256,0,1
 223 0 223 0 196 0 c 2,2,-1
 178 0 l 2,3,4
 112 0 112 0 77 39.5 c 128,-1,5
 42 79 42 79 42 145 c 2,6,-1
 42 538 l 2,7,8
 42 565 42 565 61 565 c 0,9,10
 79 565 79 565 79 538 c 2,11,-1
 79 350 l 1,12,-1
 149 350 l 2,13,14
 175 350 175 350 175 330 c 0,15,16
 175 312 175 312 149 312 c 2,17,-1
 79 312 l 1,18,-1
 79 145 l 2,19,20
 79 94 79 94 102.5 66 c 128,-1,21
 126 38 126 38 178 38 c 2,22,-1
 196 38 l 2,23,24
 223 38 223 38 223 19 c 256,0,1
EndSplineSet
EndChar
StartChar: u
Encoding: 117 117 86
Width: 447
Flags: W
Fore
401 15 m 1,0,1
 401 -4 401 -4 383 -4 c 0,2,3
 375 -4 375 -4 370 1.5 c 128,-1,4
 365 7 365 7 365 15 c 2,5,-1
 365 63 l 1,6,7
 343 31 343 31 308 13 c 128,-1,8
 273 -5 273 -5 222 -5 c 0,9,10
 135 -5 135 -5 89 44 c 0,11,12
 75 59 75 59 66 76 c 128,-1,13
 57 93 57 93 52 110 c 128,-1,14
 47 127 47 127 45 144 c 128,-1,15
 43 161 43 161 43 175 c 2,16,-1
 43 338 l 2,17,18
 43 346 43 346 48.5 351.5 c 128,-1,19
 54 357 54 357 62 357 c 256,20,21
 70 357 70 357 75.5 351.5 c 128,-1,22
 81 346 81 346 81 338 c 2,23,-1
 81 175 l 2,24,25
 81 152 81 152 87.5 123 c 128,-1,26
 94 94 94 94 116 71 c 0,27,28
 150 34 150 34 222 34 c 0,29,30
 296 34 296 34 330 71 c 0,31,32
 364 105 364 105 364 175 c 2,33,-1
 364 338 l 2,34,35
 364 357 364 357 383 357 c 0,36,37
 391 357 391 357 396 351.5 c 128,-1,38
 401 346 401 346 401 338 c 2,39,-1
 401 15 l 1,40,-1
 401 15 l 1,0,1
EndSplineSet
EndChar
StartChar: v
Encoding: 118 118 87
Width: 382
Flags: W
Fore
290 70 m 2,0,1
 278 42 278 42 256.5 19 c 128,-1,2
 235 -4 235 -4 191 -4 c 0,3,4
 169 -4 169 -4 153 2.5 c 128,-1,5
 137 9 137 9 125.5 19.5 c 128,-1,6
 114 30 114 30 105.5 43.5 c 128,-1,7
 97 57 97 57 91 72 c 2,8,-1
 2 332 l 2,9,10
 0 340 0 340 3 347 c 128,-1,11
 6 354 6 354 13 357 c 1,12,13
 21 359 21 359 28 356 c 128,-1,14
 35 353 35 353 37 345 c 2,15,-1
 125 87 l 2,16,17
 136 61 136 61 150 45 c 128,-1,18
 164 29 164 29 191 29 c 256,19,20
 218 29 218 29 231.5 45 c 128,-1,21
 245 61 245 61 256 85 c 2,22,-1
 345 345 l 2,23,24
 347 353 347 353 354 356 c 128,-1,25
 361 359 361 359 368 357 c 0,26,27
 376 354 376 354 379 347 c 128,-1,28
 382 340 382 340 380 332 c 2,29,-1
 290 70 l 2,0,1
EndSplineSet
EndChar
StartChar: w
Encoding: 119 119 88
Width: 598
Flags: W
Fore
574 175 m 1,0,1
 574 82 574 82 534 38.5 c 128,-1,2
 494 -5 494 -5 416 -5 c 0,3,4
 369 -5 369 -5 341.5 14.5 c 128,-1,5
 314 34 314 34 300 60 c 1,6,7
 265 -5 265 -5 183 -5 c 0,8,9
 139 -5 139 -5 109 9 c 128,-1,10
 79 23 79 23 60.5 47.5 c 128,-1,11
 42 72 42 72 34 104 c 128,-1,12
 26 136 26 136 26 172 c 2,13,-1
 26 338 l 2,14,15
 26 346 26 346 31.5 351.5 c 128,-1,16
 37 357 37 357 45 357 c 256,17,18
 53 357 53 357 58 351.5 c 128,-1,19
 63 346 63 346 63 338 c 2,20,-1
 63 172 l 2,21,22
 63 145 63 145 68.5 119.5 c 128,-1,23
 74 94 74 94 87.5 74.5 c 128,-1,24
 101 55 101 55 124 43 c 128,-1,25
 147 31 147 31 183 31 c 0,26,27
 204 31 204 31 222 39 c 128,-1,28
 240 47 240 47 253 60 c 128,-1,29
 266 73 266 73 273.5 90 c 128,-1,30
 281 107 281 107 281 125 c 2,31,-1
 281 338 l 2,32,33
 281 346 281 346 286.5 351.5 c 128,-1,34
 292 357 292 357 300 357 c 256,35,36
 308 357 308 357 313.5 351.5 c 128,-1,37
 319 346 319 346 319 338 c 2,38,-1
 319 125 l 2,39,40
 319 106 319 106 326.5 89 c 128,-1,41
 334 72 334 72 347 59 c 128,-1,42
 360 46 360 46 378 38.5 c 128,-1,43
 396 31 396 31 416 31 c 0,44,45
 479 31 479 31 507.5 67 c 128,-1,46
 536 103 536 103 536 175 c 2,47,-1
 536 338 l 2,48,49
 536 346 536 346 541.5 351.5 c 128,-1,50
 547 357 547 357 555 357 c 256,51,52
 563 357 563 357 568.5 351.5 c 128,-1,53
 574 346 574 346 574 338 c 2,54,-1
 574 175 l 1,55,-1
 574 175 l 1,0,1
EndSplineSet
EndChar
StartChar: x
Encoding: 120 120 89
Width: 383
Flags: W
Fore
366 30 m 1,0,1
 371 23 371 23 369.5 14.5 c 128,-1,2
 368 6 368 6 362 1 c 0,3,4
 355 -4 355 -4 347.5 -2.5 c 128,-1,5
 340 -1 340 -1 335 6 c 0,6,7
 304 50 304 50 288.5 73.5 c 128,-1,8
 273 97 273 97 265 108 c 2,9,-1
 255 122 l 2,10,11
 242 139 242 139 225 150.5 c 128,-1,12
 208 162 208 162 191 162 c 256,13,14
 174 162 174 162 157 151 c 128,-1,15
 140 140 140 140 128 123 c 2,16,-1
 47 6 l 2,17,18
 35 -9 35 -9 20 1 c 0,19,20
 14 6 14 6 12.5 14.5 c 128,-1,21
 11 23 11 23 16 30 c 0,22,23
 46 74 46 74 62.5 98 c 128,-1,24
 79 122 79 122 87 133 c 0,25,26
 96 146 96 146 98 148 c 0,27,28
 104 156 104 156 113.5 164.5 c 128,-1,29
 123 173 123 173 134 181 c 1,30,31
 123 188 123 188 113.5 196 c 128,-1,32
 104 204 104 204 97 212 c 2,33,-1
 16 326 l 2,34,35
 11 333 11 333 12 341.5 c 128,-1,36
 13 350 13 350 20 355 c 0,37,38
 26 360 26 360 34 359 c 128,-1,39
 42 358 42 358 47 351 c 0,40,41
 77 308 77 308 93 285.5 c 128,-1,42
 109 263 109 263 117 252 c 2,43,-1
 127 238 l 2,44,45
 140 221 140 221 157 210.5 c 128,-1,46
 174 200 174 200 191 200 c 256,47,48
 208 200 208 200 225 210 c 128,-1,49
 242 220 242 220 254 237 c 2,50,-1
 335 351 l 2,51,52
 340 358 340 358 348 359 c 128,-1,53
 356 360 356 360 362 355 c 0,54,55
 369 350 369 350 370 341.5 c 128,-1,56
 371 333 371 333 366 326 c 0,57,58
 335 283 335 283 319 260 c 128,-1,59
 303 237 303 237 295 226 c 0,60,61
 286 214 286 214 284 212 c 0,62,63
 272 196 272 196 249 181 c 1,64,65
 260 173 260 173 269.5 164.5 c 128,-1,66
 279 156 279 156 285 147 c 2,67,-1
 366 30 l 1,68,-1
 366 30 l 1,0,1
EndSplineSet
EndChar
StartChar: y
Encoding: 121 121 90
Width: 419
Flags: W
Fore
387 -13 m 1,0,1
 387 -76 387 -76 355 -118.5 c 128,-1,2
 323 -161 323 -161 264 -178 c 0,3,4
 236 -186 236 -186 207 -185.5 c 128,-1,5
 178 -185 178 -185 152 -178.5 c 128,-1,6
 126 -172 126 -172 105.5 -159.5 c 128,-1,7
 85 -147 85 -147 75 -129 c 0,8,9
 71 -122 71 -122 73 -115 c 128,-1,10
 75 -108 75 -108 82 -104 c 256,11,12
 89 -100 89 -100 96 -102 c 128,-1,13
 103 -104 103 -104 107 -110 c 0,14,15
 113 -121 113 -121 128 -130 c 128,-1,16
 143 -139 143 -139 163 -144 c 128,-1,17
 183 -149 183 -149 206.5 -149 c 128,-1,18
 230 -149 230 -149 254 -142 c 0,19,20
 267 -139 267 -139 284 -131 c 128,-1,21
 301 -123 301 -123 316 -108 c 128,-1,22
 331 -93 331 -93 340.5 -70 c 128,-1,23
 350 -47 350 -47 350 -13 c 2,24,-1
 350 66 l 1,25,26
 328 34 328 34 293.5 16 c 128,-1,27
 259 -2 259 -2 208 -2 c 0,28,29
 117 -2 117 -2 73 47 c 128,-1,30
 29 96 29 96 29 178 c 2,31,-1
 29 341 l 2,32,33
 29 360 29 360 48 360 c 0,34,35
 56 360 56 360 61 354.5 c 128,-1,36
 66 349 66 349 66 341 c 2,37,-1
 66 178 l 2,38,39
 66 103 66 103 104 68.5 c 128,-1,40
 142 34 142 34 208 34 c 0,41,42
 278 34 278 34 312 71.5 c 128,-1,43
 346 109 346 109 346 178 c 2,44,-1
 346 334 l 2,45,46
 346 342 346 342 349.5 351.5 c 128,-1,47
 353 361 353 361 367 361 c 256,48,49
 381 361 381 361 384 351.5 c 128,-1,50
 387 342 387 342 387 334 c 2,51,-1
 387 -13 l 1,52,-1
 387 -13 l 1,0,1
EndSplineSet
EndChar
StartChar: z
Encoding: 122 122 91
Width: 393
Flags: W
Fore
87 125 m 0,0,1
 140 160 140 160 182 188 c 0,2,3
 200 200 200 200 217.5 212 c 128,-1,4
 235 224 235 224 249 233.5 c 128,-1,5
 263 243 263 243 272 249.5 c 128,-1,6
 281 256 281 256 283 258 c 0,7,8
 296 269 296 269 302 275.5 c 128,-1,9
 308 282 308 282 309 294 c 0,10,11
 311 320 311 320 265 320 c 2,12,-1
 73 320 l 2,13,14
 46 320 46 320 46 338 c 0,15,16
 46 357 46 357 73 357 c 2,17,-1
 265 357 l 2,18,19
 300 357 300 357 323.5 341.5 c 128,-1,20
 347 326 347 326 347 294 c 0,21,22
 347 271 347 271 336 257.5 c 128,-1,23
 325 244 325 244 306 230 c 2,24,25
 292 220.5 l 130,-1,26
 278 211 278 211 256 196.5 c 128,-1,27
 234 182 234 182 208.5 165 c 128,-1,28
 183 148 183 148 161.5 133.5 c 128,-1,29
 140 119 140 119 125 109.5 c 128,-1,30
 111 101 111 101 110 100 c 0,31,32
 96 90 96 90 89.5 81 c 128,-1,33
 83 72 83 72 83 61 c 0,34,35
 83 37 83 37 128 37 c 2,36,-1
 320 37 l 2,37,38
 347 37 347 37 347 19 c 0,39,40
 347 0 347 0 320 0 c 2,41,-1
 128 0 l 2,42,43
 93 0 93 0 69.5 14.5 c 128,-1,44
 46 29 46 29 46 61 c 0,45,46
 46 84 46 84 56.5 97.5 c 128,-1,47
 67 111 67 111 87 125 c 0,0,1
EndSplineSet
EndChar
StartChar: braceleft
Encoding: 123 123 92
Width: 227
Flags: W
Fore
195 -113 m 0,0,1
 177 -140 177 -140 124 -82 c 0,2,3
 104 -61 104 -61 98 -34.5 c 128,-1,4
 92 -8 92 -8 92 20 c 2,5,-1
 92 85 l 2,6,7
 92 119 92 119 81.5 138 c 128,-1,8
 71 157 71 157 59 167.5 c 128,-1,9
 47 178 47 178 37 183.5 c 128,-1,10
 27 189 27 189 28 197 c 0,11,12
 29 204 29 204 39 209.5 c 128,-1,13
 49 215 49 215 61 225.5 c 128,-1,14
 73 236 73 236 82.5 255 c 128,-1,15
 92 274 92 274 92 308 c 2,16,-1
 92 374 l 2,17,18
 92 401 92 401 98 427.5 c 128,-1,19
 104 454 104 454 124 475 c 0,20,21
 177 533 177 533 195 506 c 0,22,23
 201 497 201 497 199 491.5 c 128,-1,24
 197 486 197 486 189.5 480.5 c 128,-1,25
 182 475 182 475 171.5 468 c 128,-1,26
 161 461 161 461 151 448 c 0,27,28
 139 432 139 432 134 413 c 128,-1,29
 129 394 129 394 129 374 c 2,30,-1
 129 308 l 2,31,32
 129 263 129 263 115.5 237.5 c 128,-1,33
 102 212 102 212 73 197 c 1,34,35
 102 181 102 181 115.5 155.5 c 128,-1,36
 129 130 129 130 129 85 c 2,37,-1
 129 20 l 2,38,39
 129 0 129 0 134 -19.5 c 128,-1,40
 139 -39 139 -39 151 -55 c 0,41,42
 161 -68 161 -68 171.5 -75 c 128,-1,43
 182 -82 182 -82 189.5 -87 c 128,-1,44
 197 -92 197 -92 199 -97.5 c 128,-1,45
 201 -103 201 -103 195 -113 c 0,0,1
EndSplineSet
EndChar
StartChar: bar
Encoding: 124 124 93
Width: 157
Flags: W
Fore
98 -110 m 1,0,1
 98 -137 98 -137 80 -137 c 0,2,3
 61 -137 61 -137 61 -110 c 2,4,-1
 61 510 l 2,5,6
 61 537 61 537 80 537 c 0,7,8
 98 537 98 537 98 510 c 2,9,-1
 98 -110 l 1,10,-1
 98 -110 l 1,0,1
EndSplineSet
EndChar
StartChar: braceright
Encoding: 125 125 94
Width: 227
Flags: W
Fore
206 197 m 0,0,1
 207 189 207 189 197 183.5 c 128,-1,2
 187 178 187 178 175 167.5 c 128,-1,3
 163 157 163 157 152.5 138 c 128,-1,4
 142 119 142 119 142 85 c 2,5,-1
 142 20 l 2,6,7
 142 -8 142 -8 136 -34.5 c 128,-1,8
 130 -61 130 -61 110 -82 c 0,9,10
 57 -140 57 -140 39 -113 c 0,11,12
 33 -104 33 -104 35 -98.5 c 128,-1,13
 37 -93 37 -93 44.5 -87.5 c 128,-1,14
 52 -82 52 -82 62.5 -75 c 128,-1,15
 73 -68 73 -68 83 -55 c 0,16,17
 95 -39 95 -39 100 -19.5 c 128,-1,18
 105 0 105 0 105 20 c 2,19,-1
 105 85 l 2,20,21
 105 130 105 130 118.5 155.5 c 128,-1,22
 132 181 132 181 161 197 c 1,23,24
 132 212 132 212 118.5 237.5 c 128,-1,25
 105 263 105 263 105 308 c 2,26,-1
 105 374 l 2,27,28
 105 394 105 394 100 413 c 128,-1,29
 95 432 95 432 83 448 c 0,30,31
 73 461 73 461 62.5 468 c 128,-1,32
 52 475 52 475 44.5 480.5 c 128,-1,33
 37 486 37 486 35 491.5 c 128,-1,34
 33 497 33 497 39 506 c 0,35,36
 57 533 57 533 110 475 c 0,37,38
 130 454 130 454 136 427.5 c 128,-1,39
 142 401 142 401 142 374 c 2,40,-1
 142 308 l 2,41,42
 142 274 142 274 151.5 255 c 128,-1,43
 161 236 161 236 173 225.5 c 128,-1,44
 185 215 185 215 195 209.5 c 128,-1,45
 205 204 205 204 206 197 c 0,0,1
EndSplineSet
EndChar
StartChar: asciitilde
Encoding: 126 126 95
Width: 390
Flags: W
Fore
357 228 m 0,0,1
 358 210 358 210 355 192.5 c 128,-1,2
 352 175 352 175 342.5 160.5 c 128,-1,3
 333 146 333 146 317 137 c 128,-1,4
 301 128 301 128 277 128 c 0,5,6
 263 128 263 128 246.5 134.5 c 128,-1,7
 230 141 230 141 213 151 c 2,8,-1
 137 192 l 2,9,10
 104 211 104 211 90.5 193.5 c 128,-1,11
 77 176 77 176 76 139 c 0,12,13
 76 133 76 133 74 129 c 256,14,15
 72 125 72 125 67.5 122 c 128,-1,16
 63 119 63 119 54 119 c 0,17,18
 38 119 38 119 34 128 c 0,19,20
 32 132 32 132 33 138 c 2,21,22
 31 178 31 178 46 207 c 128,-1,23
 61 236 61 236 98 242 c 0,24,25
 115 245 115 245 131.5 239.5 c 128,-1,26
 148 234 148 234 159 228 c 2,27,-1
 249 178 l 2,28,29
 263 169 263 169 275.5 169 c 128,-1,30
 288 169 288 169 296.5 176.5 c 128,-1,31
 305 184 305 184 309 197 c 128,-1,32
 313 210 313 210 311 227 c 0,33,34
 310 233 310 233 313 238 c 1,35,36
 315 243 315 243 319.5 246.5 c 128,-1,37
 324 250 324 250 333 250 c 0,38,39
 341 250 341 250 346.5 246.5 c 128,-1,40
 352 243 352 243 354 239 c 0,41,42
 357 234 357 234 357 228 c 0,0,1
EndSplineSet
EndChar
StartChar: uni0E33.alt1
Encoding: 65539 -1 96
Width: 387
Flags: W
Fore
338 17 m 2,0,1
 338 9 338 9 332.5 3 c 128,-1,2
 327 -3 327 -3 319 -3 c 256,3,4
 311 -3 311 -3 305 3 c 128,-1,5
 299 9 299 9 299 17 c 2,6,-1
 299 276 l 2,7,8
 299 321 299 321 268.5 346 c 128,-1,9
 238 371 238 371 185 371 c 0,10,11
 163 371 163 371 144 365.5 c 128,-1,12
 125 360 125 360 109.5 351.5 c 128,-1,13
 94 343 94 343 83.5 332 c 128,-1,14
 73 321 73 321 69 310 c 0,15,16
 66 302 66 302 59 298.5 c 128,-1,17
 52 295 52 295 44 298 c 0,18,19
 36 300 36 300 33 307.5 c 128,-1,20
 30 315 30 315 32 323 c 0,21,22
 39 341 39 341 54 357 c 128,-1,23
 69 373 69 373 89.5 385 c 128,-1,24
 110 397 110 397 134.5 403.5 c 128,-1,25
 159 410 159 410 185 410 c 256,26,27
 211 410 211 410 238.5 401 c 128,-1,28
 266 392 266 392 288 374.5 c 128,-1,29
 310 357 310 357 324 332 c 128,-1,30
 338 307 338 307 338 276 c 2,31,-1
 338 17 l 2,0,1
-98 527 m 0,32,33
 -98 495 -98 495 -121.5 475.5 c 128,-1,34
 -145 456 -145 456 -180 456 c 0,35,36
 -194 456 -194 456 -208.5 460.5 c 128,-1,37
 -223 465 -223 465 -235 473.5 c 128,-1,38
 -247 482 -247 482 -254.5 495.5 c 128,-1,39
 -262 509 -262 509 -262 527 c 0,40,41
 -262 557 -262 557 -238 578 c 128,-1,42
 -214 599 -214 599 -180 599 c 0,43,44
 -142 599 -142 599 -120 577.5 c 128,-1,45
 -98 556 -98 556 -98 527 c 0,32,33
-133 527 m 0,46,47
 -133 539 -133 539 -144.5 551.5 c 128,-1,48
 -156 564 -156 564 -180 564 c 0,49,50
 -201 564 -201 564 -214 552 c 128,-1,51
 -227 540 -227 540 -227 527 c 0,52,53
 -227 515 -227 515 -221 508 c 128,-1,54
 -215 501 -215 501 -206.5 497.5 c 128,-1,55
 -198 494 -198 494 -190.5 492.5 c 128,-1,56
 -183 491 -183 491 -180 491 c 0,57,58
 -160 491 -160 491 -146.5 501.5 c 128,-1,59
 -133 512 -133 512 -133 527 c 0,46,47
EndSplineSet
EndChar
StartChar: quotedbl
Encoding: 34 34 97
Width: 200
Flags: W
Fore
81 348 m 2,0,1
 82 335 82 335 78 328.5 c 128,-1,2
 74 322 74 322 62 321 c 0,3,4
 41 321 41 321 41 348 c 2,5,-1
 41 463 l 2,6,7
 40 489 40 489 61 489 c 0,8,9
 80 489 80 489 80 463 c 2,10,-1
 81 348 l 2,0,1
158 349 m 2,11,12
 159 336 159 336 155 329.5 c 128,-1,13
 151 323 151 323 139 322 c 0,14,15
 118 322 118 322 118 349 c 2,16,-1
 118 464 l 2,17,18
 117 490 117 490 138 490 c 0,19,20
 157 490 157 490 157 464 c 2,21,-1
 158 349 l 2,11,12
EndSplineSet
EndChar
StartChar: exclam
Encoding: 33 33 98
Width: 185
Flags: W
Fore
113 140 m 2,0,1
 112 114 112 114 94 114 c 0,2,3
 75 114 75 114 75 140 c 2,4,-1
 69 477 l 2,5,6
 68 491 68 491 76.5 497.5 c 128,-1,7
 85 504 85 504 94 504 c 256,8,9
 103 504 103 504 111.5 497.5 c 128,-1,10
 120 491 120 491 119 477 c 2,11,-1
 113 140 l 2,0,1
124 29 m 0,12,13
 124 18 124 18 115 9 c 128,-1,14
 106 0 106 0 94 0 c 256,15,16
 82 0 82 0 73.5 8 c 128,-1,17
 65 16 65 16 65 28 c 0,18,19
 65 41 65 41 72.5 49.5 c 128,-1,20
 80 58 80 58 93 58 c 256,21,22
 106 58 106 58 115 50 c 128,-1,23
 124 42 124 42 124 29 c 0,12,13
EndSplineSet
EndChar
StartChar: uni0E4E.alt1
Encoding: 65540 -1 99
Width: 0
Flags: W
Fore
-75 678 m 0,0,1
 -73 678 -73 678 -68.5 677.5 c 128,-1,2
 -64 677 -64 677 -60 675.5 c 128,-1,3
 -56 674 -56 674 -54 671 c 128,-1,4
 -52 668 -52 668 -56 664 c 1,5,6
 -95 663 -95 663 -118.5 647 c 128,-1,7
 -142 631 -142 631 -140.5 607 c 128,-1,8
 -139 583 -139 583 -113 576 c 1,9,10
 -109 576 -109 576 -105.5 572.5 c 128,-1,11
 -102 569 -102 569 -102 563 c 256,12,13
 -102 557 -102 557 -106.5 554.5 c 128,-1,14
 -111 552 -111 552 -117 551 c 0,15,16
 -193 548 -193 548 -196 504 c 1,17,18
 -193 474 -193 474 -146 474 c 0,19,20
 -131 474 -131 474 -122 475 c 1,21,-1
 -130 452 l 1,22,23
 -153 449 -153 449 -170 449 c 0,24,25
 -234 452 -234 452 -238 502 c 1,26,27
 -234 562 -234 562 -154 570 c 1,28,29
 -182 589 -182 589 -179 620 c 128,-1,30
 -176 651 -176 651 -147 667 c 128,-1,31
 -118 683 -118 683 -75 678 c 0,0,1
EndSplineSet
EndChar
StartChar: exclamdown
Encoding: 161 161 100
Width: 185
Flags: W
Fore
121 -119 m 2,0,1
 122 -133 122 -133 113.5 -139.5 c 128,-1,2
 105 -146 105 -146 96 -146 c 256,3,4
 87 -146 87 -146 78.5 -139.5 c 128,-1,5
 70 -133 70 -133 71 -119 c 2,6,-1
 77 218 l 2,7,8
 77 244 77 244 96 244 c 0,9,10
 114 244 114 244 115 218 c 2,11,-1
 121 -119 l 2,0,1
126 329 m 0,12,13
 126 316 126 316 117 308 c 128,-1,14
 108 300 108 300 95 300 c 256,15,16
 82 300 82 300 74.5 308.5 c 128,-1,17
 67 317 67 317 67 330 c 0,18,19
 67 342 67 342 75.5 350 c 128,-1,20
 84 358 84 358 96 358 c 256,21,22
 108 358 108 358 117 349 c 128,-1,23
 126 340 126 340 126 329 c 0,12,13
EndSplineSet
EndChar
StartChar: cent
Encoding: 162 162 101
Width: 433
Flags: W
Fore
355 141 m 1,0,1
 361 146 361 146 369 146.5 c 128,-1,2
 377 147 377 147 383 142 c 0,3,4
 388 137 388 137 388.5 128.5 c 128,-1,5
 389 120 389 120 384 113 c 0,6,7
 370 96 370 96 348.5 84 c 128,-1,8
 327 72 327 72 301 65.5 c 128,-1,9
 275 59 275 59 246.5 58 c 128,-1,10
 218 57 218 57 192 62 c 1,11,-1
 172 -6 l 2,12,13
 167 -22 167 -22 151 -18 c 0,14,15
 135 -13 135 -13 140 3 c 2,16,-1
 159 70 l 1,17,18
 139 76 139 76 122 85.5 c 128,-1,19
 105 95 105 95 92 109 c 0,20,21
 75 127 75 127 65.5 145.5 c 128,-1,22
 56 164 56 164 51.5 181.5 c 128,-1,23
 47 199 47 199 46 213.5 c 128,-1,24
 45 228 45 228 45 237 c 0,25,26
 45 270 45 270 57.5 304 c 128,-1,27
 70 338 70 338 96.5 364 c 128,-1,28
 123 390 123 390 163 405 c 128,-1,29
 203 420 203 420 257 415 c 1,30,-1
 276 478 l 2,31,32
 278 485 278 485 285.5 488.5 c 128,-1,33
 293 492 293 492 298 490 c 0,34,35
 304 488 304 488 307.5 482 c 128,-1,36
 311 476 311 476 309 469 c 2,37,-1
 292 411 l 1,38,39
 321 405 321 405 344.5 393 c 128,-1,40
 368 381 368 381 385 361 c 0,41,42
 390 355 390 355 391.5 345.5 c 128,-1,43
 393 336 393 336 387 331 c 0,44,45
 381 325 381 325 371 327 c 128,-1,46
 361 329 361 329 356 336 c 0,47,48
 330 365 330 365 281 374 c 1,49,-1
 201 97 l 1,50,51
 222 93 222 93 245.5 94.5 c 128,-1,52
 269 96 269 96 290.5 101.5 c 128,-1,53
 312 107 312 107 329 117 c 128,-1,54
 346 127 346 127 355 141 c 1,0,1
118 137 m 0,55,56
 129 126 129 126 141.5 118.5 c 128,-1,57
 154 111 154 111 169 106 c 1,58,-1
 247 379 l 1,59,60
 206 384 206 384 175.5 372 c 128,-1,61
 145 360 145 360 124 339 c 128,-1,62
 103 318 103 318 92.5 290.5 c 128,-1,63
 82 263 82 263 82 237 c 0,64,65
 82 232 82 232 83 220.5 c 128,-1,66
 84 209 84 209 87.5 195 c 128,-1,67
 91 181 91 181 98 165.5 c 128,-1,68
 105 150 105 150 118 137 c 0,55,56
EndSplineSet
EndChar
StartChar: sterling
Encoding: 163 163 102
Width: 400
Flags: W
Fore
374 30 m 1,0,1
 351 6 351 6 326 -1.5 c 128,-1,2
 301 -9 301 -9 277.5 -6.5 c 128,-1,3
 254 -4 254 -4 234.5 3 c 128,-1,4
 215 10 215 10 202 15 c 0,5,6
 178 24 178 24 159 24 c 128,-1,7
 140 24 140 24 125.5 20 c 128,-1,8
 111 16 111 16 100.5 9.5 c 128,-1,9
 90 3 90 3 82 -1 c 1,10,-1
 49 44 l 1,11,12
 67 58 67 58 83.5 73.5 c 128,-1,13
 100 89 100 89 112 109 c 0,14,15
 126 131 126 131 130 149.5 c 128,-1,16
 134 168 134 168 132.5 182.5 c 128,-1,17
 131 197 131 197 126.5 208 c 128,-1,18
 122 219 122 219 118 226 c 1,19,-1
 55 226 l 1,20,-1
 43 259 l 1,21,-1
 101 259 l 1,22,23
 89 273 89 273 76.5 299.5 c 128,-1,24
 64 326 64 326 64 354 c 0,25,26
 63 383 63 383 75.5 409.5 c 128,-1,27
 88 436 88 436 110 455.5 c 128,-1,28
 132 475 132 475 162.5 485.5 c 128,-1,29
 193 496 193 496 229 492 c 0,30,31
 275 487 275 487 301 466.5 c 128,-1,32
 327 446 327 446 339.5 421.5 c 128,-1,33
 352 397 352 397 355 374 c 128,-1,34
 358 351 358 351 358 341 c 1,35,-1
 324 341 l 1,36,37
 324 362 324 362 317.5 381.5 c 128,-1,38
 311 401 311 401 298.5 417 c 128,-1,39
 286 433 286 433 267 443.5 c 128,-1,40
 248 454 248 454 221 457 c 0,41,42
 201 459 201 459 177 452.5 c 128,-1,43
 153 446 153 446 134 430.5 c 128,-1,44
 115 415 115 415 105 390.5 c 128,-1,45
 95 366 95 366 103 331 c 0,46,47
 105 320 105 320 115 299.5 c 128,-1,48
 125 279 125 279 142 259 c 1,49,-1
 262 259 l 1,50,-1
 274 226 l 1,51,-1
 156 226 l 1,52,53
 158 218 158 218 161.5 210.5 c 128,-1,54
 165 203 165 203 167 193 c 128,-1,55
 169 183 169 183 169 171 c 128,-1,56
 169 159 169 159 165 142 c 0,57,58
 154 104 154 104 134 81 c 128,-1,59
 114 58 114 58 100 44 c 1,60,61
 117 53 117 53 132 56 c 128,-1,62
 147 59 147 59 163 57.5 c 128,-1,63
 179 56 179 56 197.5 51 c 128,-1,64
 216 46 216 46 240 39 c 0,65,66
 263 31 263 31 278 28.5 c 128,-1,67
 293 26 293 26 304.5 27.5 c 128,-1,68
 316 29 316 29 327 35.5 c 128,-1,69
 338 42 338 42 352 53 c 1,70,-1
 374 30 l 1,0,1
EndSplineSet
EndChar
StartChar: currency
Encoding: 164 164 103
Width: 486
Flags: W
Fore
414 229 m 0,0,1
 414 195 414 195 404.5 169 c 128,-1,2
 395 143 395 143 380 123 c 1,3,-1
 400 103 l 2,4,5
 421 83 421 83 407 68 c 0,6,7
 392 53 392 53 372 75 c 2,8,-1
 351 95 l 1,9,10
 327 77 327 77 298.5 68 c 128,-1,11
 270 59 270 59 243 59 c 0,12,13
 179 59 179 59 136 93 c 1,14,-1
 118 75 l 2,15,16
 97 52 97 52 81 68 c 0,17,18
 68 82 68 82 87 103 c 2,19,-1
 106 122 l 1,20,21
 91 143 91 143 82.5 169 c 128,-1,22
 74 195 74 195 74 225 c 0,23,24
 74 258 74 258 84 285.5 c 128,-1,25
 94 313 94 313 111 334 c 1,26,-1
 87 359 l 2,27,28
 67 378 67 378 81 395 c 1,29,30
 96 408 96 408 118 389 c 2,31,-1
 143 363 l 1,32,33
 165 379 165 379 190.5 387.5 c 128,-1,34
 216 396 216 396 243 396 c 0,35,36
 275 396 275 396 301.5 387.5 c 128,-1,37
 328 379 328 379 348 364 c 1,38,-1
 373 389 l 2,39,40
 393 409 393 409 407 395 c 0,41,42
 422 378 422 378 401 359 c 2,43,-1
 378 336 l 1,44,45
 414 291 414 291 414 229 c 0,0,1
112 226 m 0,46,47
 112 198 112 198 122 174 c 128,-1,48
 132 150 132 150 150 132 c 128,-1,49
 168 114 168 114 192 104 c 128,-1,50
 216 94 216 94 244 94 c 0,51,52
 271 94 271 94 295.5 104 c 128,-1,53
 320 114 320 114 338 132 c 128,-1,54
 356 150 356 150 366.5 174 c 128,-1,55
 377 198 377 198 377 226 c 0,56,57
 377 253 377 253 366.5 277.5 c 128,-1,58
 356 302 356 302 338 320 c 128,-1,59
 320 338 320 338 295.5 348.5 c 128,-1,60
 271 359 271 359 244 359 c 0,61,62
 216 359 216 359 192 348.5 c 128,-1,63
 168 338 168 338 150 320 c 128,-1,64
 132 302 132 302 122 277.5 c 128,-1,65
 112 253 112 253 112 226 c 0,46,47
EndSplineSet
EndChar
StartChar: yen
Encoding: 165 165 104
Width: 400
Flags: W
Fore
363 486 m 256,0,1
 371 481 371 481 373.5 473 c 128,-1,2
 376 465 376 465 371 457 c 2,3,-1
 255 271 l 1,4,-1
 330 271 l 2,5,6
 338 271 338 271 344 265.5 c 128,-1,7
 350 260 350 260 350 252 c 256,8,9
 350 244 350 244 344 238.5 c 128,-1,10
 338 233 338 233 330 233 c 2,11,-1
 230 233 l 1,12,-1
 224 223 l 1,13,-1
 224 173 l 1,14,-1
 330 173 l 2,15,16
 338 173 338 173 344 167.5 c 128,-1,17
 350 162 350 162 350 154 c 256,18,19
 350 146 350 146 344 141 c 128,-1,20
 338 136 338 136 330 136 c 2,21,-1
 224 136 l 1,22,-1
 224 19 l 2,23,24
 224 9 224 9 217.5 2.5 c 128,-1,25
 211 -4 211 -4 202 -4 c 256,26,27
 193 -4 193 -4 187 2.5 c 128,-1,28
 181 9 181 9 181 19 c 2,29,-1
 181 136 l 1,30,-1
 77 136 l 2,31,32
 69 136 69 136 63 141 c 128,-1,33
 57 146 57 146 57 154 c 256,34,35
 57 162 57 162 63 167.5 c 128,-1,36
 69 173 69 173 77 173 c 2,37,-1
 181 173 l 1,38,-1
 181 223 l 1,39,-1
 175 233 l 1,40,-1
 77 233 l 2,41,42
 69 233 69 233 63 238.5 c 128,-1,43
 57 244 57 244 57 252 c 256,44,45
 57 260 57 260 63 265.5 c 128,-1,46
 69 271 69 271 77 271 c 2,47,-1
 149 271 l 1,48,-1
 35 457 l 2,49,50
 30 465 30 465 32 473 c 128,-1,51
 34 481 34 481 42 486 c 256,52,53
 50 491 50 491 59.5 489 c 128,-1,54
 69 487 69 487 74 479 c 2,55,-1
 202 271 l 1,56,-1
 203 271 l 1,57,-1
 332 479 l 2,58,59
 337 487 337 487 346 489 c 128,-1,60
 355 491 355 491 363 486 c 256,0,1
EndSplineSet
EndChar
StartChar: brokenbar
Encoding: 166 166 105
Width: 158
Flags: W
Fore
79 516 m 256,0,1
 97 516 97 516 97 490 c 2,2,-1
 97 256 l 2,3,4
 97 229 97 229 79 229 c 256,5,6
 61 229 61 229 61 256 c 2,7,-1
 61 490 l 2,8,9
 61 516 61 516 79 516 c 256,0,1
79 138 m 256,10,11
 97 138 97 138 97 111 c 2,12,-1
 97 -122 l 2,13,14
 97 -149 97 -149 79 -149 c 256,15,16
 61 -149 61 -149 61 -122 c 2,17,-1
 61 111 l 2,18,19
 61 138 61 138 79 138 c 256,10,11
EndSplineSet
EndChar
StartChar: section
Encoding: 167 167 106
Width: 385
Flags: W
Fore
110 64 m 0,0,1
 109 19 109 19 136.5 -2.5 c 128,-1,2
 164 -24 164 -24 207 -19 c 0,3,4
 229 -17 229 -17 244.5 -3 c 128,-1,5
 260 11 260 11 265.5 30 c 128,-1,6
 271 49 271 49 264.5 69 c 128,-1,7
 258 89 258 89 234 103 c 2,8,-1
 91 185 l 2,9,10
 65 199 65 199 54 223 c 128,-1,11
 43 247 43 247 45.5 272 c 128,-1,12
 48 297 48 297 64 319 c 128,-1,13
 80 341 80 341 110 353 c 1,14,15
 86 372 86 372 80.5 398.5 c 128,-1,16
 75 425 75 425 86.5 449.5 c 128,-1,17
 98 474 98 474 125 491.5 c 128,-1,18
 152 509 152 509 193 509 c 0,19,20
 224 509 224 509 246 499 c 128,-1,21
 268 489 268 489 282.5 473.5 c 128,-1,22
 297 458 297 458 303.5 438 c 128,-1,23
 310 418 310 418 310 399 c 256,24,25
 310 380 310 380 294 380 c 0,26,27
 277 380 277 380 277 399 c 0,28,29
 277 409 277 409 273.5 422.5 c 128,-1,30
 270 436 270 436 261 448 c 128,-1,31
 252 460 252 460 235.5 468.5 c 128,-1,32
 219 477 219 477 192 478 c 0,33,34
 170 479 170 479 151.5 469 c 128,-1,35
 133 459 133 459 123 444 c 128,-1,36
 113 429 113 429 114.5 410 c 128,-1,37
 116 391 116 391 135 374 c 0,38,39
 140 369 140 369 154.5 360 c 128,-1,40
 169 351 169 351 188 340 c 128,-1,41
 207 329 207 329 227 317 c 128,-1,42
 247 305 247 305 264.5 295.5 c 128,-1,43
 282 286 282 286 293.5 279.5 c 128,-1,44
 305 273 305 273 307 272 c 0,45,46
 330 256 330 256 337 232.5 c 128,-1,47
 344 209 344 209 338.5 186 c 128,-1,48
 333 163 333 163 316 142.5 c 128,-1,49
 299 122 299 122 273 112 c 1,50,51
 298 92 298 92 302.5 64.5 c 128,-1,52
 307 37 307 37 296 11.5 c 128,-1,53
 285 -14 285 -14 261 -32.5 c 128,-1,54
 237 -51 237 -51 204 -52 c 0,55,56
 145 -55 145 -55 108.5 -23 c 128,-1,57
 72 9 72 9 72 65 c 0,58,59
 72 76 72 76 78 80.5 c 128,-1,60
 84 85 84 85 93 85 c 0,61,62
 110 85 110 85 110 64 c 0,0,1
129 332 m 1,63,64
 107 324 107 324 94 309.5 c 128,-1,65
 81 295 81 295 78.5 277.5 c 128,-1,66
 76 260 76 260 85 242.5 c 128,-1,67
 94 225 94 225 115 212 c 2,68,-1
 253 133 l 1,69,70
 275 141 275 141 288.5 156 c 128,-1,71
 302 171 302 171 306 188 c 128,-1,72
 310 205 310 205 302.5 222.5 c 128,-1,73
 295 240 295 240 275 252 c 2,74,-1
 129 332 l 1,63,64
EndSplineSet
EndChar
StartChar: dieresis
Encoding: 168 168 107
Width: 216
Flags: W
Fore
142 433 m 256,0,1
 142 447 142 447 150.5 456 c 128,-1,2
 159 465 159 465 173 465 c 256,3,4
 187 465 187 465 196 456 c 128,-1,5
 205 447 205 447 205 433 c 256,6,7
 205 419 205 419 196 410.5 c 128,-1,8
 187 402 187 402 173 402 c 256,9,10
 159 402 159 402 150.5 410.5 c 128,-1,11
 142 419 142 419 142 433 c 256,0,1
10 433 m 256,12,13
 10 447 10 447 18.5 456 c 128,-1,14
 27 465 27 465 41 465 c 256,15,16
 55 465 55 465 64 456 c 128,-1,17
 73 447 73 447 73 433 c 256,18,19
 73 419 73 419 64 410.5 c 128,-1,20
 55 402 55 402 41 402 c 256,21,22
 27 402 27 402 18.5 410.5 c 128,-1,23
 10 419 10 419 10 433 c 256,12,13
EndSplineSet
EndChar
StartChar: copyright
Encoding: 169 169 108
Width: 590
Flags: W
Fore
39 244 m 0,0,1
 39 296 39 296 59 342.5 c 128,-1,2
 79 389 79 389 114 423.5 c 128,-1,3
 149 458 149 458 195 478 c 128,-1,4
 241 498 241 498 294 498 c 0,5,6
 346 498 346 498 392.5 478 c 128,-1,7
 439 458 439 458 474 423.5 c 128,-1,8
 509 389 509 389 529 342.5 c 128,-1,9
 549 296 549 296 549 244 c 0,10,11
 549 191 549 191 529 145 c 128,-1,12
 509 99 509 99 474 64.5 c 128,-1,13
 439 30 439 30 392.5 10 c 128,-1,14
 346 -10 346 -10 294 -10 c 0,15,16
 241 -10 241 -10 195 10 c 128,-1,17
 149 30 149 30 114 64.5 c 128,-1,18
 79 99 79 99 59 145 c 128,-1,19
 39 191 39 191 39 244 c 0,0,1
294 21 m 0,20,21
 340 21 340 21 381 38.5 c 128,-1,22
 422 56 422 56 452.5 86.5 c 128,-1,23
 483 117 483 117 500.5 157.5 c 128,-1,24
 518 198 518 198 518 244 c 256,25,26
 518 290 518 290 500.5 331 c 128,-1,27
 483 372 483 372 452.5 403 c 128,-1,28
 422 434 422 434 381 451.5 c 128,-1,29
 340 469 340 469 294 469 c 0,30,31
 247 469 247 469 206.5 451.5 c 128,-1,32
 166 434 166 434 135 403 c 128,-1,33
 104 372 104 372 86.5 331 c 128,-1,34
 69 290 69 290 69 244 c 256,35,36
 69 198 69 198 86.5 157.5 c 128,-1,37
 104 117 104 117 135 86.5 c 128,-1,38
 166 56 166 56 206.5 38.5 c 128,-1,39
 247 21 247 21 294 21 c 0,20,21
400 157 m 0,40,41
 404 162 404 162 410.5 162.5 c 128,-1,42
 417 163 417 163 422 158 c 256,43,44
 427 153 427 153 427.5 146 c 128,-1,45
 428 139 428 139 423 134 c 0,46,47
 382 84 382 84 293 84 c 0,48,49
 260 84 260 84 229.5 94 c 128,-1,50
 199 104 199 104 175.5 124.5 c 128,-1,51
 152 145 152 145 138 174.5 c 128,-1,52
 124 204 124 204 124 243 c 0,53,54
 124 270 124 270 134 298 c 128,-1,55
 144 326 144 326 164.5 348.5 c 128,-1,56
 185 371 185 371 217 385.5 c 128,-1,57
 249 400 249 400 293 400 c 0,58,59
 382 400 382 400 424 352 c 0,60,61
 429 347 429 347 428.5 340 c 128,-1,62
 428 333 428 333 423 328 c 256,63,64
 418 323 418 323 411.5 323.5 c 128,-1,65
 405 324 405 324 400 329 c 0,66,67
 367 367 367 367 293 367 c 0,68,69
 233 367 233 367 196 335.5 c 128,-1,70
 159 304 159 304 159 243 c 0,71,72
 159 180 159 180 194.5 150 c 128,-1,73
 230 120 230 120 293 120 c 0,74,75
 367 120 367 120 400 157 c 0,40,41
EndSplineSet
EndChar
StartChar: ordfeminine
Encoding: 170 170 109
Width: 257
Flags: W
Fore
121 206 m 0,0,1
 102 206 102 206 84.5 210.5 c 128,-1,2
 67 215 67 215 53.5 224.5 c 128,-1,3
 40 234 40 234 32 248.5 c 128,-1,4
 24 263 24 263 24 283 c 0,5,6
 24 318 24 318 52.5 338.5 c 128,-1,7
 81 359 81 359 126 359 c 0,8,9
 161 359 161 359 177.5 348.5 c 128,-1,10
 194 338 194 338 202 330 c 1,11,12
 201 365 201 365 181 380.5 c 128,-1,13
 161 396 161 396 123 396 c 0,14,15
 103 396 103 396 88.5 391.5 c 128,-1,16
 74 387 74 387 60 379 c 0,17,18
 50 374 50 374 46 376 c 128,-1,19
 42 378 42 378 40 380 c 0,20,21
 33 385 33 385 36 392 c 128,-1,22
 39 399 39 399 44 402 c 0,23,24
 78 424 78 424 124 424 c 0,25,26
 176 424 176 424 202 401 c 128,-1,27
 228 378 228 378 228 327 c 2,28,-1
 228 224 l 2,29,30
 228 209 228 209 213 209 c 0,31,32
 208 209 208 209 204.5 213.5 c 128,-1,33
 201 218 201 218 202 224 c 1,34,-1
 202 234 l 1,35,36
 187 220 187 220 166 213 c 128,-1,37
 145 206 145 206 121 206 c 0,0,1
125 329 m 0,38,39
 112 329 112 329 99 326 c 128,-1,40
 86 323 86 323 75.5 317 c 128,-1,41
 65 311 65 311 58.5 302 c 128,-1,42
 52 293 52 293 52 281 c 0,43,44
 52 258 52 258 71.5 246 c 128,-1,45
 91 234 91 234 123 234 c 0,46,47
 148 234 148 234 163 240 c 128,-1,48
 178 246 178 246 185.5 254 c 128,-1,49
 193 262 193 262 195.5 269.5 c 128,-1,50
 198 277 198 277 198 281 c 0,51,52
 198 296 198 296 191 305 c 128,-1,53
 184 314 184 314 173 319.5 c 128,-1,54
 162 325 162 325 149 327 c 128,-1,55
 136 329 136 329 125 329 c 0,38,39
EndSplineSet
EndChar
StartChar: guillemotleft
Encoding: 171 171 110
Width: 300
Flags: W
Fore
114 327 m 2,0,1
 118 333 118 333 124.5 334.5 c 128,-1,2
 131 336 131 336 137 333 c 0,3,4
 143 329 143 329 145 322 c 128,-1,5
 147 315 147 315 143 309 c 2,6,-1
 64 187 l 1,7,-1
 143 65 l 2,8,9
 147 59 147 59 145 52 c 128,-1,10
 143 45 143 45 137 42 c 0,11,12
 123 33 123 33 114 47 c 2,13,-1
 28 187 l 1,14,-1
 114 327 l 2,0,1
226 327 m 2,15,16
 230 333 230 333 236.5 334.5 c 128,-1,17
 243 336 243 336 249 333 c 0,18,19
 255 329 255 329 257 322 c 128,-1,20
 259 315 259 315 255 309 c 2,21,-1
 176 187 l 1,22,-1
 255 65 l 2,23,24
 259 59 259 59 257 52 c 128,-1,25
 255 45 255 45 249 42 c 0,26,27
 235 33 235 33 226 47 c 2,28,-1
 140 187 l 1,29,-1
 226 327 l 2,15,16
EndSplineSet
EndChar
StartChar: logicalnot
Encoding: 172 172 111
Width: 512
Flags: W
Fore
48 283 m 2,0,-1
 472 283 l 1,1,-1
 472 84 l 2,2,3
 472 76 472 76 466 70 c 128,-1,4
 460 64 460 64 452 64 c 0,5,6
 443 64 443 64 437.5 70 c 128,-1,7
 432 76 432 76 432 84 c 2,8,-1
 432 243 l 1,9,-1
 48 243 l 2,10,11
 40 243 40 243 34 248.5 c 128,-1,12
 28 254 28 254 28 262 c 0,13,14
 28 271 28 271 34 277 c 128,-1,15
 40 283 40 283 48 283 c 2,0,-1
EndSplineSet
EndChar
StartChar: registered
Encoding: 174 174 112
Width: 572
Flags: W
Fore
541 244 m 256,0,1
 541 191 541 191 521 145 c 128,-1,2
 501 99 501 99 466.5 64.5 c 128,-1,3
 432 30 432 30 385.5 10 c 128,-1,4
 339 -10 339 -10 287 -10 c 0,5,6
 234 -10 234 -10 187.5 10 c 128,-1,7
 141 30 141 30 106.5 64.5 c 128,-1,8
 72 99 72 99 52 145 c 128,-1,9
 32 191 32 191 32 244 c 256,10,11
 32 297 32 297 52 343.5 c 128,-1,12
 72 390 72 390 106.5 424.5 c 128,-1,13
 141 459 141 459 187.5 479 c 128,-1,14
 234 499 234 499 287 499 c 0,15,16
 339 499 339 499 385.5 479 c 128,-1,17
 432 459 432 459 466.5 424.5 c 128,-1,18
 501 390 501 390 521 343.5 c 128,-1,19
 541 297 541 297 541 244 c 256,0,1
512 244 m 256,20,21
 512 291 512 291 494.5 332 c 128,-1,22
 477 373 477 373 446 403.5 c 128,-1,23
 415 434 415 434 374 451.5 c 128,-1,24
 333 469 333 469 287 469 c 0,25,26
 240 469 240 469 199 451.5 c 128,-1,27
 158 434 158 434 127.5 403.5 c 128,-1,28
 97 373 97 373 79.5 332 c 128,-1,29
 62 291 62 291 62 244 c 256,30,31
 62 197 62 197 79.5 156.5 c 128,-1,32
 97 116 97 116 127.5 85 c 128,-1,33
 158 54 158 54 199 36.5 c 128,-1,34
 240 19 240 19 287 19 c 0,35,36
 333 19 333 19 374 36.5 c 128,-1,37
 415 54 415 54 446 85 c 128,-1,38
 477 116 477 116 494.5 156.5 c 128,-1,39
 512 197 512 197 512 244 c 256,20,21
292 210 m 1,40,41
 309 206 309 206 327.5 191 c 128,-1,42
 346 176 346 176 362 159 c 128,-1,43
 378 142 378 142 389.5 126 c 128,-1,44
 401 110 401 110 404 103 c 1,45,46
 406 95 406 95 397 90 c 1,47,48
 387 82 387 82 378 94 c 0,49,50
 355 126 355 126 331.5 149.5 c 128,-1,51
 308 173 308 173 288 188.5 c 128,-1,52
 268 204 268 204 253 213 c 128,-1,53
 238 222 238 222 232 225 c 1,54,55
 223 227 223 227 219.5 233 c 128,-1,56
 216 239 216 239 221 246 c 0,57,58
 224 251 224 251 230.5 251.5 c 128,-1,59
 237 252 237 252 241 250 c 0,60,61
 268 239 268 239 295 236 c 128,-1,62
 322 233 322 233 343.5 238 c 128,-1,63
 365 243 365 243 378 258 c 128,-1,64
 391 273 391 273 391 300 c 0,65,66
 391 341 391 341 363.5 362 c 128,-1,67
 336 383 336 383 291 383 c 0,68,69
 241 383 241 383 212 361 c 128,-1,70
 183 339 183 339 183 296 c 2,71,-1
 183 105 l 2,72,73
 183 90 183 90 169 90 c 0,74,75
 154 90 154 90 154 105 c 2,76,-1
 154 300 l 2,77,78
 154 331 154 331 166 352.5 c 128,-1,79
 178 374 178 374 197 387 c 128,-1,80
 216 400 216 400 240.5 405.5 c 128,-1,81
 265 411 265 411 291 411 c 0,82,83
 312 411 312 411 335 405.5 c 128,-1,84
 358 400 358 400 377 387.5 c 128,-1,85
 396 375 396 375 408.5 353.5 c 128,-1,86
 421 332 421 332 421 301 c 0,87,88
 421 275 421 275 411 256 c 128,-1,89
 401 237 401 237 383.5 225.5 c 128,-1,90
 366 214 366 214 342.5 210 c 128,-1,91
 319 206 319 206 292 210 c 1,40,41
EndSplineSet
EndChar
StartChar: macron
Encoding: 175 175 113
Width: 216
Flags: W
Fore
28 422 m 1,0,-1
 28 454 l 1,1,-1
 187 454 l 1,2,-1
 187 422 l 1,3,-1
 28 422 l 1,0,-1
EndSplineSet
EndChar
StartChar: degree
Encoding: 176 176 114
Width: 216
Flags: W
Fore
110 499 m 256,0,1
 128 499 128 499 144 491.5 c 128,-1,2
 160 484 160 484 172.5 471.5 c 128,-1,3
 185 459 185 459 192 442.5 c 128,-1,4
 199 426 199 426 199 408 c 256,5,6
 199 390 199 390 192 373.5 c 128,-1,7
 185 357 185 357 172.5 345 c 128,-1,8
 160 333 160 333 144 326 c 128,-1,9
 128 319 128 319 110 319 c 0,10,11
 73 319 73 319 46.5 345 c 128,-1,12
 20 371 20 371 20 408 c 0,13,14
 20 426 20 426 27 442.5 c 128,-1,15
 34 459 34 459 46.5 471.5 c 128,-1,16
 59 484 59 484 75.5 491.5 c 128,-1,17
 92 499 92 499 110 499 c 256,0,1
110 352 m 256,18,19
 133 352 133 352 149.5 368.5 c 128,-1,20
 166 385 166 385 166 408 c 256,21,22
 166 431 166 431 149.5 447.5 c 128,-1,23
 133 464 133 464 110 464 c 256,24,25
 87 464 87 464 70 447.5 c 128,-1,26
 53 431 53 431 54 408 c 0,27,28
 54 385 54 385 70.5 368.5 c 128,-1,29
 87 352 87 352 110 352 c 256,18,19
EndSplineSet
EndChar
StartChar: plusminus
Encoding: 177 177 115
Width: 429
Flags: W
Fore
91 188 m 2,0,1
 65 188 65 188 65 207 c 0,2,3
 65 227 65 227 91 227 c 2,4,-1
 196 227 l 1,5,-1
 196 320 l 2,6,7
 196 346 196 346 216 346 c 0,8,9
 235 346 235 346 235 320 c 2,10,-1
 235 227 l 1,11,-1
 339 227 l 2,12,13
 366 227 366 227 366 207 c 0,14,15
 366 188 366 188 339 188 c 2,16,-1
 235 188 l 1,17,-1
 235 99 l 2,18,19
 235 72 235 72 216 72 c 0,20,21
 196 72 196 72 196 99 c 2,22,-1
 196 188 l 1,23,-1
 91 188 l 2,0,1
339 38 m 2,24,25
 365 38 365 38 365 19 c 256,26,27
 365 0 365 0 339 0 c 2,28,-1
 94 0 l 2,29,30
 67 0 67 0 67 19 c 256,31,32
 67 38 67 38 94 38 c 2,33,-1
 339 38 l 2,24,25
EndSplineSet
EndChar
StartChar: twosuperior
Encoding: 178 178 116
Width: 308
Flags: W
Fore
264 208 m 1,0,1
 264 200 264 200 258.5 195 c 128,-1,2
 253 190 253 190 244 190 c 2,3,-1
 61 190 l 2,4,5
 47 190 47 190 42.5 202 c 128,-1,6
 38 214 38 214 49 225 c 2,7,-1
 68 240 l 2,8,9
 82 251 82 251 112.5 275.5 c 128,-1,10
 143 300 143 300 199 347 c 0,11,12
 215 361 215 361 218.5 377.5 c 128,-1,13
 222 394 222 394 215.5 408.5 c 128,-1,14
 209 423 209 423 194 433 c 128,-1,15
 179 443 179 443 159 443 c 0,16,17
 136 443 136 443 121.5 438 c 128,-1,18
 107 433 107 433 99 424.5 c 128,-1,19
 91 416 91 416 88 404.5 c 128,-1,20
 85 393 85 393 84 380 c 0,21,22
 84 372 84 372 78 368 c 128,-1,23
 72 364 72 364 65 364 c 256,24,25
 58 364 58 364 52 370 c 128,-1,26
 46 376 46 376 46 383 c 0,27,28
 55 479 55 479 159 479 c 0,29,30
 191 479 191 479 215 462.5 c 128,-1,31
 239 446 239 446 249.5 421.5 c 128,-1,32
 260 397 260 397 254.5 369.5 c 128,-1,33
 249 342 249 342 222 320 c 2,34,35
 208.5 308.5 l 130,-1,36
 195 297 195 297 176.5 282 c 128,-1,37
 158 267 158 267 139 251 c 128,-1,38
 120 235 120 235 108 225 c 1,39,-1
 244 225 l 2,40,41
 253 225 253 225 258 220 c 1,42,-1
 264 208 l 1,0,1
EndSplineSet
EndChar
StartChar: threesuperior
Encoding: 179 179 117
Width: 300
Flags: W
Fore
252 274 m 0,0,1
 252 256 252 256 243.5 240.5 c 128,-1,2
 235 225 235 225 221 213.5 c 128,-1,3
 207 202 207 202 190 196 c 128,-1,4
 173 190 173 190 155 190 c 0,5,6
 141 190 141 190 123 195.5 c 128,-1,7
 105 201 105 201 89.5 212 c 128,-1,8
 74 223 74 223 63.5 240 c 128,-1,9
 53 257 53 257 53 280 c 0,10,11
 53 288 53 288 57.5 293.5 c 128,-1,12
 62 299 62 299 70 299 c 0,13,14
 88 299 88 299 88 280 c 0,15,16
 88 251 88 251 109.5 239 c 128,-1,17
 131 227 131 227 155 227 c 0,18,19
 177 227 177 227 195.5 239 c 128,-1,20
 214 251 214 251 214 274 c 0,21,22
 214 292 214 292 209 303 c 128,-1,23
 204 314 204 314 197.5 320 c 128,-1,24
 191 326 191 326 185 328 c 128,-1,25
 179 330 179 330 177 330 c 2,26,-1
 130 330 l 2,27,28
 123 330 123 330 117.5 335 c 128,-1,29
 112 340 112 340 112 348 c 256,30,31
 112 356 112 356 117 361.5 c 128,-1,32
 122 367 122 367 130 367 c 2,33,-1
 181 367 l 1,34,35
 194 369 194 369 200 382 c 128,-1,36
 206 395 206 395 204 408 c 0,37,38
 202 422 202 422 188.5 433.5 c 128,-1,39
 175 445 175 445 153 445 c 0,40,41
 125 445 125 445 107.5 434.5 c 128,-1,42
 90 424 90 424 90 403 c 0,43,44
 90 395 90 395 85 390 c 128,-1,45
 80 385 80 385 72 385 c 0,46,47
 65 385 65 385 60 390.5 c 128,-1,48
 55 396 55 396 55 403 c 0,49,50
 55 440 55 440 81.5 460.5 c 128,-1,51
 108 481 108 481 153 481 c 0,52,53
 188 481 188 481 211.5 461.5 c 128,-1,54
 235 442 235 442 239 416 c 0,55,56
 242 397 242 397 234.5 378 c 128,-1,57
 227 359 227 359 211 348 c 1,58,59
 228 340 228 340 240 322.5 c 128,-1,60
 252 305 252 305 252 274 c 0,0,1
EndSplineSet
EndChar
StartChar: acute
Encoding: 180 180 118
Width: 216
Flags: W
Fore
112 386 m 1,0,-1
 81 386 l 1,1,-1
 148 490 l 1,2,-1
 207 490 l 1,3,-1
 112 386 l 1,0,-1
EndSplineSet
EndChar
StartChar: mu
Encoding: 181 181 119
Width: 477
Flags: W
Fore
86 73 m 1,0,1
 86 59 86 59 87 33 c 128,-1,2
 88 7 88 7 90 -21.5 c 128,-1,3
 92 -50 92 -50 94 -78 c 128,-1,4
 96 -106 96 -106 99 -125 c 0,5,6
 100 -137 100 -137 101 -148.5 c 128,-1,7
 102 -160 102 -160 100 -170 c 128,-1,8
 98 -180 98 -180 92.5 -186 c 128,-1,9
 87 -192 87 -192 77 -192 c 0,10,11
 59 -192 59 -192 53.5 -174 c 128,-1,12
 48 -156 48 -156 52 -125 c 0,13,14
 53 -102 53 -102 54 -76 c 0,15,16
 55 -53 55 -53 56 -23 c 128,-1,17
 57 7 57 7 57 41 c 2,18,-1
 57 338 l 2,19,20
 57 346 57 346 62.5 351.5 c 128,-1,21
 68 357 68 357 76 357 c 256,22,23
 84 357 84 357 89.5 351.5 c 128,-1,24
 95 346 95 346 95 338 c 2,25,-1
 95 165 l 2,26,27
 95 105 95 105 133 69.5 c 128,-1,28
 171 34 171 34 236 34 c 0,29,30
 378 34 378 34 378 175 c 2,31,-1
 378 338 l 2,32,33
 378 357 378 357 397 357 c 0,34,35
 405 357 405 357 410 351.5 c 128,-1,36
 415 346 415 346 415 338 c 2,37,-1
 415 15 l 2,38,39
 415 -4 415 -4 397 -4 c 0,40,41
 389 -4 389 -4 384 1.5 c 128,-1,42
 379 7 379 7 379 15 c 2,43,-1
 379 63 l 1,44,45
 357 31 357 31 322 13 c 128,-1,46
 287 -5 287 -5 236 -5 c 0,47,48
 184 -5 184 -5 145 13 c 128,-1,49
 106 31 106 31 86 73 c 1,0,1
EndSplineSet
EndChar
StartChar: paragraph
Encoding: 182 182 120
Width: 400
Flags: W
Fore
320 469 m 0,0,1
 325 464 325 464 330 451.5 c 128,-1,2
 335 439 335 439 335 424 c 2,3,-1
 335 -142 l 2,4,5
 335 -150 335 -150 329 -155.5 c 128,-1,6
 323 -161 323 -161 315 -161 c 256,7,8
 307 -161 307 -161 301.5 -155.5 c 128,-1,9
 296 -150 296 -150 296 -142 c 2,10,-1
 296 424 l 2,11,12
 296 445 296 445 275 445 c 2,13,-1
 227 445 l 1,14,-1
 227 -137 l 2,15,16
 227 -145 227 -145 221.5 -150.5 c 128,-1,17
 216 -156 216 -156 208 -156 c 0,18,19
 189 -156 189 -156 189 -137 c 2,20,-1
 189 214 l 1,21,22
 159 213 159 213 133.5 223 c 128,-1,23
 108 233 108 233 89.5 251 c 128,-1,24
 71 269 71 269 60 293.5 c 128,-1,25
 49 318 49 318 49 347 c 256,26,27
 49 376 49 376 59.5 401 c 128,-1,28
 70 426 70 426 88.5 445 c 128,-1,29
 107 464 107 464 132 474.5 c 128,-1,30
 157 485 157 485 186 485 c 2,31,-1
 275 485 l 2,32,33
 276 485 276 485 280.5 485 c 128,-1,34
 285 485 285 485 292 483.5 c 128,-1,35
 299 482 299 482 306.5 478.5 c 128,-1,36
 314 475 314 475 320 469 c 0,0,1
EndSplineSet
EndChar
StartChar: periodcentered
Encoding: 183 183 121
Width: 230
Flags: W
Fore
180 236 m 256,0,1
 180 209 180 209 161 190.5 c 128,-1,2
 142 172 142 172 115 172 c 0,3,4
 89 172 89 172 69.5 190.5 c 128,-1,5
 50 209 50 209 50 236 c 256,6,7
 50 263 50 263 69.5 282 c 128,-1,8
 89 301 89 301 115 301 c 0,9,10
 142 301 142 301 161 282 c 128,-1,11
 180 263 180 263 180 236 c 256,0,1
EndSplineSet
EndChar
StartChar: cedilla
Encoding: 184 184 122
Width: 216
Flags: W
Fore
171 -83 m 0,0,1
 171 -107 171 -107 156 -121 c 128,-1,2
 141 -135 141 -135 120 -140 c 128,-1,3
 99 -145 99 -145 75.5 -142 c 128,-1,4
 52 -139 52 -139 35 -128 c 1,5,-1
 55 -103 l 1,6,7
 63 -109 63 -109 75.5 -112 c 128,-1,8
 88 -115 88 -115 100 -114 c 128,-1,9
 112 -113 112 -113 121 -107 c 128,-1,10
 130 -101 130 -101 130 -88 c 0,11,12
 130 -71 130 -71 112.5 -61.5 c 128,-1,13
 95 -52 95 -52 71 -54 c 1,14,-1
 110 4 l 1,15,-1
 147 4 l 1,16,-1
 116 -35 l 1,17,18
 136 -39 136 -39 153.5 -51 c 128,-1,19
 171 -63 171 -63 171 -83 c 0,0,1
EndSplineSet
EndChar
StartChar: onesuperior
Encoding: 185 185 123
Width: 233
Flags: W
Fore
148 210 m 2,0,1
 148 202 148 202 143 196.5 c 128,-1,2
 138 191 138 191 130 191 c 256,3,4
 122 191 122 191 117 196.5 c 128,-1,5
 112 202 112 202 112 210 c 2,6,-1
 112 434 l 1,7,-1
 62 416 l 2,8,9
 55 413 55 413 48 416 c 128,-1,10
 41 419 41 419 39 426 c 0,11,12
 36 434 36 434 39 439.5 c 128,-1,13
 42 445 42 445 49 449 c 1,14,-1
 124 478 l 2,15,16
 132 480 132 480 136 478.5 c 128,-1,17
 140 477 140 477 142 475 c 0,18,19
 147 470 147 470 147.5 463 c 128,-1,20
 148 456 148 456 148 454 c 2,21,-1
 148 210 l 2,0,1
EndSplineSet
EndChar
StartChar: ordmasculine
Encoding: 186 186 124
Width: 268
Flags: W
Fore
255 308 m 0,0,1
 255 276 255 276 243.5 253 c 128,-1,2
 232 230 232 230 214 215.5 c 128,-1,3
 196 201 196 201 174.5 194 c 128,-1,4
 153 187 153 187 133 187 c 0,5,6
 107 187 107 187 85 196 c 128,-1,7
 63 205 63 205 47 220.5 c 128,-1,8
 31 236 31 236 22 257.5 c 128,-1,9
 13 279 13 279 13 304 c 0,10,11
 13 332 13 332 23.5 355 c 128,-1,12
 34 378 34 378 50.5 393.5 c 128,-1,13
 67 409 67 409 88.5 417.5 c 128,-1,14
 110 426 110 426 133 426 c 0,15,16
 161 426 161 426 184 416.5 c 128,-1,17
 207 407 207 407 222.5 391 c 128,-1,18
 238 375 238 375 246.5 353.5 c 128,-1,19
 255 332 255 332 255 308 c 0,0,1
222 306 m 0,20,21
 222 321 222 321 217 337 c 128,-1,22
 212 353 212 353 201 366 c 128,-1,23
 190 379 190 379 173.5 387.5 c 128,-1,24
 157 396 157 396 134 396 c 0,25,26
 112 396 112 396 96 388 c 128,-1,27
 80 380 80 380 69 367.5 c 128,-1,28
 58 355 58 355 52.5 338.5 c 128,-1,29
 47 322 47 322 47 305 c 0,30,31
 47 283 47 283 55 266.5 c 128,-1,32
 63 250 63 250 75.5 239 c 128,-1,33
 88 228 88 228 103.5 222.5 c 128,-1,34
 119 217 119 217 134 217 c 0,35,36
 167 217 167 217 194.5 239 c 128,-1,37
 222 261 222 261 222 306 c 0,20,21
EndSplineSet
EndChar
StartChar: guillemotright
Encoding: 187 187 125
Width: 300
Flags: W
Fore
273 187 m 1,0,-1
 187 47 l 2,1,2
 178 33 178 33 164 42 c 0,3,4
 158 45 158 45 156 52 c 128,-1,5
 154 59 154 59 158 65 c 2,6,-1
 237 187 l 1,7,-1
 158 309 l 2,8,9
 154 315 154 315 156 322 c 128,-1,10
 158 329 158 329 164 333 c 0,11,12
 170 336 170 336 176.5 334.5 c 128,-1,13
 183 333 183 333 187 327 c 2,14,-1
 273 187 l 1,0,-1
161 187 m 1,15,-1
 75 47 l 2,16,17
 66 33 66 33 52 42 c 0,18,19
 46 45 46 45 44 52 c 128,-1,20
 42 59 42 59 46 65 c 2,21,-1
 125 187 l 1,22,-1
 46 309 l 2,23,24
 42 315 42 315 44 322 c 128,-1,25
 46 329 46 329 52 333 c 0,26,27
 58 336 58 336 64.5 334.5 c 128,-1,28
 71 333 71 333 75 327 c 2,29,-1
 161 187 l 1,15,-1
EndSplineSet
EndChar
StartChar: onequarter
Encoding: 188 188 126
Width: 604
Flags: W
Fore
428 477 m 1,0,-1
 465 477 l 1,1,-1
 161 -11 l 1,2,-1
 124 -11 l 1,3,-1
 428 477 l 1,0,-1
148 210 m 2,4,5
 148 202 148 202 143 196.5 c 128,-1,6
 138 191 138 191 130 191 c 256,7,8
 122 191 122 191 117 196.5 c 128,-1,9
 112 202 112 202 112 210 c 2,10,-1
 112 434 l 1,11,-1
 62 416 l 2,12,13
 55 413 55 413 48 416 c 128,-1,14
 41 419 41 419 39 426 c 0,15,16
 36 434 36 434 39 439.5 c 128,-1,17
 42 445 42 445 49 449 c 1,18,-1
 124 478 l 2,19,20
 132 480 132 480 136 478.5 c 128,-1,21
 140 477 140 477 142 475 c 0,22,23
 147 470 147 470 147.5 463 c 128,-1,24
 148 456 148 456 148 454 c 2,25,-1
 148 210 l 2,4,5
575 74 m 0,26,27
 575 66 575 66 570 61 c 128,-1,28
 565 56 565 56 557 56 c 2,29,-1
 538 56 l 1,30,-1
 538 17 l 2,31,32
 538 9 538 9 533 4 c 128,-1,33
 528 -1 528 -1 520 -1 c 0,34,35
 500 -1 500 -1 500 17 c 2,36,-1
 500 56 l 1,37,-1
 347 56 l 1,38,39
 341 55 341 55 337 58 c 128,-1,40
 333 61 333 61 330.5 66 c 128,-1,41
 328 71 328 71 328.5 76 c 128,-1,42
 329 81 329 81 333 85 c 2,43,-1
 506 284 l 1,44,45
 516 292 516 292 527 288 c 128,-1,46
 538 284 538 284 538 270 c 2,47,-1
 538 91 l 1,48,-1
 557 91 l 2,49,50
 561 91 561 91 568 88.5 c 128,-1,51
 575 86 575 86 575 74 c 0,26,27
500 91 m 1,52,-1
 500 224 l 1,53,-1
 386 91 l 1,54,-1
 500 91 l 1,52,-1
EndSplineSet
Ligature: 0 0 'frac' one fraction four
Ligature: 0 0 'frac' one slash four
EndChar
StartChar: onehalf
Encoding: 189 189 127
Width: 603
Flags: W
Fore
397 480 m 1,0,-1
 435 480 l 1,1,-1
 132 -8 l 1,2,-1
 95 -8 l 1,3,-1
 397 480 l 1,0,-1
110 213 m 2,4,-1
 110 437 l 1,5,-1
 60 419 l 2,6,7
 52 416 52 416 45 419 c 128,-1,8
 38 422 38 422 36 429 c 0,9,10
 33 437 33 437 36 442.5 c 128,-1,11
 39 448 39 448 46 452 c 1,12,-1
 121 481 l 1,13,14
 135 483 135 483 140 478 c 256,15,16
 145 473 145 473 145.5 466 c 128,-1,17
 146 459 146 459 146 457 c 2,18,-1
 146 213 l 2,19,20
 146 205 146 205 141 199.5 c 128,-1,21
 136 194 136 194 128 194 c 256,22,23
 120 194 120 194 115 199.5 c 128,-1,24
 110 205 110 205 110 213 c 2,4,-1
577 18 m 0,25,26
 577 10 577 10 571.5 5 c 128,-1,27
 566 0 566 0 557 0 c 2,28,-1
 374 0 l 2,29,30
 360 0 360 0 355.5 12 c 128,-1,31
 351 24 351 24 362 35 c 2,32,-1
 381 50 l 2,33,34
 395 61 395 61 425.5 85.5 c 128,-1,35
 456 110 456 110 512 157 c 0,36,37
 528 171 528 171 531.5 187.5 c 128,-1,38
 535 204 535 204 528.5 218.5 c 128,-1,39
 522 233 522 233 507 243 c 128,-1,40
 492 253 492 253 472 253 c 0,41,42
 449 253 449 253 434.5 248 c 128,-1,43
 420 243 420 243 412 234.5 c 128,-1,44
 404 226 404 226 401 214.5 c 128,-1,45
 398 203 398 203 397 190 c 0,46,47
 397 182 397 182 391 178 c 128,-1,48
 385 174 385 174 378 174 c 256,49,50
 371 174 371 174 365 180 c 128,-1,51
 359 186 359 186 359 193 c 0,52,53
 368 289 368 289 472 289 c 0,54,55
 504 289 504 289 528 272.5 c 128,-1,56
 552 256 552 256 562.5 231.5 c 128,-1,57
 573 207 573 207 567.5 179.5 c 128,-1,58
 562 152 562 152 535 130 c 2,59,60
 521.5 118.5 l 130,-1,61
 508 107 508 107 489.5 92 c 128,-1,62
 471 77 471 77 452 61 c 128,-1,63
 433 45 433 45 421 35 c 1,64,-1
 557 35 l 2,65,66
 561 35 561 35 569 33 c 128,-1,67
 577 31 577 31 577 18 c 0,25,26
EndSplineSet
Ligature: 0 0 'frac' one fraction two
Ligature: 0 0 'frac' one slash two
EndChar
StartChar: threequarters
Encoding: 190 190 128
Width: 602
Flags: W
Fore
451 485 m 1,0,-1
 488 485 l 1,1,-1
 185 -3 l 1,2,-1
 148 -3 l 1,3,-1
 451 485 l 1,0,-1
227 276 m 0,4,5
 227 258 227 258 218.5 242.5 c 128,-1,6
 210 227 210 227 196 215.5 c 128,-1,7
 182 204 182 204 165 198 c 128,-1,8
 148 192 148 192 130 192 c 0,9,10
 116 192 116 192 98 197.5 c 128,-1,11
 80 203 80 203 64.5 214 c 128,-1,12
 49 225 49 225 38.5 242 c 128,-1,13
 28 259 28 259 28 282 c 0,14,15
 28 290 28 290 32.5 295.5 c 128,-1,16
 37 301 37 301 45 301 c 0,17,18
 63 301 63 301 63 282 c 0,19,20
 63 253 63 253 84.5 241 c 128,-1,21
 106 229 106 229 130 229 c 0,22,23
 152 229 152 229 170.5 241 c 128,-1,24
 189 253 189 253 189 276 c 0,25,26
 189 294 189 294 184 305 c 128,-1,27
 179 316 179 316 172.5 322 c 128,-1,28
 166 328 166 328 160 330 c 128,-1,29
 154 332 154 332 152 332 c 1,30,-1
 153 332 l 1,31,-1
 105 332 l 2,32,33
 98 332 98 332 92.5 337 c 128,-1,34
 87 342 87 342 87 350 c 256,35,36
 87 358 87 358 92 363.5 c 128,-1,37
 97 369 97 369 105 369 c 2,38,-1
 156 369 l 1,39,40
 169 371 169 371 175 384 c 128,-1,41
 181 397 181 397 179 410 c 0,42,43
 177 424 177 424 164.5 435.5 c 128,-1,44
 152 447 152 447 130 447 c 0,45,46
 102 447 102 447 83.5 436.5 c 128,-1,47
 65 426 65 426 65 405 c 0,48,49
 65 397 65 397 60 392 c 128,-1,50
 55 387 55 387 47 387 c 0,51,52
 40 387 40 387 35 392.5 c 128,-1,53
 30 398 30 398 30 405 c 0,54,55
 30 442 30 442 57.5 462.5 c 128,-1,56
 85 483 85 483 130 483 c 0,57,58
 165 483 165 483 187 462.5 c 128,-1,59
 209 442 209 442 214 418 c 0,60,61
 218 399 218 399 210 380 c 128,-1,62
 202 361 202 361 186 350 c 1,63,64
 200 342 200 342 213.5 324.5 c 128,-1,65
 227 307 227 307 227 276 c 0,4,5
572 75 m 0,66,67
 572 67 572 67 567 62.5 c 128,-1,68
 562 58 562 58 554 58 c 2,69,-1
 535 58 l 1,70,-1
 535 19 l 2,71,72
 535 11 535 11 529 6 c 128,-1,73
 523 1 523 1 515 1 c 256,74,75
 507 1 507 1 502 6.5 c 128,-1,76
 497 12 497 12 497 19 c 2,77,-1
 497 58 l 1,78,-1
 344 58 l 2,79,80
 338 58 338 58 333.5 61 c 128,-1,81
 329 64 329 64 327 68.5 c 128,-1,82
 325 73 325 73 325.5 78 c 128,-1,83
 326 83 326 83 330 87 c 2,84,-1
 503 286 l 1,85,86
 513 294 513 294 524 289.5 c 128,-1,87
 535 285 535 285 535 272 c 2,88,-1
 535 93 l 1,89,-1
 554 93 l 2,90,91
 558 93 558 93 565 90.5 c 128,-1,92
 572 88 572 88 572 75 c 0,66,67
497 93 m 1,93,-1
 497 226 l 1,94,-1
 383 93 l 1,95,-1
 497 93 l 1,93,-1
EndSplineSet
Ligature: 0 0 'frac' three fraction four
Ligature: 0 0 'frac' three slash four
EndChar
StartChar: questiondown
Encoding: 191 191 129
Width: 418
Flags: W
Fore
50 -11 m 256,0,1
 50 25 50 25 66 54.5 c 128,-1,2
 82 84 82 84 111 101 c 0,3,4
 129 111 129 111 141.5 115.5 c 128,-1,5
 154 120 154 120 164 123 c 128,-1,6
 174 126 174 126 184 129.5 c 128,-1,7
 194 133 194 133 206 141 c 0,8,9
 222 152 222 152 230 171 c 128,-1,10
 238 190 238 190 238 208 c 2,11,-1
 238 227 l 2,12,13
 238 254 238 254 256 254 c 0,14,15
 275 254 275 254 275 227 c 2,16,-1
 275 208 l 2,17,18
 275 176 275 176 263 152.5 c 128,-1,19
 251 129 251 129 220 110 c 0,20,21
 207 102 207 102 194 97.5 c 128,-1,22
 181 93 181 93 168.5 89 c 128,-1,23
 156 85 156 85 143 79.5 c 128,-1,24
 130 74 130 74 118 62 c 0,25,26
 103 48 103 48 95.5 28.5 c 128,-1,27
 88 9 88 9 88 -11 c 0,28,29
 88 -44 88 -44 100 -65.5 c 128,-1,30
 112 -87 112 -87 130.5 -99 c 128,-1,31
 149 -111 149 -111 171.5 -116 c 128,-1,32
 194 -121 194 -121 216 -121 c 0,33,34
 296 -121 296 -121 339 -57 c 0,35,36
 344 -50 344 -50 352 -50.5 c 128,-1,37
 360 -51 360 -51 366 -57 c 0,38,39
 372 -62 372 -62 372 -69.5 c 128,-1,40
 372 -77 372 -77 367 -84 c 0,41,42
 341 -119 341 -119 304 -138.5 c 128,-1,43
 267 -158 267 -158 218 -158 c 0,44,45
 181 -158 181 -158 150.5 -148.5 c 128,-1,46
 120 -139 120 -139 97.5 -120.5 c 128,-1,47
 75 -102 75 -102 62.5 -74.5 c 128,-1,48
 50 -47 50 -47 50 -11 c 256,0,1
220 318 m 256,49,50
 220 333 220 333 230.5 343 c 128,-1,51
 241 353 241 353 256 353 c 256,52,53
 271 353 271 353 281 343 c 128,-1,54
 291 333 291 333 291 318 c 256,55,56
 291 303 291 303 281 292.5 c 128,-1,57
 271 282 271 282 256 282 c 256,58,59
 241 282 241 282 230.5 292.5 c 128,-1,60
 220 303 220 303 220 318 c 256,49,50
EndSplineSet
EndChar
StartChar: Aring
Encoding: 197 197 134
Width: 493
Flags: W
Fore
247 640 m 0,0,1
 270 640 270 640 287 622 c 128,-1,2
 304 604 304 604 304 580 c 256,3,4
 304 556 304 556 287 538.5 c 128,-1,5
 270 521 270 521 247 521 c 0,6,7
 221 521 221 521 204 538.5 c 128,-1,8
 187 556 187 556 187 580 c 256,9,10
 187 604 187 604 204 622 c 128,-1,11
 221 640 221 640 247 640 c 0,0,1
247 548 m 0,12,13
 260 548 260 548 269 557 c 128,-1,14
 278 566 278 566 278 580 c 256,15,16
 278 594 278 594 269 603 c 128,-1,17
 260 612 260 612 247 612 c 0,18,19
 232 612 232 612 222 603 c 128,-1,20
 212 594 212 594 212 580 c 256,21,22
 212 566 212 566 222 557 c 128,-1,23
 232 548 232 548 247 548 c 0,12,13
451 302 m 1,24,25
 451 315 l 130,-1,26
 451 328 451 328 447 347.5 c 128,-1,27
 443 367 443 367 434.5 389 c 128,-1,28
 426 411 426 411 408 431 c 0,29,30
 354 490 354 490 247 490 c 256,31,32
 140 490 140 490 86 431 c 0,33,34
 67 410 67 410 57.5 387.5 c 128,-1,35
 48 365 48 365 44.5 346 c 128,-1,36
 41 327 41 327 41 314 c 128,-1,37
 41 301 41 301 41 300 c 2,38,-1
 41 27 l 2,39,40
 41 0 41 0 60 0 c 0,41,42
 78 0 78 0 78 27 c 2,43,-1
 78 237 l 1,44,-1
 414 237 l 1,45,-1
 414 27 l 2,46,47
 414 0 414 0 433 0 c 0,48,49
 451 0 451 0 451 27 c 2,50,-1
 451 302 l 1,24,25
414 304 m 2,51,-1
 414 274 l 1,52,-1
 79 274 l 1,53,-1
 79 302 l 2,54,55
 79 303 79 303 79 313 c 128,-1,56
 79 323 79 323 82 338.5 c 128,-1,57
 85 354 85 354 92 371.5 c 128,-1,58
 99 389 99 389 114 405 c 0,59,60
 158 452 158 452 247 452 c 256,61,62
 336 452 336 452 379 406 c 0,63,64
 393 389 393 389 400.5 371.5 c 128,-1,65
 408 354 408 354 411 339 c 0,66,67
 415 321 415 321 414 304 c 2,51,-1
EndSplineSet
EndChar
StartChar: AE
Encoding: 198 198 135
Width: 834
Flags: W
Fore
78 224 m 1,0,-1
 78 27 l 2,1,2
 78 0 78 0 60 0 c 0,3,4
 41 0 41 0 41 27 c 2,5,-1
 41 300 l 2,6,7
 41 301 41 301 41 314 c 128,-1,8
 41 327 41 327 44.5 346 c 128,-1,9
 48 365 48 365 57.5 387.5 c 128,-1,10
 67 410 67 410 86 431 c 0,11,12
 140 490 140 490 247 490 c 0,13,14
 377 490 377 490 431 389 c 1,15,16
 444 413 444 413 464 432 c 128,-1,17
 484 451 484 451 508 464 c 128,-1,18
 532 477 532 477 558 483.5 c 128,-1,19
 584 490 584 490 609 490 c 0,20,21
 651 490 651 490 683 482.5 c 128,-1,22
 715 475 715 475 738.5 463 c 128,-1,23
 762 451 762 451 777 435.5 c 128,-1,24
 792 420 792 420 800 404 c 0,25,26
 803 397 803 397 803 389.5 c 128,-1,27
 803 382 803 382 796 378 c 0,28,29
 789 373 789 373 781 375 c 128,-1,30
 773 377 773 377 769 384 c 0,31,32
 752 415 752 415 714 434 c 128,-1,33
 676 453 676 453 605 453 c 0,34,35
 576 453 576 453 548.5 442.5 c 128,-1,36
 521 432 521 432 499.5 414.5 c 128,-1,37
 478 397 478 397 465 372.5 c 128,-1,38
 452 348 452 348 452 319 c 2,39,-1
 452 261 l 1,40,-1
 668 261 l 2,41,42
 695 261 695 261 695 243 c 0,43,44
 695 224 695 224 668 224 c 2,45,-1
 452 224 l 1,46,-1
 452 176 l 2,47,48
 452 144 452 144 465 118 c 128,-1,49
 478 92 478 92 499.5 73 c 128,-1,50
 521 54 521 54 548.5 43 c 128,-1,51
 576 32 576 32 605 32 c 0,52,53
 676 32 676 32 714 51 c 128,-1,54
 752 70 752 70 769 101 c 0,55,56
 773 108 773 108 781 110 c 128,-1,57
 789 112 789 112 796 107 c 0,58,59
 803 103 803 103 803.5 95.5 c 128,-1,60
 804 88 804 88 801 81 c 0,61,62
 793 65 793 65 778 50 c 128,-1,63
 763 35 763 35 739.5 23.5 c 128,-1,64
 716 12 716 12 683.5 5 c 128,-1,65
 651 -2 651 -2 609 -2 c 0,66,67
 588 -2 588 -2 566 2.5 c 128,-1,68
 544 7 544 7 523 17 c 128,-1,69
 502 27 502 27 483.5 41.5 c 128,-1,70
 465 56 465 56 451 77 c 1,71,-1
 451 27 l 2,72,73
 451 0 451 0 433 0 c 0,74,75
 414 0 414 0 414 27 c 2,76,-1
 414 224 l 1,77,-1
 78 224 l 1,0,-1
414 314 m 2,78,79
 411 377 411 377 365 414.5 c 128,-1,80
 319 452 319 452 247 452 c 0,81,82
 158 452 158 452 114 405 c 0,83,84
 99 389 99 389 92 371.5 c 128,-1,85
 85 354 85 354 82 338.5 c 128,-1,86
 79 323 79 323 79 313 c 128,-1,87
 79 303 79 303 79 302 c 2,88,-1
 79 261 l 1,89,-1
 414 261 l 1,90,-1
 414 314 l 2,78,79
EndSplineSet
EndChar
StartChar: Eth
Encoding: 208 208 145
Width: 522
Flags: W
Fore
1 260 m 1,0,-1
 61 260 l 1,1,-1
 61 385 l 2,2,3
 61 430 61 430 95 458.5 c 128,-1,4
 129 487 129 487 184 487 c 2,5,-1
 207 487 l 2,6,7
 209 487 209 487 229 486.5 c 128,-1,8
 249 486 249 486 278 480 c 128,-1,9
 307 474 307 474 340.5 459 c 128,-1,10
 374 444 374 444 404 416 c 0,11,12
 437 384 437 384 455.5 341 c 128,-1,13
 474 298 474 298 474 243 c 0,14,15
 474 189 474 189 455.5 145.5 c 128,-1,16
 437 102 437 102 404 70 c 0,17,18
 374 42 374 42 340.5 27.5 c 128,-1,19
 307 13 307 13 278 7 c 128,-1,20
 249 1 249 1 229 0.5 c 128,-1,21
 209 0 209 0 207 0 c 2,22,-1
 184 0 l 2,23,24
 166 0 166 0 144.5 5.5 c 128,-1,25
 123 11 123 11 104.5 23 c 128,-1,26
 86 35 86 35 73.5 54 c 128,-1,27
 61 73 61 73 61 101 c 2,28,-1
 61 227 l 1,29,-1
 1 227 l 1,30,-1
 1 260 l 1,0,-1
437 243 m 256,31,32
 437 290 437 290 421 326.5 c 128,-1,33
 405 363 405 363 378 389 c 0,34,35
 353 413 353 413 323.5 426 c 128,-1,36
 294 439 294 439 268.5 444.5 c 128,-1,37
 243 450 243 450 225.5 450.5 c 128,-1,38
 208 451 208 451 207 451 c 2,39,-1
 184 451 l 2,40,41
 146 451 146 451 122.5 433.5 c 128,-1,42
 99 416 99 416 98 387 c 2,43,-1
 98 260 l 1,44,-1
 231 260 l 1,45,-1
 231 227 l 1,46,-1
 98 227 l 1,47,-1
 98 100 l 2,48,49
 98 81 98 81 107 69 c 128,-1,50
 116 57 116 57 129 49.5 c 128,-1,51
 142 42 142 42 157 39 c 128,-1,52
 172 36 172 36 184 36 c 2,53,-1
 207 36 l 2,54,55
 208 36 208 36 225.5 36.5 c 128,-1,56
 243 37 243 37 268.5 42.5 c 128,-1,57
 294 48 294 48 323.5 60.5 c 128,-1,58
 353 73 353 73 378 97 c 0,59,60
 405 123 405 123 421 159.5 c 128,-1,61
 437 196 437 196 437 243 c 256,31,32
EndSplineSet
EndChar
StartChar: multiply
Encoding: 215 215 152
Width: 400
Flags: W
Fore
73 273 m 2,0,1
 53 291 53 291 67 305 c 0,2,3
 80 318 80 318 100 300 c 2,4,-1
 200 197 l 1,5,-1
 299 300 l 2,6,7
 319 318 319 318 332 305 c 0,8,9
 346 291 346 291 326 273 c 2,10,-1
 226 170 l 1,11,-1
 328 68 l 2,12,13
 348 50 348 50 334 36 c 0,14,15
 321 22 321 22 301 41 c 2,16,-1
 199 143 l 1,17,-1
 99 40 l 2,18,19
 79 21 79 21 66 35 c 0,20,21
 52 49 52 49 72 67 c 2,22,-1
 173 170 l 1,23,-1
 73 273 l 2,0,1
EndSplineSet
EndChar
StartChar: Oslash
Encoding: 216 216 153
Width: 542
Flags: W
Fore
139 -5 m 2,0,1
 122 -36 122 -36 105 -27 c 256,2,3
 88 -18 88 -18 107 13 c 2,4,-1
 124 42 l 1,5,6
 81 74 81 74 56 125.5 c 128,-1,7
 31 177 31 177 31 242 c 0,8,9
 31 297 31 297 49 343 c 128,-1,10
 67 389 67 389 99 421.5 c 128,-1,11
 131 454 131 454 175 472 c 128,-1,12
 219 490 219 490 271 490 c 0,13,14
 324 490 324 490 370 471 c 1,15,-1
 387 500 l 2,16,17
 407 532 407 532 422 521 c 1,18,19
 439 512 439 512 420 482 c 2,20,-1
 404 453 l 1,21,22
 455 421 455 421 483.5 366 c 128,-1,23
 512 311 512 311 512 242 c 0,24,25
 512 187 512 187 494.5 141.5 c 128,-1,26
 477 96 477 96 445 63.5 c 128,-1,27
 413 31 413 31 368.5 13 c 128,-1,28
 324 -5 324 -5 271 -5 c 0,29,30
 206 -5 206 -5 155 22 c 1,31,-1
 139 -5 l 2,0,1
473 242 m 0,32,33
 473 299 473 299 450 345.5 c 128,-1,34
 427 392 427 392 384 420 c 1,35,-1
 174 56 l 1,36,37
 217 34 217 34 271 34 c 0,38,39
 316 34 316 34 353.5 49.5 c 128,-1,40
 391 65 391 65 417.5 92.5 c 128,-1,41
 444 120 444 120 458.5 158 c 128,-1,42
 473 196 473 196 473 242 c 0,32,33
70 242 m 0,43,44
 70 186 70 186 89.5 144 c 128,-1,45
 109 102 109 102 143 76 c 1,46,-1
 350 436 l 1,47,48
 333 443 333 443 313 447 c 128,-1,49
 293 451 293 451 271 451 c 0,50,51
 225 451 225 451 188 435 c 128,-1,52
 151 419 151 419 124.5 391.5 c 128,-1,53
 98 364 98 364 84 325.5 c 128,-1,54
 70 287 70 287 70 242 c 0,43,44
EndSplineSet
EndChar
StartChar: Thorn
Encoding: 222 222 159
Width: 432
Flags: W
Fore
241 402 m 2,0,1
 256 402 256 402 280.5 398 c 128,-1,2
 305 394 305 394 329 379.5 c 128,-1,3
 353 365 353 365 370.5 336 c 128,-1,4
 388 307 388 307 388 258 c 0,5,6
 388 221 388 221 375 195 c 128,-1,7
 362 169 362 169 342.5 152.5 c 128,-1,8
 323 136 323 136 298.5 128 c 128,-1,9
 274 120 274 120 252 120 c 2,10,-1
 99 120 l 1,11,-1
 99 14 l 2,12,13
 99 -13 99 -13 81 -13 c 256,14,15
 63 -13 63 -13 63 14 c 2,16,-1
 63 469 l 2,17,18
 63 496 63 496 81 496 c 256,19,20
 99 496 99 496 99 469 c 2,21,-1
 99 402 l 1,22,-1
 241 402 l 2,0,1
256 149 m 2,23,24
 295 149 295 149 324.5 176.5 c 128,-1,25
 354 204 354 204 354 256 c 0,26,27
 354 315 354 315 326 341.5 c 128,-1,28
 298 368 298 368 256 368 c 2,29,-1
 99 368 l 1,30,-1
 99 149 l 1,31,-1
 256 149 l 2,23,24
EndSplineSet
EndChar
StartChar: uni00DF
Encoding: 223 223 160
Width: 402
Flags: W
Fore
317 398 m 0,0,1
 317 367 317 367 300 344.5 c 128,-1,2
 283 322 283 322 267 318 c 1,3,4
 317 296 317 296 343 258 c 128,-1,5
 369 220 369 220 369 166 c 0,6,7
 369 132 369 132 358.5 102.5 c 128,-1,8
 348 73 348 73 328.5 50.5 c 128,-1,9
 309 28 309 28 280.5 15 c 128,-1,10
 252 2 252 2 217 2 c 2,11,-1
 142 2 l 2,12,13
 136 2 136 2 131.5 6 c 128,-1,14
 127 10 127 10 127 17 c 0,15,16
 127 23 127 23 131.5 28 c 128,-1,17
 136 33 136 33 142 33 c 2,18,-1
 209 33 l 2,19,20
 239 33 239 33 263 43.5 c 128,-1,21
 287 54 287 54 303.5 72.5 c 128,-1,22
 320 91 320 91 329 116 c 128,-1,23
 338 141 338 141 338 169 c 0,24,25
 337 197 337 197 325.5 222 c 128,-1,26
 314 247 314 247 295 265.5 c 128,-1,27
 276 284 276 284 251 295 c 128,-1,28
 226 306 226 306 198 306 c 2,29,-1
 135 306 l 1,30,-1
 135 337 l 1,31,-1
 201 337 l 2,32,33
 214 337 214 337 228.5 338.5 c 128,-1,34
 243 340 243 340 255 345.5 c 128,-1,35
 267 351 267 351 275 362 c 128,-1,36
 283 373 283 373 284 392 c 0,37,38
 285 420 285 420 273.5 436 c 128,-1,39
 262 452 262 452 248 461 c 0,40,41
 237 468 237 468 223 471.5 c 128,-1,42
 209 475 209 475 193.5 475.5 c 128,-1,43
 178 476 178 476 163 473 c 128,-1,44
 148 470 148 470 137 463 c 0,45,46
 132 460 132 460 125.5 455 c 128,-1,47
 119 450 119 450 113 440.5 c 128,-1,48
 107 431 107 431 103 415 c 128,-1,49
 99 399 99 399 99 374 c 2,50,-1
 99 14 l 2,51,52
 99 8 99 8 94.5 3.5 c 128,-1,53
 90 -1 90 -1 82 -1 c 0,54,55
 76 -1 76 -1 70.5 3.5 c 128,-1,56
 65 8 65 8 65 14 c 2,57,-1
 65 380 l 2,58,59
 65 432 65 432 96 468 c 128,-1,60
 127 504 127 504 187 504 c 0,61,62
 251 504 251 504 284 476 c 128,-1,63
 317 448 317 448 317 398 c 0,0,1
EndSplineSet
EndChar
StartChar: ae
Encoding: 230 230 167
Width: 749
Flags: W
Fore
665 86 m 0,0,1
 673 94 673 94 681 96.5 c 128,-1,2
 689 99 689 99 697 93 c 0,3,4
 703 88 703 88 702.5 77.5 c 128,-1,5
 702 67 702 67 696 62 c 1,6,7
 671 30 671 30 632 12 c 128,-1,8
 593 -6 593 -6 539 -6 c 0,9,10
 481 -6 481 -6 441 15.5 c 128,-1,11
 401 37 401 37 375 76 c 1,12,13
 357 50 357 50 336.5 34.5 c 128,-1,14
 316 19 316 19 293.5 10 c 128,-1,15
 271 1 271 1 247 -2 c 128,-1,16
 223 -5 223 -5 198 -5 c 0,17,18
 148 -5 148 -5 115.5 6.5 c 128,-1,19
 83 18 83 18 64 36 c 128,-1,20
 45 54 45 54 37.5 75.5 c 128,-1,21
 30 97 30 97 31 117 c 0,22,23
 34 176 34 176 80 209.5 c 128,-1,24
 126 243 126 243 208 243 c 0,25,26
 241 242 241 242 269 235 c 0,27,28
 293 229 293 229 316 216 c 128,-1,29
 339 203 339 203 348 180 c 1,30,31
 355 254 355 254 313.5 287 c 128,-1,32
 272 320 272 320 196 320 c 0,33,34
 161 320 161 320 135 312.5 c 128,-1,35
 109 305 109 305 83 291 c 0,36,37
 76 287 76 287 67 286 c 128,-1,38
 58 285 58 285 53 291 c 0,39,40
 48 296 48 296 49 304.5 c 128,-1,41
 50 313 50 313 62 320 c 0,42,43
 85 335 85 335 117.5 347 c 128,-1,44
 150 359 150 359 198 359 c 0,45,46
 264 359 264 359 307.5 337.5 c 128,-1,47
 351 316 351 316 374 267 c 1,48,49
 396 305 396 305 436.5 332 c 128,-1,50
 477 359 477 359 539 359 c 0,51,52
 595 359 595 359 628.5 341.5 c 128,-1,53
 662 324 662 324 679 307 c 0,54,55
 707 277 707 277 714 250 c 128,-1,56
 721 223 721 223 714.5 203 c 128,-1,57
 708 183 708 183 692.5 171.5 c 128,-1,58
 677 160 677 160 660 160 c 2,59,-1
 388 160 l 1,60,61
 400 33 400 33 539 33 c 0,62,63
 585 33 585 33 616 48 c 128,-1,64
 647 63 647 63 665 86 c 0,0,1
539 319 m 0,65,66
 494 319 494 319 465.5 304.5 c 128,-1,67
 437 290 437 290 420.5 270.5 c 128,-1,68
 404 251 404 251 397 230.5 c 128,-1,69
 390 210 390 210 389 198 c 1,70,-1
 659 198 l 2,71,72
 669 198 669 198 673.5 207 c 128,-1,73
 678 216 678 216 677 229 c 128,-1,74
 676 242 676 242 670 256 c 128,-1,75
 664 270 664 270 652 280 c 0,76,77
 638 293 638 293 612 306 c 128,-1,78
 586 319 586 319 539 319 c 0,65,66
343 116 m 0,79,80
 344 132 344 132 338 148.5 c 128,-1,81
 332 165 332 165 316.5 177.5 c 128,-1,82
 301 190 301 190 274.5 198 c 128,-1,83
 248 206 248 206 206 206 c 0,84,85
 180 206 180 206 155.5 200 c 128,-1,86
 131 194 131 194 112 183 c 128,-1,87
 93 172 93 172 81 155.5 c 128,-1,88
 69 139 69 139 68 117 c 0,89,90
 65 73 65 73 102 51 c 128,-1,91
 139 29 139 29 202 29 c 0,92,93
 243 29 243 29 270 37.5 c 128,-1,94
 297 46 297 46 313 58.5 c 128,-1,95
 329 71 329 71 335.5 86.5 c 128,-1,96
 342 102 342 102 343 116 c 0,79,80
EndSplineSet
EndChar
StartChar: eth
Encoding: 240 240 177
Width: 453
Flags: W
Fore
410 250 m 2,0,-1
 410 10 l 2,1,2
 410 2 410 2 405 -3.5 c 128,-1,3
 400 -9 400 -9 392 -9 c 256,4,5
 384 -9 384 -9 379 -3.5 c 128,-1,6
 374 2 374 2 374 10 c 2,7,-1
 374 57 l 1,8,9
 347 23 347 23 309 7.5 c 128,-1,10
 271 -8 271 -8 219 -8 c 0,11,12
 194 -8 194 -8 161.5 0.5 c 128,-1,13
 129 9 129 9 99.5 29.5 c 128,-1,14
 70 50 70 50 50 84.5 c 128,-1,15
 30 119 30 119 30 171 c 0,16,17
 30 206 30 206 43.5 238.5 c 128,-1,18
 57 271 57 271 81.5 296 c 128,-1,19
 106 321 106 321 141 336 c 128,-1,20
 176 351 176 351 219 351 c 0,21,22
 275 351 275 351 316.5 329.5 c 128,-1,23
 358 308 358 308 372 281 c 1,24,25
 368 307 368 307 358.5 331.5 c 128,-1,26
 349 356 349 356 335 376.5 c 128,-1,27
 321 397 321 397 304.5 413 c 128,-1,28
 288 429 288 429 270 439 c 1,29,-1
 215 414 l 1,30,-1
 197 437 l 1,31,-1
 242 457 l 1,32,33
 224 468 224 468 202 475 c 128,-1,34
 180 482 180 482 161 487 c 1,35,36
 154 491 154 491 152.5 496.5 c 128,-1,37
 151 502 151 502 153.5 506.5 c 128,-1,38
 156 511 156 511 161.5 513.5 c 128,-1,39
 167 516 167 516 175 514 c 0,40,41
 202 509 202 509 228.5 498.5 c 128,-1,42
 255 488 255 488 275 475 c 1,43,-1
 331 503 l 1,44,-1
 352 478 l 1,45,-1
 306 458 l 1,46,47
 351 428 351 428 380.5 374.5 c 128,-1,48
 410 321 410 321 410 250 c 2,0,-1
336 71 m 0,49,50
 350 86 350 86 357.5 103 c 128,-1,51
 365 120 365 120 368 135 c 128,-1,52
 371 150 371 150 371.5 160 c 128,-1,53
 372 170 372 170 372 171 c 0,54,55
 372 210 372 210 357.5 236.5 c 128,-1,56
 343 263 343 263 320.5 280 c 128,-1,57
 298 297 298 297 271 304.5 c 128,-1,58
 244 312 244 312 219 312 c 0,59,60
 184 312 184 312 156.5 300.5 c 128,-1,61
 129 289 129 289 109 269.5 c 128,-1,62
 89 250 89 250 78.5 224.5 c 128,-1,63
 68 199 68 199 68 171 c 0,64,65
 68 162 68 162 71.5 139 c 128,-1,66
 75 116 75 116 89.5 92 c 128,-1,67
 104 68 104 68 134.5 49 c 128,-1,68
 165 30 165 30 219 30 c 0,69,70
 258 30 258 30 287 40.5 c 128,-1,71
 316 51 316 51 336 71 c 0,49,50
EndSplineSet
EndChar
StartChar: divide
Encoding: 247 247 184
Width: 504
Flags: W
Fore
288 316 m 0,0,1
 288 302 288 302 279 291.5 c 128,-1,2
 270 281 270 281 255 281 c 256,3,4
 240 281 240 281 231 291.5 c 128,-1,5
 222 302 222 302 222 316 c 0,6,7
 223 331 223 331 232 341.5 c 128,-1,8
 241 352 241 352 255 352 c 0,9,10
 270 352 270 352 279 341.5 c 128,-1,11
 288 331 288 331 288 316 c 0,0,1
287 68 m 0,12,13
 287 55 287 55 278 44.5 c 128,-1,14
 269 34 269 34 254 34 c 256,15,16
 239 34 239 34 230.5 44.5 c 128,-1,17
 222 55 222 55 222 68 c 0,18,19
 222 83 222 83 231 93.5 c 128,-1,20
 240 104 240 104 255 104 c 0,21,22
 269 104 269 104 278 93.5 c 128,-1,23
 287 83 287 83 287 68 c 0,12,13
448 214 m 2,24,25
 458 214 458 214 465 208 c 128,-1,26
 472 202 472 202 472 192 c 0,27,28
 472 183 472 183 465 176 c 128,-1,29
 458 169 458 169 448 169 c 2,30,-1
 56 169 l 2,31,32
 47 169 47 169 40.5 176 c 128,-1,33
 34 183 34 183 34 192 c 0,34,35
 34 202 34 202 40.5 208 c 128,-1,36
 47 214 47 214 56 214 c 2,37,-1
 448 214 l 2,24,25
EndSplineSet
EndChar
StartChar: oslash
Encoding: 248 248 185
Width: 434
Flags: W
Fore
341 305 m 0,0,1
 367 279 367 279 380.5 246 c 128,-1,2
 394 213 394 213 395 177.5 c 128,-1,3
 396 142 396 142 382.5 108 c 128,-1,4
 369 74 369 74 341 46 c 0,5,6
 323 28 323 28 300 16 c 128,-1,7
 277 4 277 4 252.5 -1 c 128,-1,8
 228 -6 228 -6 202.5 -4 c 128,-1,9
 177 -2 177 -2 155 7 c 1,10,-1
 138 -27 l 2,11,12
 133 -39 133 -39 120 -34 c 0,13,14
 115 -32 115 -32 113 -26.5 c 128,-1,15
 111 -21 111 -21 114 -16 c 2,16,-1
 130 21 l 1,17,18
 88 43 88 43 64.5 85.5 c 128,-1,19
 41 128 41 128 41 176 c 0,20,21
 41 213 41 213 54 246.5 c 128,-1,22
 67 280 67 280 90.5 304.5 c 128,-1,23
 114 329 114 329 146.5 343.5 c 128,-1,24
 179 358 179 358 218 358 c 0,25,26
 233 358 233 358 248 355 c 128,-1,27
 263 352 263 352 277 347 c 1,28,-1
 293 381 l 2,29,30
 295 386 295 386 301 387.5 c 128,-1,31
 307 389 307 389 312 387 c 256,32,33
 317 385 317 385 319 379.5 c 128,-1,34
 321 374 321 374 319 369 c 2,35,-1
 304 335 l 1,36,37
 314 328 314 328 323.5 321 c 128,-1,38
 333 314 333 314 341 305 c 0,0,1
117 68 m 0,39,40
 128 56 128 56 143 48 c 1,41,-1
 264 317 l 1,42,43
 253 322 253 322 241 323.5 c 128,-1,44
 229 325 229 325 217 325 c 0,45,46
 181 325 181 325 154 312.5 c 128,-1,47
 127 300 127 300 109 279 c 128,-1,48
 91 258 91 258 82 231 c 128,-1,49
 73 204 73 204 73 176 c 0,50,51
 73 146 73 146 84 117.5 c 128,-1,52
 95 89 95 89 117 68 c 0,39,40
220 28 m 0,53,54
 268 28 268 28 302.5 55 c 128,-1,55
 337 82 337 82 352.5 121.5 c 128,-1,56
 368 161 368 161 361 205 c 128,-1,57
 354 249 354 249 320 283 c 0,58,59
 313 289 313 289 305.5 294.5 c 128,-1,60
 298 300 298 300 290 304 c 1,61,-1
 168 36 l 1,62,63
 180 33 180 33 193.5 30.5 c 128,-1,64
 207 28 207 28 220 28 c 0,53,54
EndSplineSet
EndChar
StartChar: thorn
Encoding: 254 254 191
Width: 460
Flags: W
Fore
242 366 m 0,0,1
 289 366 289 366 324.5 347 c 128,-1,2
 360 328 360 328 383.5 298 c 128,-1,3
 407 268 407 268 417 230.5 c 128,-1,4
 427 193 427 193 424 156 c 0,5,6
 420 121 420 121 406 91 c 128,-1,7
 392 61 392 61 368.5 38 c 128,-1,8
 345 15 345 15 311.5 2 c 128,-1,9
 278 -11 278 -11 236 -11 c 0,10,11
 219 -11 219 -11 198.5 -6.5 c 128,-1,12
 178 -2 178 -2 158.5 8 c 128,-1,13
 139 18 139 18 123.5 32.5 c 128,-1,14
 108 47 108 47 100 67 c 1,15,-1
 100 -131 l 2,16,17
 100 -157 100 -157 81 -157 c 256,18,19
 62 -157 62 -157 62 -131 c 2,20,-1
 62 474 l 2,21,22
 62 500 62 500 81 500 c 256,23,24
 100 500 100 500 100 474 c 2,25,-1
 100 288 l 1,26,27
 107 301 107 301 121.5 315 c 128,-1,28
 136 329 136 329 154.5 340.5 c 128,-1,29
 173 352 173 352 195.5 359 c 128,-1,30
 218 366 218 366 242 366 c 0,0,1
235 24 m 0,31,32
 269 22 269 22 297.5 32.5 c 128,-1,33
 326 43 326 43 346 64 c 128,-1,34
 366 85 366 85 377.5 115 c 128,-1,35
 389 145 389 145 389 183 c 0,36,37
 389 210 389 210 378 236 c 128,-1,38
 367 262 367 262 347.5 283 c 128,-1,39
 328 304 328 304 301 316 c 128,-1,40
 274 328 274 328 241 327 c 0,41,42
 211 325 211 325 185.5 314.5 c 128,-1,43
 160 304 160 304 141 286.5 c 128,-1,44
 122 269 122 269 110 247 c 128,-1,45
 98 225 98 225 95 200 c 0,46,47
 87 124 87 124 123.5 76 c 128,-1,48
 160 28 160 28 235 24 c 0,31,32
EndSplineSet
EndChar
StartChar: Lslash
Encoding: 321 321 193
Width: 456
Flags: W
Fore
414 36 m 2,0,1
 440 36 440 36 440 17 c 0,2,3
 440 0 440 0 414 0 c 2,4,-1
 144 0 l 2,5,6
 109 0 109 0 85.5 21 c 128,-1,7
 62 42 62 42 62 80 c 2,8,-1
 61 251 l 1,9,-1
 10 220 l 1,10,-1
 10 253 l 1,11,-1
 61 283 l 1,12,-1
 62 458 l 2,13,14
 62 484 62 484 81 484 c 0,15,16
 101 484 101 484 101 458 c 2,17,-1
 101 303 l 1,18,-1
 180 355 l 1,19,-1
 180 319 l 1,20,-1
 101 270 l 1,21,-1
 101 79 l 2,22,23
 100 59 100 59 111 47.5 c 128,-1,24
 122 36 122 36 145 36 c 2,25,-1
 414 36 l 2,0,1
EndSplineSet
EndChar
StartChar: lslash
Encoding: 322 322 194
Width: 162
Flags: W
Fore
153 320 m 1,0,-1
 153 286 l 1,1,-1
 99 253 l 1,2,-1
 99 26 l 2,3,4
 99 -1 99 -1 81 -1 c 256,5,6
 63 -1 63 -1 63 26 c 2,7,-1
 63 235 l 1,8,-1
 10 204 l 1,9,-1
 10 237 l 1,10,-1
 63 268 l 1,11,-1
 63 548 l 2,12,13
 63 575 63 575 81 575 c 256,14,15
 99 575 99 575 99 548 c 2,16,-1
 99 286 l 1,17,-1
 153 320 l 1,0,-1
EndSplineSet
EndChar
StartChar: OE
Encoding: 338 338 195
Width: 873
Flags: W
Fore
460 369 m 1,0,1
 469 400 469 400 489 423 c 128,-1,2
 509 446 509 446 535.5 461 c 128,-1,3
 562 476 562 476 591.5 483 c 128,-1,4
 621 490 621 490 649 490 c 0,5,6
 691 490 691 490 723 482.5 c 128,-1,7
 755 475 755 475 778.5 463 c 128,-1,8
 802 451 802 451 817 435.5 c 128,-1,9
 832 420 832 420 840 404 c 0,10,11
 843 397 843 397 843 389.5 c 128,-1,12
 843 382 843 382 836 378 c 0,13,14
 829 373 829 373 821 375 c 128,-1,15
 813 377 813 377 809 384 c 0,16,17
 792 415 792 415 754 434 c 128,-1,18
 716 453 716 453 645 453 c 0,19,20
 616 453 616 453 588.5 443.5 c 128,-1,21
 561 434 561 434 539.5 416.5 c 128,-1,22
 518 399 518 399 505 375.5 c 128,-1,23
 492 352 492 352 492 323 c 2,24,-1
 492 261 l 1,25,-1
 708 261 l 2,26,27
 735 261 735 261 735 243 c 0,28,29
 735 224 735 224 708 224 c 2,30,-1
 492 224 l 1,31,-1
 492 162 l 2,32,33
 492 130 492 130 505 106 c 128,-1,34
 518 82 518 82 539.5 65.5 c 128,-1,35
 561 49 561 49 588.5 40.5 c 128,-1,36
 616 32 616 32 645 32 c 0,37,38
 716 32 716 32 754 51 c 128,-1,39
 792 70 792 70 809 101 c 0,40,41
 813 108 813 108 821 110 c 128,-1,42
 829 112 829 112 836 107 c 0,43,44
 843 103 843 103 843.5 95.5 c 128,-1,45
 844 88 844 88 841 81 c 0,46,47
 833 65 833 65 818 49.5 c 128,-1,48
 803 34 803 34 779.5 22 c 128,-1,49
 756 10 756 10 723.5 2.5 c 128,-1,50
 691 -5 691 -5 649 -5 c 0,51,52
 621 -5 621 -5 591.5 2 c 128,-1,53
 562 9 562 9 535.5 23 c 128,-1,54
 509 37 509 37 489 59.5 c 128,-1,55
 469 82 469 82 460 114 c 1,56,57
 431 58 431 58 379.5 26.5 c 128,-1,58
 328 -5 328 -5 260 -5 c 0,59,60
 212 -5 212 -5 170 13 c 128,-1,61
 128 31 128 31 97.5 63.5 c 128,-1,62
 67 96 67 96 49.5 141.5 c 128,-1,63
 32 187 32 187 32 242 c 256,64,65
 32 297 32 297 49 343 c 128,-1,66
 66 389 66 389 96.5 421.5 c 128,-1,67
 127 454 127 454 169 472 c 128,-1,68
 211 490 211 490 260 490 c 0,69,70
 329 490 329 490 380 457.5 c 128,-1,71
 431 425 431 425 460 369 c 1,0,1
452 242 m 0,72,73
 452 285 452 285 439 323.5 c 128,-1,74
 426 362 426 362 401.5 390 c 128,-1,75
 377 418 377 418 341 434.5 c 128,-1,76
 305 451 305 451 260 451 c 0,77,78
 216 451 216 451 180.5 435 c 128,-1,79
 145 419 145 419 120.5 391.5 c 128,-1,80
 96 364 96 364 82.5 325.5 c 128,-1,81
 69 287 69 287 69 242 c 0,82,83
 69 193 69 193 84 154.5 c 128,-1,84
 99 116 99 116 125 89 c 128,-1,85
 151 62 151 62 186 48 c 128,-1,86
 221 34 221 34 260 34 c 0,87,88
 303 34 303 34 338.5 49.5 c 128,-1,89
 374 65 374 65 399 92.5 c 128,-1,90
 424 120 424 120 438 158 c 128,-1,91
 452 196 452 196 452 242 c 0,72,73
EndSplineSet
EndChar
StartChar: oe
Encoding: 339 339 196
Width: 782
Flags: W
Fore
725 94 m 1,0,1
 731 88 731 88 731 77.5 c 128,-1,2
 731 67 731 67 724 62 c 1,3,4
 700 30 700 30 661 12 c 128,-1,5
 622 -6 622 -6 568 -6 c 0,6,7
 505 -6 505 -6 460 20 c 128,-1,8
 415 46 415 46 394 94 c 1,9,10
 371 46 371 46 325.5 23 c 128,-1,11
 280 0 280 0 223 0 c 0,12,13
 184 0 184 0 149.5 12 c 128,-1,14
 115 24 115 24 89 47.5 c 128,-1,15
 63 71 63 71 48 104.5 c 128,-1,16
 33 138 33 138 33 180 c 0,17,18
 33 213 33 213 43 245 c 128,-1,19
 53 277 53 277 75.5 302.5 c 128,-1,20
 98 328 98 328 134 344 c 128,-1,21
 170 360 170 360 223 360 c 0,22,23
 286 360 286 360 330.5 333 c 128,-1,24
 375 306 375 306 396 259 c 1,25,26
 416 301 416 301 460.5 330 c 128,-1,27
 505 359 505 359 570 359 c 0,28,29
 627 359 627 359 659 342 c 128,-1,30
 691 325 691 325 708 308 c 0,31,32
 737 278 737 278 744 251 c 128,-1,33
 751 224 751 224 745 203.5 c 128,-1,34
 739 183 739 183 724 171.5 c 128,-1,35
 709 160 709 160 695 160 c 2,36,-1
 416 160 l 1,37,38
 421 100 421 100 463.5 66.5 c 128,-1,39
 506 33 506 33 568 33 c 0,40,41
 613 33 613 33 644.5 48 c 128,-1,42
 676 63 676 63 695 86 c 0,43,44
 701 94 701 94 709 97 c 128,-1,45
 717 100 717 100 725 94 c 1,0,1
378 185 m 2,46,47
 377 217 377 217 364.5 242.5 c 128,-1,48
 352 268 352 268 331.5 286 c 128,-1,49
 311 304 311 304 283 313.5 c 128,-1,50
 255 323 255 323 223 323 c 256,51,52
 191 323 191 323 163 313.5 c 128,-1,53
 135 304 135 304 114 286 c 128,-1,54
 93 268 93 268 80.5 241.5 c 128,-1,55
 68 215 68 215 68 180 c 0,56,57
 68 147 68 147 79.5 120.5 c 128,-1,58
 91 94 91 94 112 75.5 c 128,-1,59
 133 57 133 57 161.5 47 c 128,-1,60
 190 37 190 37 223 37 c 0,61,62
 274 37 274 37 304.5 53.5 c 128,-1,63
 335 70 335 70 351 93 c 128,-1,64
 367 116 367 116 372 140 c 128,-1,65
 377 164 377 164 378 180 c 2,66,-1
 378 185 l 2,46,47
688 198 m 2,67,68
 697 198 697 198 701.5 207 c 128,-1,69
 706 216 706 216 705 229 c 128,-1,70
 704 242 704 242 697.5 256.5 c 128,-1,71
 691 271 691 271 680 281 c 0,72,73
 666 293 666 293 641 306.5 c 128,-1,74
 616 320 616 320 570 320 c 0,75,76
 525 320 525 320 496 305 c 128,-1,77
 467 290 467 290 450 269.5 c 128,-1,78
 433 249 433 249 425.5 228.5 c 128,-1,79
 418 208 418 208 417 198 c 1,80,-1
 688 198 l 2,67,68
EndSplineSet
EndChar
StartChar: florin
Encoding: 402 402 202
Width: 357
Flags: W
Fore
265 458 m 0,0,1
 251 448 251 448 243.5 430.5 c 128,-1,2
 236 413 236 413 233 395 c 0,3,4
 232 389 232 389 230 377 c 128,-1,5
 228 365 228 365 226 351 c 128,-1,6
 224 337 224 337 221 322.5 c 128,-1,7
 218 308 218 308 215 297 c 1,8,-1
 289 297 l 1,9,-1
 282 269 l 1,10,-1
 212 269 l 1,11,12
 208 248 208 248 201 213 c 128,-1,13
 194 178 194 178 187 145 c 0,14,15
 178 106 178 106 169 64 c 0,16,17
 165 46 165 46 156.5 17.5 c 128,-1,18
 148 -11 148 -11 134.5 -38 c 128,-1,19
 121 -65 121 -65 102.5 -84.5 c 128,-1,20
 84 -104 84 -104 61 -104 c 0,21,22
 44 -104 44 -104 34.5 -95 c 128,-1,23
 25 -86 25 -86 24.5 -75 c 128,-1,24
 24 -64 24 -64 31 -55 c 128,-1,25
 38 -46 38 -46 54 -46 c 0,26,27
 62 -46 62 -46 65.5 -49 c 128,-1,28
 69 -52 69 -52 71.5 -56 c 128,-1,29
 74 -60 74 -60 76.5 -62.5 c 128,-1,30
 79 -65 79 -65 85 -65 c 1,31,32
 98 -57 98 -57 106 -40 c 128,-1,33
 114 -23 114 -23 120 -2.5 c 128,-1,34
 126 18 126 18 129.5 38.5 c 128,-1,35
 133 59 133 59 137 74 c 2,36,-1
 178 270 l 1,37,-1
 97 270 l 1,38,-1
 105 298 l 1,39,-1
 182 298 l 1,40,41
 191 340 191 340 202.5 379 c 128,-1,42
 214 418 214 418 234 455 c 0,43,44
 241 468 241 468 252 478 c 128,-1,45
 263 488 263 488 275 493 c 128,-1,46
 287 498 287 498 299 498 c 128,-1,47
 311 498 311 498 322 490 c 0,48,49
 336 480 336 480 336 468.5 c 128,-1,50
 336 457 336 457 328.5 450 c 128,-1,51
 321 443 321 443 309 442.5 c 128,-1,52
 297 442 297 442 287 454 c 0,53,54
 282 462 282 462 275.5 461.5 c 128,-1,55
 269 461 269 461 265 458 c 0,0,1
EndSplineSet
EndChar
StartChar: circumflex
Encoding: 710 710 203
Width: 321
Flags: W
Fore
148 563 m 2,0,1
 163 578 163 578 177 563 c 2,2,-1
 252 492 l 2,3,4
 257 487 257 487 257 480 c 128,-1,5
 257 473 257 473 252 468 c 256,6,7
 247 463 247 463 239.5 463 c 128,-1,8
 232 463 232 463 227 468 c 2,9,-1
 162 530 l 1,10,-1
 96 468 l 2,11,12
 91 463 91 463 84 463 c 128,-1,13
 77 463 77 463 72 468 c 256,14,15
 67 473 67 473 67 480 c 128,-1,16
 67 487 67 487 72 492 c 2,17,-1
 148 563 l 2,0,1
EndSplineSet
EndChar
StartChar: caron
Encoding: 711 711 204
Width: 321
Flags: W
Fore
72 559 m 2,0,1
 67 564 67 564 67 571 c 128,-1,2
 67 578 67 578 72 583 c 256,3,4
 77 588 77 588 84 588 c 128,-1,5
 91 588 91 588 96 583 c 2,6,-1
 162 521 l 1,7,-1
 227 583 l 2,8,9
 232 588 232 588 239.5 588 c 128,-1,10
 247 588 247 588 252 583 c 256,11,12
 257 578 257 578 257 571 c 128,-1,13
 257 564 257 564 252 559 c 2,14,-1
 177 488 l 2,15,16
 163 473 163 473 148 488 c 2,17,-1
 72 559 l 2,0,1
EndSplineSet
EndChar
StartChar: breve
Encoding: 728 728 205
Width: 300
Flags: W
Fore
257 528 m 1,0,1
 257 506 257 506 248.5 486.5 c 128,-1,2
 240 467 240 467 226 452 c 128,-1,3
 212 437 212 437 192.5 428.5 c 128,-1,4
 173 420 173 420 150 420 c 0,5,6
 128 420 128 420 108 428.5 c 128,-1,7
 88 437 88 437 74 452 c 128,-1,8
 60 467 60 467 51.5 486.5 c 128,-1,9
 43 506 43 506 43 528 c 1,10,-1
 78 528 l 1,11,12
 78 494 78 494 97.5 473.5 c 128,-1,13
 117 453 117 453 150 453 c 0,14,15
 184 453 184 453 203 473.5 c 128,-1,16
 222 494 222 494 222 528 c 1,17,-1
 257 528 l 1,0,1
EndSplineSet
EndChar
StartChar: dotaccent
Encoding: 729 729 206
Width: 158
Flags: W
Fore
43 462 m 256,0,1
 43 477 43 477 53.5 487.5 c 128,-1,2
 64 498 64 498 79 498 c 256,3,4
 94 498 94 498 104.5 487.5 c 128,-1,5
 115 477 115 477 115 462 c 256,6,7
 115 447 115 447 104.5 436.5 c 128,-1,8
 94 426 94 426 79 426 c 256,9,10
 64 426 64 426 53.5 436.5 c 128,-1,11
 43 447 43 447 43 462 c 256,0,1
EndSplineSet
EndChar
StartChar: ring
Encoding: 730 730 207
Width: 278
Flags: W
Fore
142 520 m 0,0,1
 165 520 165 520 182 502 c 128,-1,2
 199 484 199 484 199 460 c 256,3,4
 199 436 199 436 182 418.5 c 128,-1,5
 165 401 165 401 142 401 c 0,6,7
 116 401 116 401 99 418.5 c 128,-1,8
 82 436 82 436 82 460 c 256,9,10
 82 484 82 484 99 502 c 128,-1,11
 116 520 116 520 142 520 c 0,0,1
142 430 m 0,12,13
 153 430 153 430 162 439 c 128,-1,14
 171 448 171 448 171 460 c 256,15,16
 171 472 171 472 162 481 c 128,-1,17
 153 490 153 490 142 490 c 0,18,19
 128 490 128 490 118.5 481 c 128,-1,20
 109 472 109 472 109 460 c 256,21,22
 109 448 109 448 118.5 439 c 128,-1,23
 128 430 128 430 142 430 c 0,12,13
EndSplineSet
EndChar
StartChar: tilde
Encoding: 732 732 209
Width: 226
Flags: W
Fore
42 402 m 1,0,-1
 16 402 l 1,1,2
 17 419 17 419 22.5 434 c 128,-1,3
 28 449 28 449 37.5 458.5 c 128,-1,4
 47 468 47 468 61.5 470.5 c 128,-1,5
 76 473 76 473 95 465 c 0,6,7
 97 464 97 464 104 461 c 128,-1,8
 111 458 111 458 119.5 455 c 128,-1,9
 128 452 128 452 135 449 c 128,-1,10
 142 446 142 446 144 445 c 0,11,12
 156 440 156 440 163.5 441.5 c 128,-1,13
 171 443 171 443 175.5 448 c 128,-1,14
 180 453 180 453 182 460 c 128,-1,15
 184 467 184 467 185 474 c 1,16,-1
 208 474 l 1,17,18
 208 447 208 447 199.5 432.5 c 128,-1,19
 191 418 191 418 179 412 c 128,-1,20
 167 406 167 406 154.5 407 c 128,-1,21
 142 408 142 408 134 411 c 0,22,23
 131 412 131 412 123.5 415.5 c 128,-1,24
 116 419 116 419 107 422.5 c 128,-1,25
 98 426 98 426 90.5 429 c 128,-1,26
 83 432 83 432 82 433 c 1,27,28
 72 437 72 437 65 434.5 c 128,-1,29
 58 432 58 432 53 426.5 c 128,-1,30
 48 421 48 421 45.5 414 c 128,-1,31
 43 407 43 407 42 402 c 1,0,-1
EndSplineSet
EndChar
StartChar: uni0E01
Encoding: 3585 3585 212
Width: 487
Flags: W
Fore
438 20 m 2,0,1
 438 12 438 12 432.5 6 c 128,-1,2
 427 0 427 0 419 0 c 256,3,4
 411 0 411 0 405 6 c 128,-1,5
 399 12 399 12 399 20 c 2,6,-1
 399 237 l 2,7,8
 399 309 399 309 361.5 338 c 128,-1,9
 324 367 324 367 256 367 c 0,10,11
 211 367 211 367 181 354 c 128,-1,12
 151 341 151 341 132.5 323 c 128,-1,13
 114 305 114 305 104.5 286 c 128,-1,14
 95 267 95 267 91 255 c 1,15,16
 100 250 100 250 115 242 c 128,-1,17
 130 234 130 234 144 227 c 1,18,19
 155 239 155 239 173 247 c 0,20,21
 181 250 181 250 188 247 c 128,-1,22
 195 244 195 244 198 236 c 0,23,24
 202 228 202 228 199 221 c 128,-1,25
 196 214 196 214 188 211 c 0,26,27
 176 206 176 206 169 197 c 128,-1,28
 162 188 162 188 159 179 c 128,-1,29
 156 170 156 170 155.5 163 c 128,-1,30
 155 156 155 156 155 155 c 0,31,32
 153 120 153 120 153.5 86 c 128,-1,33
 154 52 154 52 155 20 c 0,34,35
 156 12 156 12 150.5 6 c 128,-1,36
 145 0 145 0 137 0 c 0,37,38
 118 0 118 0 116 19 c 0,39,40
 115 51 115 51 114.5 85 c 128,-1,41
 114 119 114 119 116 157 c 1,42,43
 117 160 117 160 117.5 170.5 c 128,-1,44
 118 181 118 181 123 194 c 1,45,-1
 92 210 l 2,46,47
 77 218 77 218 68 223 c 128,-1,48
 59 228 59 228 54.5 232 c 128,-1,49
 50 236 50 236 49 239.5 c 128,-1,50
 48 243 48 243 49 249 c 2,51,52
 52 261 l 130,-1,53
 55 273 55 273 63 290.5 c 128,-1,54
 71 308 71 308 85.5 328 c 128,-1,55
 100 348 100 348 122.5 365.5 c 128,-1,56
 145 383 145 383 178 394.5 c 128,-1,57
 211 406 211 406 256 406 c 0,58,59
 344 406 344 406 391 365.5 c 128,-1,60
 438 325 438 325 438 236 c 2,61,-1
 438 20 l 2,0,1
EndSplineSet
EndChar
StartChar: uni0E02
Encoding: 3586 3586 213
Width: 421
Flags: W
Fore
372 110 m 2,0,1
 372 47 372 47 334 22 c 128,-1,2
 296 -3 296 -3 236 -3 c 256,3,4
 176 -3 176 -3 142 26 c 128,-1,5
 108 55 108 55 108 115 c 0,6,7
 108 149 108 149 123.5 172 c 128,-1,8
 139 195 139 195 158 215 c 128,-1,9
 177 235 177 235 192.5 256 c 128,-1,10
 208 277 208 277 208 307 c 0,11,12
 208 321 208 321 201 339.5 c 128,-1,13
 194 358 194 358 176 366 c 1,14,15
 188 339 188 339 174 312 c 128,-1,16
 160 285 160 285 133 274 c 0,17,18
 120 267 120 267 105 265.5 c 128,-1,19
 90 264 90 264 76.5 268 c 128,-1,20
 63 272 63 272 51.5 280.5 c 128,-1,21
 40 289 40 289 34 303 c 0,22,23
 20 334 20 334 35.5 360 c 128,-1,24
 51 386 51 386 81 400 c 128,-1,25
 111 414 111 414 147.5 413.5 c 128,-1,26
 184 413 184 413 212 390 c 0,27,28
 247 361 247 361 247 307 c 0,29,30
 247 272 247 272 231.5 247.5 c 128,-1,31
 216 223 216 223 197 203 c 128,-1,32
 178 183 178 183 162.5 162.5 c 128,-1,33
 147 142 147 142 147 115 c 0,34,35
 147 71 147 71 169 51.5 c 128,-1,36
 191 32 191 32 236 32 c 0,37,38
 292 32 292 32 312.5 54 c 128,-1,39
 333 76 333 76 333 110 c 2,40,-1
 333 384 l 2,41,42
 333 392 333 392 338.5 398 c 128,-1,43
 344 404 344 404 352 404 c 256,44,45
 360 404 360 404 366 398 c 128,-1,46
 372 392 372 392 372 384 c 2,47,-1
 372 110 l 2,0,1
143 353 m 256,48,49
 136 367 136 367 121 369.5 c 128,-1,50
 106 372 106 372 91 365 c 0,51,52
 86 363 86 363 80.5 358.5 c 128,-1,53
 75 354 75 354 70.5 347.5 c 128,-1,54
 66 341 66 341 64 333.5 c 128,-1,55
 62 326 62 326 66 318 c 0,56,57
 74 301 74 301 89.5 300.5 c 128,-1,58
 105 300 105 300 118 306 c 0,59,60
 132 313 132 313 141 326 c 128,-1,61
 150 339 150 339 143 353 c 256,48,49
EndSplineSet
EndChar
StartChar: uni0E03
Encoding: 3587 3587 214
Width: 462
Flags: W
Fore
413 112 m 2,0,1
 413 77 413 77 401.5 55 c 128,-1,2
 390 33 390 33 370.5 20 c 128,-1,3
 351 7 351 7 326.5 2 c 128,-1,4
 302 -3 302 -3 277 -3 c 256,5,6
 252 -3 252 -3 229 3 c 128,-1,7
 206 9 206 9 188 22.5 c 128,-1,8
 170 36 170 36 159.5 58 c 128,-1,9
 149 80 149 80 149 112 c 0,10,11
 149 152 149 152 163.5 175.5 c 128,-1,12
 178 199 178 199 197.5 217 c 128,-1,13
 217 235 217 235 236.5 254 c 128,-1,14
 256 273 256 273 265 305 c 0,15,16
 270 326 270 326 266 343.5 c 128,-1,17
 262 361 262 361 242 366 c 0,18,19
 234 368 234 368 228 366 c 128,-1,20
 222 364 222 364 218 360 c 128,-1,21
 214 356 214 356 212 352 c 128,-1,22
 210 348 210 348 209 346 c 1,23,24
 210 344 210 344 210 343 c 128,-1,25
 210 342 210 342 211 340 c 1,26,27
 214 321 214 321 196 316 c 0,28,29
 188 314 188 314 181.5 318.5 c 128,-1,30
 175 323 175 323 173 331 c 0,31,32
 166 358 166 358 147 365.5 c 128,-1,33
 128 373 128 373 109 370 c 0,34,35
 98 368 98 368 85 358.5 c 128,-1,36
 72 349 72 349 70 338 c 1,37,38
 90 346 90 346 107.5 344.5 c 128,-1,39
 125 343 125 343 138.5 335.5 c 128,-1,40
 152 328 152 328 159.5 315.5 c 128,-1,41
 167 303 167 303 167 288 c 0,42,43
 167 278 167 278 162 267.5 c 128,-1,44
 157 257 157 257 148 248.5 c 128,-1,45
 139 240 139 240 127 234.5 c 128,-1,46
 115 229 115 229 100 229 c 0,47,48
 65 229 65 229 47 254 c 128,-1,49
 29 279 29 279 29 310 c 128,-1,50
 29 341 29 341 48 369.5 c 128,-1,51
 67 398 67 398 106 404 c 0,52,53
 129 408 129 408 150 402 c 128,-1,54
 171 396 171 396 186 382 c 1,55,56
 197 394 197 394 213 401.5 c 128,-1,57
 229 409 229 409 251 404 c 0,58,59
 285 396 285 396 297.5 366.5 c 128,-1,60
 310 337 310 337 301 294 c 0,61,62
 294 263 294 263 275.5 242 c 128,-1,63
 257 221 257 221 237.5 202 c 128,-1,64
 218 183 218 183 203 162.5 c 128,-1,65
 188 142 188 142 188 112 c 0,66,67
 188 87 188 87 196 71.5 c 128,-1,68
 204 56 204 56 216.5 47 c 128,-1,69
 229 38 229 38 244.5 35 c 128,-1,70
 260 32 260 32 275 32 c 0,71,72
 321 32 321 32 347.5 49.5 c 128,-1,73
 374 67 374 67 374 112 c 2,74,-1
 374 384 l 2,75,76
 374 392 374 392 379.5 398 c 128,-1,77
 385 404 385 404 393 404 c 256,78,79
 401 404 401 404 407 398 c 128,-1,80
 413 392 413 392 413 381 c 2,81,-1
 413 112 l 2,0,1
133 288 m 0,82,83
 133 312 133 312 100 312 c 0,84,85
 82 312 82 312 74.5 305 c 128,-1,86
 67 298 67 298 67 288 c 0,87,88
 67 274 67 274 79.5 269 c 128,-1,89
 92 264 92 264 100 264 c 0,90,91
 114 264 114 264 123.5 271 c 128,-1,92
 133 278 133 278 133 288 c 0,82,83
EndSplineSet
EndChar
StartChar: uni0E04
Encoding: 3588 3588 215
Width: 470
Flags: W
Fore
421 19 m 2,0,1
 421 11 421 11 415 5 c 128,-1,2
 409 -1 409 -1 401 -1 c 256,3,4
 393 -1 393 -1 387.5 5 c 128,-1,5
 382 11 382 11 382 19 c 2,6,-1
 382 236 l 2,7,8
 382 308 382 308 345 337 c 128,-1,9
 308 366 308 366 242 366 c 0,10,11
 171 366 171 366 129.5 336 c 128,-1,12
 88 306 88 306 88 235 c 2,13,-1
 88 183 l 1,14,15
 104 210 104 210 124 228.5 c 128,-1,16
 144 247 144 247 165 258 c 128,-1,17
 186 269 186 269 205.5 274 c 128,-1,18
 225 279 225 279 241 278 c 2,19,-1
 242 278 l 2,20,21
 260 278 260 278 274 272 c 128,-1,22
 288 266 288 266 298 256.5 c 128,-1,23
 308 247 308 247 313 235.5 c 128,-1,24
 318 224 318 224 318 212 c 0,25,26
 318 186 318 186 297.5 166 c 128,-1,27
 277 146 277 146 242 146 c 0,28,29
 229 146 229 146 215.5 150 c 128,-1,30
 202 154 202 154 191 162.5 c 128,-1,31
 180 171 180 171 173 183 c 128,-1,32
 166 195 166 195 166 212 c 2,33,-1
 166 213 l 1,34,35
 135 191 135 191 114.5 163.5 c 128,-1,36
 94 136 94 136 88 97 c 1,37,-1
 88 19 l 2,38,39
 88 11 88 11 82.5 5 c 128,-1,40
 77 -1 77 -1 69 -1 c 256,41,42
 61 -1 61 -1 55 5 c 128,-1,43
 49 11 49 11 49 19 c 2,44,-1
 49 235 l 2,45,46
 49 278 49 278 63 310 c 128,-1,47
 77 342 77 342 102.5 363 c 128,-1,48
 128 384 128 384 163.5 394.5 c 128,-1,49
 199 405 199 405 242 405 c 0,50,51
 329 405 329 405 375 365 c 128,-1,52
 421 325 421 325 421 235 c 2,53,-1
 421 19 l 2,0,1
283 212 m 0,54,55
 283 222 283 222 275 232.5 c 128,-1,56
 267 243 267 243 242 243 c 0,57,58
 226 243 226 243 213.5 237 c 128,-1,59
 201 231 201 231 201 212 c 0,60,61
 201 195 201 195 214.5 188 c 128,-1,62
 228 181 228 181 242 181 c 0,63,64
 259 181 259 181 271 190 c 128,-1,65
 283 199 283 199 283 212 c 0,54,55
EndSplineSet
EndChar
StartChar: uni0E05
Encoding: 3589 3589 216
Width: 471
Flags: W
Fore
422 338 m 1,0,-1
 422 17 l 2,1,2
 422 9 422 9 416 3 c 128,-1,3
 410 -3 410 -3 402 -3 c 256,4,5
 394 -3 394 -3 388.5 3 c 128,-1,6
 383 9 383 9 383 17 c 2,7,-1
 383 339 l 2,8,9
 383 348 383 348 376 356 c 128,-1,10
 369 364 369 364 345 370 c 1,11,12
 336 358 336 358 328 347.5 c 128,-1,13
 320 337 320 337 310 329.5 c 128,-1,14
 300 322 300 322 287 317.5 c 128,-1,15
 274 313 274 313 256 313 c 0,16,17
 237 313 237 313 223 320 c 128,-1,18
 209 327 209 327 198.5 336.5 c 128,-1,19
 188 346 188 346 180 356 c 128,-1,20
 172 366 172 366 166 373 c 1,21,22
 140 370 140 370 125 360 c 128,-1,23
 110 350 110 350 101.5 336.5 c 128,-1,24
 93 323 93 323 90.5 308.5 c 128,-1,25
 88 294 88 294 88 282 c 2,26,-1
 88 189 l 1,27,28
 111 226 111 226 151.5 251 c 128,-1,29
 192 276 192 276 240 276 c 0,30,31
 276 276 276 276 295.5 256.5 c 128,-1,32
 315 237 315 237 315 210 c 0,33,34
 315 177 315 177 291 160.5 c 128,-1,35
 267 144 267 144 240 144 c 0,36,37
 227 144 227 144 213.5 148.5 c 128,-1,38
 200 153 200 153 189 161.5 c 128,-1,39
 178 170 178 170 171 182.5 c 128,-1,40
 164 195 164 195 164 210 c 2,41,-1
 164 211 l 1,42,43
 130 187 130 187 109 154.5 c 128,-1,44
 88 122 88 122 88 77 c 2,45,-1
 88 17 l 2,46,47
 88 9 88 9 82 3 c 128,-1,48
 76 -3 76 -3 68 -3 c 256,49,50
 60 -3 60 -3 54.5 3 c 128,-1,51
 49 9 49 9 49 17 c 2,52,-1
 49 282 l 2,53,54
 49 340 49 340 80.5 374.5 c 128,-1,55
 112 409 112 409 168 413 c 0,56,57
 181 414 181 414 189.5 405.5 c 128,-1,58
 198 397 198 397 206 386 c 0,59,60
 218 366 218 366 229 357.5 c 128,-1,61
 240 349 240 349 257 349 c 0,62,63
 272 349 272 349 282 354.5 c 128,-1,64
 292 360 292 360 307 383 c 0,65,66
 313 393 313 393 322 403 c 128,-1,67
 331 413 331 413 346 410 c 0,68,69
 352 408 352 408 364.5 404.5 c 128,-1,70
 377 401 377 401 390 392.5 c 128,-1,71
 403 384 403 384 412.5 371 c 128,-1,72
 422 358 422 358 422 339 c 2,73,-1
 422 338 l 1,0,-1
281 210 m 0,74,75
 281 225 281 225 267 233.5 c 128,-1,76
 253 242 253 242 240 242 c 0,77,78
 226 242 226 242 212.5 234 c 128,-1,79
 199 226 199 226 199 210 c 256,80,81
 199 194 199 194 212.5 186.5 c 128,-1,82
 226 179 226 179 240 179 c 0,83,84
 257 179 257 179 269 188 c 128,-1,85
 281 197 281 197 281 210 c 0,74,75
EndSplineSet
EndChar
StartChar: uni0E06
Encoding: 3590 3590 217
Width: 524
Flags: W
Fore
475 114 m 2,0,1
 475 76 475 76 467 52 c 128,-1,2
 459 28 459 28 445.5 15 c 128,-1,3
 432 2 432 2 413 -2 c 128,-1,4
 394 -6 394 -6 372 -4 c 0,5,6
 354 -2 354 -2 331.5 12.5 c 128,-1,7
 309 27 309 27 288.5 44 c 128,-1,8
 268 61 268 61 253 75.5 c 128,-1,9
 238 90 238 90 236 92 c 1,10,11
 236 78 236 78 232.5 61 c 128,-1,12
 229 44 229 44 219.5 30 c 128,-1,13
 210 16 210 16 193.5 6.5 c 128,-1,14
 177 -3 177 -3 150 -2 c 0,15,16
 127 -1 127 -1 109 13.5 c 128,-1,17
 91 28 91 28 83 53 c 0,18,19
 75 77 75 77 79 107.5 c 128,-1,20
 83 138 83 138 108 160 c 0,21,22
 121 172 121 172 135 175 c 128,-1,23
 149 178 149 178 161 177 c 128,-1,24
 173 176 173 176 181.5 172.5 c 128,-1,25
 190 169 190 169 193 168 c 1,26,-1
 194 168 l 1,27,-1
 194 188 l 2,28,29
 194 220 194 220 211 241 c 128,-1,30
 228 262 228 262 245 279 c 0,31,32
 254 288 254 288 262 296 c 128,-1,33
 270 304 270 304 274.5 312 c 128,-1,34
 279 320 279 320 279 329.5 c 128,-1,35
 279 339 279 339 273 350 c 0,36,37
 268 359 268 359 260 363 c 128,-1,38
 252 367 252 367 244 366.5 c 128,-1,39
 236 366 236 366 229.5 361 c 128,-1,40
 223 356 223 356 220 346 c 1,41,42
 221 344 221 344 221 342.5 c 128,-1,43
 221 341 221 341 222 339 c 1,44,45
 224 331 224 331 219.5 324.5 c 128,-1,46
 215 318 215 318 207 316 c 256,47,48
 199 314 199 314 192.5 318 c 128,-1,49
 186 322 186 322 184 330 c 0,50,51
 176 354 176 354 159 362 c 128,-1,52
 142 370 142 370 124 367 c 128,-1,53
 106 364 106 364 92.5 353 c 128,-1,54
 79 342 79 342 80 327 c 1,55,56
 90 336 90 336 107 337 c 128,-1,57
 124 338 124 338 139.5 331 c 128,-1,58
 155 324 155 324 166.5 310.5 c 128,-1,59
 178 297 178 297 178 277 c 0,60,61
 178 252 178 252 159 235 c 128,-1,62
 140 218 140 218 111 218 c 0,63,64
 87 218 87 218 70.5 230.5 c 128,-1,65
 54 243 54 243 45.5 262 c 128,-1,66
 37 281 37 281 37 303.5 c 128,-1,67
 37 326 37 326 45.5 346.5 c 128,-1,68
 54 367 54 367 72 382.5 c 128,-1,69
 90 398 90 398 117 403 c 0,70,71
 140 407 140 407 160 401.5 c 128,-1,72
 180 396 180 396 195 383 c 1,73,74
 205 396 205 396 220 403.5 c 128,-1,75
 235 411 235 411 255 404 c 0,76,77
 287 393 287 393 300.5 372 c 128,-1,78
 314 351 314 351 313.5 328.5 c 128,-1,79
 313 306 313 306 301.5 285.5 c 128,-1,80
 290 265 290 265 274 255 c 1,81,82
 258 241 258 241 245.5 224 c 128,-1,83
 233 207 233 207 233 188 c 2,84,-1
 233 146 l 1,85,86
 239 141 239 141 256.5 124 c 128,-1,87
 274 107 274 107 296 88 c 128,-1,88
 318 69 318 69 340 53 c 128,-1,89
 362 37 362 37 377 35 c 0,90,91
 414 30 414 30 425 47 c 128,-1,92
 436 64 436 64 436 114 c 2,93,-1
 436 384 l 2,94,95
 436 392 436 392 442 398 c 128,-1,96
 448 404 448 404 456 404 c 256,97,98
 464 404 464 404 469.5 398 c 128,-1,99
 475 392 475 392 475 384 c 2,100,-1
 475 114 l 2,0,1
144 277 m 0,101,102
 144 290 144 290 134.5 295.5 c 128,-1,103
 125 301 125 301 111 301 c 0,104,105
 104 301 104 301 91 296 c 128,-1,106
 78 291 78 291 78 277 c 0,107,108
 78 265 78 265 88 259 c 128,-1,109
 98 253 98 253 111 253 c 0,110,111
 125 253 125 253 134.5 260 c 128,-1,112
 144 267 144 267 144 277 c 0,101,102
198 85 m 0,113,114
 198 99 198 99 194 113 c 128,-1,115
 190 127 190 127 173 135 c 0,116,117
 156 142 156 142 144 136.5 c 128,-1,118
 132 131 132 131 125 119 c 128,-1,119
 118 107 118 107 116 92 c 128,-1,120
 114 77 114 77 119 65 c 0,121,122
 121 58 121 58 129 47 c 128,-1,123
 137 36 137 36 152 35 c 0,124,125
 164 34 164 34 173 38.5 c 128,-1,126
 182 43 182 43 187.5 50.5 c 128,-1,127
 193 58 193 58 195.5 67 c 128,-1,128
 198 76 198 76 198 85 c 0,113,114
EndSplineSet
EndChar
StartChar: uni0E07
Encoding: 3591 3591 218
Width: 375
Flags: W
Fore
326 114 m 2,0,1
 325 63 325 63 309.5 38.5 c 128,-1,2
 294 14 294 14 277 5 c 0,3,4
 252 -9 252 -9 220 -4.5 c 128,-1,5
 188 0 188 0 154 21 c 0,6,7
 131 34 131 34 109 55.5 c 128,-1,8
 87 77 87 77 70 103 c 128,-1,9
 53 129 53 129 42.5 159.5 c 128,-1,10
 32 190 32 190 33 223 c 0,11,12
 33 231 33 231 39 236.5 c 128,-1,13
 45 242 45 242 53 242 c 256,14,15
 61 242 61 242 66.5 236 c 128,-1,16
 72 230 72 230 72 222 c 0,17,18
 71 196 71 196 79.5 171.5 c 128,-1,19
 88 147 88 147 102.5 124.5 c 128,-1,20
 117 102 117 102 135.5 84 c 128,-1,21
 154 66 154 66 174 54 c 0,22,23
 199 39 199 39 221 35 c 128,-1,24
 243 31 243 31 258 39 c 0,25,26
 276 49 276 49 281.5 71.5 c 128,-1,27
 287 94 287 94 287 114 c 2,28,-1
 287 283 l 1,29,30
 279 279 279 279 268 277 c 128,-1,31
 257 275 257 275 248 275 c 0,32,33
 219 275 219 275 195.5 293 c 128,-1,34
 172 311 172 311 172 341 c 0,35,36
 172 369 172 369 194 388 c 128,-1,37
 216 407 216 407 248 407 c 0,38,39
 286 407 286 407 306 388.5 c 128,-1,40
 326 370 326 370 326 341 c 2,41,-1
 326 114 l 2,0,1
289 341 m 0,42,43
 289 357 289 357 275.5 364.5 c 128,-1,44
 262 372 262 372 248 372 c 256,45,46
 234 372 234 372 220.5 365 c 128,-1,47
 207 358 207 358 207 341 c 256,48,49
 207 324 207 324 220.5 317 c 128,-1,50
 234 310 234 310 248 310 c 0,51,52
 265 310 265 310 277 319 c 128,-1,53
 289 328 289 328 289 341 c 0,42,43
EndSplineSet
EndChar
StartChar: uni0E08
Encoding: 3592 3592 219
Width: 445
Flags: W
Fore
396 78 m 2,0,1
 396 39 396 39 375 19 c 128,-1,2
 354 -1 354 -1 329 -3 c 0,3,4
 316 -4 316 -4 302.5 -0.5 c 128,-1,5
 289 3 289 3 277 12 c 128,-1,6
 265 21 265 21 256 34.5 c 128,-1,7
 247 48 247 48 244 67 c 0,8,9
 239 94 239 94 236.5 110.5 c 128,-1,10
 234 127 234 127 232 135 c 0,11,12
 230 145 230 145 229 148 c 1,13,14
 208 132 208 132 180 132 c 0,15,16
 166 132 166 132 152 137 c 128,-1,17
 138 142 138 142 127.5 150.5 c 128,-1,18
 117 159 117 159 110.5 171 c 128,-1,19
 104 183 104 183 104 198 c 0,20,21
 104 226 104 226 126 245.5 c 128,-1,22
 148 265 148 265 180 265 c 0,23,24
 201 265 201 265 215 258 c 128,-1,25
 229 251 229 251 239 239.5 c 128,-1,26
 249 228 249 228 254 214 c 128,-1,27
 259 200 259 200 262 186 c 1,28,29
 261 184 261 184 264 172 c 0,30,31
 266 161 266 161 270 138.5 c 128,-1,32
 274 116 274 116 282 74 c 0,33,34
 286 54 286 54 299 44 c 128,-1,35
 312 34 312 34 326 36 c 0,36,37
 357 39 357 39 357 78 c 2,38,-1
 357 243 l 2,39,40
 357 310 357 310 326.5 338 c 128,-1,41
 296 366 296 366 227 366 c 0,42,43
 180 366 180 366 150 352.5 c 128,-1,44
 120 339 120 339 102.5 320 c 128,-1,45
 85 301 85 301 77.5 281 c 128,-1,46
 70 261 70 261 67 249 c 0,47,48
 65 241 65 241 58.5 236.5 c 128,-1,49
 52 232 52 232 44 234 c 256,50,51
 36 236 36 236 31.5 242.5 c 128,-1,52
 27 249 27 249 29 257 c 0,53,54
 31 269 31 269 40 294 c 128,-1,55
 49 319 49 319 71 343.5 c 128,-1,56
 93 368 93 368 130.5 386.5 c 128,-1,57
 168 405 168 405 227 405 c 0,58,59
 309 405 309 405 353 365 c 128,-1,60
 397 325 397 325 396 243 c 2,61,-1
 396 78 l 2,0,1
221 198 m 0,62,63
 221 214 221 214 207.5 222 c 128,-1,64
 194 230 194 230 180 230 c 256,65,66
 166 230 166 230 152.5 222 c 128,-1,67
 139 214 139 214 139 198 c 256,68,69
 139 182 139 182 152.5 174.5 c 128,-1,70
 166 167 166 167 180 167 c 0,71,72
 197 167 197 167 209 176 c 128,-1,73
 221 185 221 185 221 198 c 0,62,63
EndSplineSet
EndChar
StartChar: uni0E09
Encoding: 3593 3593 220
Width: 483
Flags: W
Fore
467 57 m 0,0,1
 464 34 464 34 452 19.5 c 128,-1,2
 440 5 440 5 424 -0.5 c 128,-1,3
 408 -6 408 -6 390 -3.5 c 128,-1,4
 372 -1 372 -1 359 9 c 0,5,6
 347 18 347 18 340.5 34.5 c 128,-1,7
 334 51 334 51 335 60 c 1,8,9
 312 35 312 35 286.5 16 c 128,-1,10
 261 -3 261 -3 229 -3 c 0,11,12
 177 -3 177 -3 157 21.5 c 128,-1,13
 137 46 137 46 137 90 c 2,14,-1
 137 134 l 1,15,16
 122 127 122 127 102 127 c 0,17,18
 75 127 75 127 52 144 c 128,-1,19
 29 161 29 161 29 190 c 0,20,21
 29 216 29 216 50.5 235 c 128,-1,22
 72 254 72 254 102 254 c 0,23,24
 115 254 115 254 128.5 250 c 128,-1,25
 142 246 142 246 152.5 238 c 128,-1,26
 163 230 163 230 169.5 218.5 c 128,-1,27
 176 207 176 207 176 193 c 2,28,-1
 176 90 l 2,29,30
 176 60 176 60 187.5 48 c 128,-1,31
 199 36 199 36 229 36 c 0,32,33
 250 36 250 36 268.5 51 c 128,-1,34
 287 66 287 66 308 88 c 0,35,36
 327 108 327 108 344.5 130 c 128,-1,37
 362 152 362 152 383 157 c 1,38,-1
 383 234 l 2,39,40
 383 260 383 260 378.5 286.5 c 128,-1,41
 374 313 374 313 354 333 c 0,42,43
 338 350 338 350 305 359.5 c 128,-1,44
 272 369 272 369 230 369 c 0,45,46
 186 369 186 369 157 360.5 c 128,-1,47
 128 352 128 352 109.5 340 c 128,-1,48
 91 328 91 328 82.5 315 c 128,-1,49
 74 302 74 302 71 292 c 0,50,51
 69 284 69 284 62 280.5 c 128,-1,52
 55 277 55 277 47 279 c 0,53,54
 28 284 28 284 33 303 c 0,55,56
 37 317 37 317 49 335.5 c 128,-1,57
 61 354 61 354 83.5 370 c 128,-1,58
 106 386 106 386 142 397 c 128,-1,59
 178 408 178 408 230 408 c 0,60,61
 281 408 281 408 320 395.5 c 128,-1,62
 359 383 359 383 382 361 c 0,63,64
 410 332 410 332 416 297.5 c 128,-1,65
 422 263 422 263 422 234 c 2,66,-1
 422 155 l 1,67,68
 438 153 438 153 448 143 c 128,-1,69
 458 133 458 133 463 118.5 c 128,-1,70
 468 104 468 104 468.5 87.5 c 128,-1,71
 469 71 469 71 467 57 c 0,0,1
436 75 m 256,72,73
 436 93 436 93 426 105.5 c 128,-1,74
 416 118 416 118 402 118 c 256,75,76
 388 118 388 118 377.5 105.5 c 128,-1,77
 367 93 367 93 367 75 c 256,78,79
 367 57 367 57 377.5 44.5 c 128,-1,80
 388 32 388 32 402 32 c 256,81,82
 416 32 416 32 426 44.5 c 128,-1,83
 436 57 436 57 436 75 c 256,72,73
140 190 m 0,84,85
 140 205 140 205 128 212 c 128,-1,86
 116 219 116 219 102 219 c 256,87,88
 88 219 88 219 76 212 c 128,-1,89
 64 205 64 205 64 190 c 0,90,91
 64 176 64 176 76.5 168.5 c 128,-1,92
 89 161 89 161 102 161 c 0,93,94
 118 161 118 161 129 170 c 128,-1,95
 140 179 140 179 140 190 c 0,84,85
EndSplineSet
EndChar
StartChar: uni0E0A
Encoding: 3594 3594 221
Width: 420
Flags: W
Fore
396 422 m 0,0,1
 396 416 396 416 388.5 404.5 c 128,-1,2
 381 393 381 393 369 378.5 c 128,-1,3
 357 364 357 364 342 349 c 128,-1,4
 327 334 327 334 312 320 c 1,5,6
 329 309 329 309 340.5 299 c 128,-1,7
 352 289 352 289 359 277 c 128,-1,8
 366 265 366 265 369 250.5 c 128,-1,9
 372 236 372 236 372 217 c 2,10,-1
 372 114 l 2,11,12
 372 51 372 51 336.5 24 c 128,-1,13
 301 -3 301 -3 241 -3 c 256,14,15
 181 -3 181 -3 144.5 26 c 128,-1,16
 108 55 108 55 108 115 c 0,17,18
 108 149 108 149 123.5 172 c 128,-1,19
 139 195 139 195 158 215 c 128,-1,20
 177 235 177 235 192.5 256 c 128,-1,21
 208 277 208 277 208 307 c 0,22,23
 208 336 208 336 194 354.5 c 128,-1,24
 180 373 180 373 167 373 c 1,25,26
 181 366 181 366 181 348.5 c 128,-1,27
 181 331 181 331 177 320 c 0,28,29
 166 288 166 288 133 274 c 0,30,31
 120 267 120 267 105 265.5 c 128,-1,32
 90 264 90 264 76.5 268 c 128,-1,33
 63 272 63 272 51.5 280.5 c 128,-1,34
 40 289 40 289 34 303 c 0,35,36
 28 316 28 316 28.5 330.5 c 128,-1,37
 29 345 29 345 35 358 c 128,-1,38
 41 371 41 371 51.5 381 c 128,-1,39
 62 391 62 391 76 397 c 0,40,41
 82 400 82 400 98.5 404.5 c 128,-1,42
 115 409 115 409 135 410 c 128,-1,43
 155 411 155 411 175.5 407 c 128,-1,44
 196 403 196 403 212 390 c 0,45,46
 226 378 226 378 235 359.5 c 128,-1,47
 244 341 244 341 246 319 c 1,48,49
 264 328 264 328 283 343.5 c 128,-1,50
 302 359 302 359 318 375 c 128,-1,51
 334 391 334 391 344.5 405 c 128,-1,52
 355 419 355 419 357 424 c 1,53,54
 358 431 358 431 363 436 c 128,-1,55
 368 441 368 441 376 441 c 256,56,57
 384 441 384 441 389.5 435.5 c 128,-1,58
 395 430 395 430 396 422 c 0,0,1
143 353 m 256,59,60
 136 367 136 367 121 369.5 c 128,-1,61
 106 372 106 372 91 365 c 0,62,63
 86 363 86 363 80.5 358.5 c 128,-1,64
 75 354 75 354 70.5 347.5 c 128,-1,65
 66 341 66 341 64 333.5 c 128,-1,66
 62 326 62 326 66 318 c 0,67,68
 74 301 74 301 89.5 300.5 c 128,-1,69
 105 300 105 300 118 306 c 0,70,71
 132 313 132 313 141 326 c 128,-1,72
 150 339 150 339 143 353 c 256,59,60
333 217 m 2,73,74
 333 249 333 249 322.5 266.5 c 128,-1,75
 312 284 312 284 283 298 c 1,76,77
 278 295 278 295 271.5 291 c 128,-1,78
 265 287 265 287 259 284 c 128,-1,79
 253 281 253 281 248 278.5 c 128,-1,80
 244 276 244 276 243 276 c 1,81,82
 237 251 237 251 221 232 c 128,-1,83
 205 213 205 213 188.5 195 c 128,-1,84
 172 177 172 177 159.5 158 c 128,-1,85
 147 139 147 139 147 115 c 0,86,87
 147 71 147 71 171.5 51 c 128,-1,88
 196 31 196 31 241 31 c 0,89,90
 269 31 269 31 287 37.5 c 128,-1,91
 305 44 305 44 315 55.5 c 128,-1,92
 325 67 325 67 329 82 c 128,-1,93
 333 97 333 97 333 114 c 2,94,-1
 333 217 l 2,73,74
EndSplineSet
EndChar
